<?xml version="1.0" encoding="UTF-8" standalone="no"?>
<!DOCTYPE svg PUBLIC "-//W3C//DTD SVG 1.1//EN" "http://www.w3.org/Graphics/SVG/1.1/DTD/svg11.dtd">
<svg xmlns="http://www.w3.org/2000/svg" xmlns:xlink="http://www.w3.org/1999/xlink" version="1.1"><script xmlns="" type="text/javascript" charset="utf-8" id="zm-extension"/>
<metadata/>
<defs>
<font id="tex_gyre_pagellaregular" horiz-adv-x="681">
<font-face units-per-em="2048" ascent="1487" descent="-561"/>
<missing-glyph horiz-adv-x="512"/>
<glyph unicode="IJ" horiz-adv-x="1482" d="M682 -6q-150 6 -301 6q-149 0 -299 -6v61l98 6q38 2 56.5 7.5t31 27t15 53.5t2.5 97v919q0 65 -2.5 97t-15 53.5t-31 27t-56.5 7.5l-98 6v61q150 -6 299 -6q151 0 301 6v-61l-98 -6q-38 -2 -56.5 -7.5t-31 -27t-15 -53.5t-2.5 -97v-919q0 -65 2.5 -97t15 -53.5t31 -27 t56.5 -7.5l98 -6v-61zM1401 1356l-98 -6q-38 -2 -56.5 -7.5t-31 -27t-15 -53.5t-2.5 -97v-925q0 -186 -26 -283.5t-101 -189.5q-59 -74 -142 -123t-136 -43l-50 6l-10 155l23 13q66 -41 137 -41q62 0 86.5 51t24.5 180v1200q0 65 -2.5 97t-15 53.5t-31 27t-56.5 7.5l-98 6 v61q150 -6 299 -6q151 0 301 6v-61z"/>
<glyph unicode="ij" horiz-adv-x="1042" d="M594 -6q-129 6 -256 6t-256 -6v61l94 6q52 3 64 26.5t12 121.5v461q0 72 -6 100.5t-23 38.5t-61 10h-76v58q159 18 320 84l18 -9v-743q0 -98 12 -121.5t64 -26.5l94 -6v-61zM440 1212q0 -46 -28 -74t-74 -28t-74 28t-28 74t28.5 74.5t75.5 28.5q44 0 72 -29t28 -74z M961 -39q0 -245 -109 -387q-59 -77 -122 -112.5t-152 -41.5l-25 78q27 -6 61 -6q89 0 131.5 119.5t42.5 374.5v684q0 72 -6 100.5t-23 38.5t-61 10h-75v58q158 17 319 84l19 -9v-991zM977 1212q0 -46 -28.5 -74t-74.5 -28t-74 28t-28 74t29 74.5t76 28.5q44 0 72 -29t28 -74 z"/>
<glyph unicode="fk" horiz-adv-x="1794" d="M1780 35l-197 -60l-543 517v-283q0 -98 12 -121.5t64 -26.5l90 -6v-61q-123 6 -248 6q-131 0 -260 -6v61l95 6q52 3 63.5 26.5t11.5 121.5v1061q0 46 -11.5 65t-39.5 19h-88v-43l-47 -13q-66 58 -150 58q-88 0 -115.5 -57t-27.5 -236v-174q148 0 268 8l-14 -109h-254 v-579q0 -98 12 -121.5t64 -26.5l94 -6v-61q-129 6 -256 6t-256 -6v61l94 6q52 3 64 26.5t12 121.5v579l-141 -8v45l141 64v86q0 196 86 295l119 135q35 40 84 63t96 23q68 0 127 -23v-53q186 30 293 72l18 -17v-935l150 120q111 89 307 285h205v-61q-54 0 -101.5 -21 t-119.5 -76l-264 -207q47 -55 131 -139l258 -256q103 -98 174 -98v-47z"/>
<glyph unicode="ff" horiz-adv-x="1275" d="M1292 1311l-24 -13q-37 32 -68.5 45t-73.5 13q-88 0 -115.5 -57t-27.5 -236v-174l268 8l-14 -109h-254v-579q0 -98 12 -121.5t64 -26.5l94 -6v-61q-129 6 -256 6t-256 -6v61l94 6q52 3 64 26.5t12 121.5v579h-422v-579q0 -98 12 -121.5t64 -26.5l94 -6v-61q-129 6 -256 6 t-256 -6v61l94 6q52 3 64 26.5t12 121.5v579l-141 -8v45l141 64v86q0 196 86 295l119 135q35 40 84 63t96 23q37 0 96 -23v-157l-24 -13q-37 32 -68.5 45t-73.5 13q-88 0 -115.5 -57t-27.5 -236v-174h422v86q0 196 86 295l119 135q35 40 84 63t96 23q37 0 96 -23v-157z"/>
<glyph unicode="fi" horiz-adv-x="1239" d="M698 1311l-24 -13q-37 32 -68.5 45t-73.5 13q-60 0 -89.5 -25t-41.5 -85.5t-12 -182.5v-174q148 0 268 8l-14 -109h-254v-579q0 -98 12 -121.5t64 -26.5l94 -6v-61q-129 6 -256 6t-256 -6v61l94 6q52 3 64 26.5t12 121.5v579l-141 -8v45l141 64v86q0 196 86 295l119 135 q34 39 83.5 62.5t98.5 23.5q32 0 94 -23v-157zM1202 -6q-129 6 -256 6t-256 -6v61l94 6q52 3 64 26.5t12 121.5v457q0 72 -6 100.5t-23 38.5t-61 10h-76v57q185 21 320 89l18 -15v-737q0 -98 12 -121.5t64 -26.5l94 -6v-61zM1069 1292q0 -44 -35 -78t-80 -34q-44 0 -78 34 t-34 78q0 46 34 80.5t80 34.5q43 0 78 -35.5t35 -79.5z"/>
<glyph unicode="fl" horiz-adv-x="1245" d="M1208 -6q-129 6 -256 6t-256 -6v61l95 6q52 3 63.5 26.5t11.5 121.5v1032q0 113 -51 113h-86v-43l-45 -13q-46 33 -79.5 45.5t-74.5 12.5q-86 0 -113.5 -57.5t-27.5 -235.5v-174q148 0 268 8l-14 -109h-254v-579q0 -98 12 -121.5t64 -26.5l106 -6v-61q-132 6 -266 6 q-129 0 -258 -6v61l94 6q52 3 64 26.5t12 121.5v579l-141 -8v45l141 64v86q0 196 86 295l119 135q35 40 84 63t96 23q30 0 82 -12q6 -1 19 -5t26 -6v-57q194 41 291 76l18 -21v-1257q0 -98 12 -121.5t64 -26.5l94 -6v-61z"/>
<glyph unicode="ffi" horiz-adv-x="1837" d="M1661 1292q0 -44 -35 -78t-80 -34q-44 0 -78 34t-34 78q0 46 34 80.5t80 34.5q43 0 78 -35.5t35 -79.5zM1794 -6q-129 6 -256 6t-256 -6v61l94 6q52 3 64 26.5t12 121.5v457q0 72 -6 100.5t-23 38.5t-61 10h-76v57q185 21 320 89l18 -15v-737q0 -98 12 -121.5t64 -26.5 l94 -6v-61zM1290 1311l-24 -13q-37 32 -68.5 45t-73.5 13q-88 0 -115.5 -57t-27.5 -236v-174l248 8l-15 -109h-233v-579q0 -98 12 -121.5t64 -26.5l106 -6v-61q-132 6 -266 6q-129 0 -258 -6v61l94 6q52 3 64 26.5t12 121.5v579h-420v-579q0 -98 12 -121.5t64 -26.5l94 -6 v-61q-129 6 -256 6t-256 -6v61l94 6q52 3 64 26.5t12 121.5v579l-141 -8v45l141 64v86q0 196 86 295l119 135q35 40 84 63t96 23q37 0 96 -23v-157l-24 -13q-37 32 -68.5 45t-73.5 13q-88 0 -115.5 -57t-27.5 -236v-174h420v86q0 196 86 295l119 135q35 40 84 63t96 23 q37 0 96 -23v-157z"/>
<glyph unicode="ffl" horiz-adv-x="1843" d="M1802 -6q-129 6 -256 6t-256 -6v61l94 6q52 3 64 26.5t12 121.5v1032q0 113 -51 113h-86v-43l-45 -13q-46 33 -79.5 45.5t-74.5 12.5q-86 0 -113.5 -57.5t-27.5 -235.5v-174l268 8l-14 -109h-254v-579q0 -98 12 -121.5t64 -26.5l106 -6v-61q-132 6 -266 6q-129 0 -258 -6 v61l94 6q52 3 64 26.5t12 121.5v579h-422v-579q0 -98 12 -121.5t64 -26.5l94 -6v-61q-129 6 -256 6t-256 -6v61l94 6q52 3 64 26.5t12 121.5v579l-141 -8v45l141 64v86q0 196 86 295l119 135q35 40 84 63t96 23q37 0 96 -23v-157l-24 -13q-37 32 -68.5 45t-73.5 13 q-88 0 -115.5 -57t-27.5 -236v-174h422v86q0 196 86 295l119 135q35 40 84 63t96 23q30 0 82 -12q6 -1 19 -5t26 -6v-57q194 41 291 76l18 -21v-1257q0 -98 12 -121.5t64 -26.5l94 -6v-61z"/>
<glyph unicode=" " horiz-adv-x="512"/>
<glyph unicode="&#9;" horiz-adv-x="512"/>
<glyph unicode=" " horiz-adv-x="512"/>
<glyph unicode="!" horiz-adv-x="569" d="M403 109q0 -47 -36.5 -83t-85.5 -36q-44 0 -79.5 36.5t-35.5 82.5t35.5 82t81.5 36q47 0 83.5 -36t36.5 -82zM397 1370q0 -76 -14 -194l-59 -668v-51l-58 -47l-20 10l-4 82l-68 841l154 78h69v-51z"/>
<glyph unicode="&quot;" horiz-adv-x="759" d="M281 1362l-66 -401h-41l-68 401v10q0 29 28.5 54.5t60.5 25.5t59 -25t27 -53v-12zM651 1362l-65 -401h-41l-68 401v10q0 29 28 54.5t60 25.5t59 -25t27 -53v-12z"/>
<glyph unicode="#" horiz-adv-x="1024" d="M1014 858h-215l-41 -285h205v-114h-224l-63 -459h-119l64 459h-275l-67 -459h-119l67 459h-219v114h238l43 285h-226v115h242l64 428h118l-63 -428h272l62 428h119l-62 -428h199v-115zM680 858h-272l-43 -285h274z"/>
<glyph unicode="$" horiz-adv-x="1024" d="M965 424q0 -116 -51 -211t-148 -158q-51 -34 -100 -52.5t-134 -35.5l9 -205h-92q3 30 8 201q-188 3 -396 86q18 122 25 303h66v-131q0 -37 4.5 -51t23.5 -33q82 -80 277 -100v571q-121 13 -185 31.5t-108 52.5q-103 75 -103 246q0 232 181 350q45 30 90.5 46t124.5 30 l-8 133h92q-7 -70 -9 -127q123 -9 195.5 -28t144.5 -60q-26 -98 -26 -258h-66v86q0 58 -9 82.5t-38 44.5q-75 48 -201 59v-532q132 -13 202 -32.5t120 -55.5q111 -80 111 -252zM803 354q0 112 -60 166.5t-211 77.5v-561q124 22 197.5 107.5t73.5 209.5zM457 776v514 q-55 -6 -86 -17t-62 -36q-94 -76 -94 -225q0 -112 55 -165.5t187 -70.5z"/>
<glyph unicode="%" horiz-adv-x="1720" d="M727 1096q0 -148 -94.5 -245t-237.5 -97q-137 0 -226 89t-89 226q0 149 95 245.5t241 96.5q133 0 222 -90t89 -225zM580 1092q0 126 -46 199t-124 73q-85 0 -134 -77.5t-49 -209.5t44 -204t126 -72q83 0 133 79.5t50 211.5zM1642 342q0 -148 -94 -245t-237 -97 q-137 0 -226.5 89.5t-89.5 225.5q0 149 95 245.5t241 96.5q133 0 222 -90t89 -225zM1495 338q0 126 -46 199t-124 73q-85 0 -133.5 -77t-48.5 -209t44 -204.5t126 -72.5q83 0 132.5 79.5t49.5 211.5zM1262 1452l-750 -1493h-82l750 1493h82z"/>
<glyph unicode="&amp;" horiz-adv-x="1593" d="M1542 100l-178 -129q-18 -12 -70 -12q-73 0 -176.5 44.5t-193.5 113.5q-109 -85 -205 -121.5t-209 -36.5q-183 0 -302.5 111t-119.5 282q0 154 109 281q42 47 85.5 81t123.5 79q-62 157 -62 272q0 133 49 176l139 123q53 47 136 47q95 0 147.5 -48t52.5 -136 q0 -139 -131 -279q-56 -56 -164 -135q86 -140 184 -262.5t234 -261.5q55 73 77 124t22 107q0 63 -16.5 110.5t-39.5 53.5q-40 10 -178 21l68 92l198 -4q69 0 168.5 3.5t164.5 7.5l65 3q-25 -82 -25 -148q-121 18 -287 25q11 -43 11 -80q0 -97 -37.5 -179t-128.5 -183 q131 -75 204 -102t148 -27q43 0 125 39zM860 168q-176 197 -266 313.5t-158 239.5q-94 -74 -132 -139t-38 -154q0 -142 101.5 -248t238.5 -106q117 0 254 94zM731 1165q0 59 -34 98.5t-85 39.5q-61 0 -93 -42t-32 -120q0 -99 54 -258q85 60 137.5 136.5t52.5 145.5z"/>
<glyph unicode="'" horiz-adv-x="425" d="M299 1362l-66 -401h-40l-68 401v10q0 29 28 54.5t60 25.5t59 -25t27 -53v-12z"/>
<glyph unicode="(" d="M616 -397l-38 -43q-127 120 -190 196t-116 178q-149 280 -149 611q0 231 80 438q59 151 137 256.5t238 247.5l38 -53q-113 -131 -166.5 -222.5t-91.5 -218.5q-59 -191 -59 -448q0 -262 63 -477q40 -138 92 -233.5t162 -231.5z"/>
<glyph unicode=")" d="M559 543q0 -380 -190 -682q-47 -74 -102.5 -137t-162.5 -164l-38 43q110 136 161.5 231t91.5 234q64 219 64 477q0 250 -61 448q-39 127 -91.5 218.5t-164.5 222.5l38 53q160 -145 238.5 -250t136.5 -254q80 -207 80 -440z"/>
<glyph unicode="*" horiz-adv-x="796" d="M735 999l-18 -16l-283 41l139 -250v-20l-139 -54l-20 9l-37 290l-217 -180h-21l-73 105l10 18l268 111l-268 131l-6 20l90 107h20l195 -201l53 293l18 8l127 -39l7 -31l-142 -256l285 50l12 -9v-127z"/>
<glyph unicode="+" horiz-adv-x="1241" d="M1159 455h-481v-482h-115v482h-481v114h481v482h115v-482h481v-114z"/>
<glyph unicode="," horiz-adv-x="512" d="M446 223q-43 -118 -109.5 -229t-191.5 -273l-84 -38l-28 22q90 149 132 259t52 226q88 25 201 62z"/>
<glyph unicode="-" d="M639 578l-61 -138h-533l-10 11l55 137h539z"/>
<glyph unicode="." horiz-adv-x="512" d="M375 109q0 -47 -37 -83t-86 -36q-44 0 -79.5 36.5t-35.5 82.5t35.5 82t81.5 36q47 0 84 -36t37 -82z"/>
<glyph unicode="/" horiz-adv-x="1241" d="M1063 1487l-762 -1731h-123l762 1731h123z"/>
<glyph unicode="0" horiz-adv-x="1024" d="M952 750q0 -791 -465 -791q-95 0 -177 41.5t-136 116.5t-84.5 221t-30.5 326q0 372 121 559.5t359 187.5q211 0 312 -162t101 -499zM780 647q0 370 -64.5 531t-213.5 161q-146 0 -208.5 -139t-62.5 -463q0 -374 66.5 -540t216.5 -166q141 0 203.5 144.5t62.5 471.5z"/>
<glyph unicode="1" horiz-adv-x="1024" d="M856 -6q-159 6 -321 6q-168 0 -338 -6v61l114 6q83 4 108 30t25 106v993q0 67 -16 67l-6 -2l-264 -118h-21l-14 88q284 101 465 196l28 -10v-1214q0 -80 25 -106t109 -30l106 -6v-61z"/>
<glyph unicode="2" horiz-adv-x="1024" d="M958 -6q-234 6 -469 6q-228 0 -456 -6v53l348 371q173 184 245 309.5t72 241.5q0 130 -78 207t-210 77q-103 0 -161 -40.5t-83 -129.5l-27 -94h-59l35 279q75 76 156.5 109.5t191.5 33.5q195 0 307.5 -102t112.5 -279q0 -116 -55.5 -217.5t-204.5 -259.5l-373 -395 l708 20q-4 -45 -4 -92q0 -49 4 -92z"/>
<glyph unicode="3" horiz-adv-x="1024" d="M946 459q0 -146 -104 -271q-85 -103 -213.5 -166t-251.5 -63q-119 0 -275 53q-17 144 -71 301l55 21q29 -83 53.5 -126t61.5 -77q94 -88 239 -88q143 0 229.5 94.5t86.5 251.5q0 140 -71 217.5t-198 77.5q-72 0 -172 -45l-14 12l25 109q80 -6 96 -6q109 0 187.5 83.5 t78.5 198.5q0 97 -71.5 167.5t-170.5 70.5q-80 0 -160.5 -43.5t-97.5 -95.5l-36 -115h-64l59 254q74 74 150 105.5t180 31.5q170 0 274.5 -83.5t104.5 -219.5q0 -91 -51 -169t-174 -173q76 -13 119 -28.5t81 -43.5q55 -38 85 -99.5t30 -135.5z"/>
<glyph unicode="4" horiz-adv-x="1024" d="M967 -6q-156 6 -314 6q-162 0 -329 -6v61l127 6q75 3 98.5 33.5t23.5 122.5v154h-546l-23 47l580 948l151 55l25 -10q-15 -126 -15 -625v-284h56l166 6v-146q-85 9 -222 9v-154q0 -92 24 -121.5t99 -34.5l99 -6v-61zM573 502v721l-440 -721h440z"/>
<glyph unicode="5" horiz-adv-x="1024" d="M940 518q0 -232 -190 -401q-85 -74 -189.5 -116t-206.5 -42q-137 0 -227 49q-39 122 -100 273l49 28l94 -168q22 -40 90 -65t152 -25q167 0 260.5 95.5t93.5 265.5q0 166 -86 263t-234 97q-74 0 -126 -26t-125 -99l-41 12q12 180 12 461l-4 281l10 10q217 -10 356 -10 q62 0 151 2.5t147 4.5l59 3l10 -10q-4 -37 -4 -82q0 -43 4 -80l-10 -10l-625 10l-18 -428q96 57 161 79.5t138 22.5q175 0 287 -111t112 -284z"/>
<glyph unicode="6" horiz-adv-x="1024" d="M958 449q0 -210 -132.5 -350t-331.5 -140q-198 0 -313 147t-115 400q0 211 83.5 393t241.5 315q77 67 156 107t229 90l76 -35v-16q-277 -83 -414.5 -243.5t-169.5 -438.5q109 90 177.5 125t154.5 35q163 0 260.5 -106t97.5 -283zM782 377q0 152 -71.5 245t-188.5 93 q-73 0 -139 -33t-100 -86q-31 -47 -31 -145q0 -206 69 -315t199 -109q119 0 190.5 95.5t71.5 254.5z"/>
<glyph unicode="7" horiz-adv-x="1024" d="M1018 1350l-375 -674q-125 -224 -185.5 -355.5t-135.5 -326.5q-58 6 -95 6l-94 -6l-18 26l499 803q105 169 224 412h-547q-71 0 -92 -24t-33 -119l-14 -115h-62q6 127 6 209l-6 215l21 10q249 -10 448 -10q183 0 459 10v-61z"/>
<glyph unicode="8" horiz-adv-x="1024" d="M950 422q0 -125 -66 -231.5t-178 -169t-243 -62.5q-173 0 -287.5 104.5t-114.5 262.5q0 157 119 276q34 33 68 54.5t96 50.5q-135 88 -185 158.5t-50 174.5q0 161 119 266t302 105q163 0 263 -81.5t100 -213.5q0 -92 -56 -166t-196 -170q175 -80 242 -157.5t67 -200.5z M788 336q0 83 -54.5 154t-151.5 114l-164 74q-114 -69 -162.5 -146t-48.5 -190q0 -142 78 -227.5t209 -85.5q124 0 209 89t85 218zM754 1094q0 112 -67.5 179.5t-180.5 67.5q-109 0 -176.5 -63t-67.5 -164q0 -153 195 -248l112 -55q100 64 142.5 129.5t42.5 153.5z"/>
<glyph unicode="9" horiz-adv-x="1024" d="M936 854q0 -206 -77 -379.5t-226 -300.5q-82 -70 -173 -114.5t-263 -100.5l-70 35v16q278 67 438 247.5t172 438.5l-143 -118q-28 -23 -81 -38.5t-105 -15.5q-160 0 -263.5 115.5t-103.5 292.5q0 205 131 342t328 137q203 0 319.5 -149t116.5 -408zM758 965 q0 147 -62 258q-66 120 -204 120q-126 0 -200.5 -90t-74.5 -245q0 -160 76 -259.5t199 -99.5q119 0 192.5 87.5t73.5 228.5z"/>
<glyph unicode=":" horiz-adv-x="512" d="M373 109q0 -47 -37 -83t-86 -36q-44 0 -79.5 36.5t-35.5 82.5t35.5 82t81.5 36q47 0 84 -36t37 -82zM373 813q0 -46 -37 -81.5t-86 -35.5q-44 0 -79.5 36.5t-35.5 82.5t35.5 82.5t81.5 36.5q47 0 84 -37t37 -84z"/>
<glyph unicode=";" horiz-adv-x="512" d="M446 227q-42 -118 -109 -228t-192 -273l-84 -39l-28 22q90 148 132 258.5t52 227.5q112 32 201 61zM428 813q0 -46 -37 -81.5t-86 -35.5q-44 0 -79.5 36.5t-35.5 82.5t35.5 82.5t81.5 36.5q47 0 84 -37t37 -84z"/>
<glyph unicode="&lt;" horiz-adv-x="1241" d="M1077 41l-936 418v106l936 418v-127l-772 -344l772 -344v-127z"/>
<glyph unicode="=" horiz-adv-x="1241" d="M1159 633h-1077v115h1077v-115zM1159 279h-1077v114h1077v-114z"/>
<glyph unicode="&gt;" horiz-adv-x="1241" d="M1077 459l-936 -418v127l772 344l-772 344v127l936 -418v-106z"/>
<glyph unicode="?" horiz-adv-x="909" d="M809 1106q0 -87 -47 -161.5t-178 -194.5q-125 -113 -159 -157t-34 -95q0 -46 45 -99l-43 -28q-90 58 -90 149q0 53 32 106t126 156q90 99 123.5 159t33.5 122q0 98 -70.5 160.5t-180.5 62.5q-143 0 -179 -86l-41 -98l-59 16l78 232q81 39 141.5 55t128.5 16 q158 0 265.5 -90.5t107.5 -224.5zM526 109q0 -47 -37 -83t-86 -36q-44 0 -79 36.5t-35 82.5t35.5 82t81.5 36q47 0 83.5 -36t36.5 -82z"/>
<glyph unicode="@" horiz-adv-x="1529" d="M1483 838q0 -103 -41.5 -206.5t-107.5 -181.5t-153.5 -127t-174.5 -49q-68 0 -108.5 44.5t-47.5 127.5q-76 -96 -127.5 -128.5t-124.5 -32.5q-114 0 -193 83.5t-79 204.5q0 120 62.5 228.5t165.5 174.5t216 66q74 0 117.5 -39.5t62.5 -123.5l37 143h180l-157 -571 q-13 -46 -2 -81.5t45 -35.5q75 0 150.5 74t123 190t47.5 231q0 211 -160 350.5t-401 139.5q-184 0 -333 -81.5t-233.5 -225.5t-84.5 -322q0 -133 50 -250t137 -200t209.5 -131t262.5 -48q134 0 250 52q87 39 145.5 88.5t131.5 148.5h125q-48 -79 -80.5 -120t-81.5 -83 q-212 -188 -504 -188q-157 0 -297.5 56t-241.5 152t-160 229t-59 282q0 206 99.5 376.5t273 268.5t383.5 98q188 0 343.5 -77t245 -210.5t89.5 -295.5zM911 840q0 64 -29.5 105.5t-76.5 41.5q-98 0 -180 -119q-49 -72 -83 -172.5t-34 -175.5q0 -82 33.5 -131t89.5 -49 q103 0 180 139q43 75 71.5 179t28.5 182z"/>
<glyph unicode="A" horiz-adv-x="1593" d="M1548 -6q-129 6 -260 6q-143 0 -284 -6v61l96 6q84 7 84 41q0 25 -43 131l-94 236h-590l-58 -137q-71 -168 -71 -217q0 -25 22 -37.5t76 -16.5l76 -6v-61q-123 6 -248 6q-112 0 -223 -6v61l75 6q68 6 111 101l453 1028q35 77 60 138t32 84l8 22h66l495 -1164 q56 -128 82.5 -167t65.5 -42l69 -6v-61zM1010 551l-258 610l-260 -610h518z"/>
<glyph unicode="B" horiz-adv-x="1251" d="M1180 467q0 -108 -51.5 -206.5t-141.5 -162.5q-141 -104 -377 -104q-42 0 -127 3t-127 3q-112 0 -223 -6v47l53 20q45 16 45 134v970q0 45 -1 70t-5 48t-9.5 33t-19 18.5t-28.5 11t-41 4.5l-74 6v61q163 -6 324 -6q61 0 182.5 3t183.5 3q367 0 367 -278q0 -159 -149 -262 q-43 -30 -87 -46.5t-118 -31.5q119 -9 183 -27.5t122 -60.5q119 -84 119 -244zM969 426q0 164 -99 241.5t-307 77.5q-57 0 -137 -4v-645q68 -16 158 -16q183 0 284 91.5t101 254.5zM907 1092q0 127 -75 185t-240 58q-95 0 -166 -16v-498q63 -4 125 -4q174 0 265 70.5 t91 204.5z"/>
<glyph unicode="C" horiz-adv-x="1452" d="M1372 172l-57 -102q-211 -111 -465 -111q-238 0 -421 92.5t-283.5 261t-100.5 387.5q0 207 90.5 366.5t265.5 262.5q211 123 486 123q217 0 473 -84q-36 -169 -39 -311h-64v147q0 39 -59.5 77t-154.5 61.5t-193 23.5q-264 0 -425 -172t-161 -455q0 -302 183 -485.5 t483 -183.5q234 0 424 123z"/>
<glyph unicode="D" horiz-adv-x="1585" d="M1538 788q0 -164 -63.5 -320t-174.5 -265q-212 -209 -602 -209q-49 0 -148.5 3t-148.5 3q-143 0 -284 -6v47l63 33q51 25 51 121v970q0 120 -17 150.5t-87 34.5l-82 6v61q212 -6 422 -6q59 0 177.5 3t178.5 3q324 0 519.5 -171.5t195.5 -457.5zM1319 735q0 306 -145 451 q-149 149 -521 149q-142 0 -227 -16v-1219q71 -16 211 -16q173 0 279 30t198 105q205 169 205 516z"/>
<glyph unicode="E" horiz-adv-x="1251" d="M1171 336q-32 -170 -32 -336l-342 -6q-237 6 -475 6q-126 0 -252 -6v61l73 6q32 3 48.5 7.5t29.5 13.5t18 31.5t7 51t2 81.5v919q0 65 -2.5 97t-15 53.5t-31 27t-56.5 7.5l-98 6v61q181 -6 365 -6q238 0 475 6l254 -6q-33 -129 -33 -311h-72v133q0 36 -9.5 48t-45.5 22 q-103 28 -297 28q-107 0 -150 -3t-90 -13v-547q120 -8 328 -8q72 0 102 14t41 64q4 17 7 43.5t4 44.5v18h61q-6 -120 -6 -237q0 -114 6 -228h-61q-3 76 -11 121q-10 48 -40 62t-103 14l-328 -6v-574q79 -16 203 -16q303 0 377 24q22 8 40.5 52t27.5 110l10 70h71z"/>
<glyph unicode="F" horiz-adv-x="1138" d="M1098 1411q-33 -129 -33 -311h-72v133q0 36 -9.5 48.5t-45.5 21.5q-110 28 -276 28q-150 0 -220 -16v-547q120 -8 324 -8q76 0 109.5 14.5t37.5 63.5l11 106h61q-6 -120 -6 -237q0 -114 6 -228h-61q-3 76 -11 121q-10 48 -40 62t-103 14l-328 -6v-424q0 -65 2.5 -97 t15 -53.5t31 -27t56.5 -7.5l98 -6v-61q-150 6 -301 6q-149 0 -299 -6v61l98 6q38 2 56.5 7.5t31 27t15 53.5t2.5 97v919q0 65 -2.5 97t-15 53.5t-31 27t-56.5 7.5l-98 6v61q181 -6 361 -6q222 0 442 6z"/>
<glyph unicode="G" horiz-adv-x="1562" d="M1491 504l-59 -21q-15 -6 -19 -17.5t-4 -57.5v-345q-209 -59 -332.5 -81.5t-232.5 -22.5q-177 0 -334.5 59t-265.5 164q-96 96 -147.5 229t-51.5 287q0 169 63 309.5t177 238.5t277.5 152t359.5 54q123 0 223.5 -17t271.5 -67q-41 -157 -41 -311h-63v108q0 58 -40 96.5 t-130 67.5q-115 37 -275 37q-287 0 -445.5 -164.5t-158.5 -460.5q0 -319 179.5 -507.5t484.5 -188.5q102 0 182.5 19.5t97.5 48.5q13 23 13 88v207q0 36 -15.5 52t-54.5 19l-170 15v61q126 -6 250 -6q126 0 252 6z"/>
<glyph unicode="H" horiz-adv-x="1703" d="M1659 -6q-150 6 -301 6q-149 0 -299 -6v61l98 6q38 2 56.5 7.5t31 27t15 53.5t2.5 97v456q-69 5 -170 5h-480q-101 0 -170 -5v-456q0 -65 2.5 -97t15 -53.5t31 -27t56.5 -7.5l98 -6v-61q-150 6 -301 6q-149 0 -299 -6v61l98 6q38 2 56.5 7.5t31 27t15 53.5t2.5 97v919 q0 65 -2.5 97t-15 53.5t-31 27t-56.5 7.5l-98 6v61q150 -6 299 -6q151 0 301 6v-61l-98 -6q-38 -2 -56.5 -7.5t-31 -27t-15 -53.5t-2.5 -97v-364q82 -4 170 -4h480q84 0 170 4v364q0 65 -2.5 97t-15 53.5t-31 27t-56.5 7.5l-98 6v61q150 -6 299 -6q151 0 301 6v-61l-98 -6 q-38 -2 -56.5 -7.5t-31 -27t-15 -53.5t-2.5 -97v-919q0 -65 2.5 -97t15 -53.5t31 -27t56.5 -7.5l98 -6v-61z"/>
<glyph unicode="I" horiz-adv-x="690" d="M645 -6q-150 6 -301 6q-149 0 -299 -6v61l98 6q38 2 56.5 7.5t31 27t15 53.5t2.5 97v919q0 65 -2.5 97t-15 53.5t-31 27t-56.5 7.5l-98 6v61q150 -6 299 -6q151 0 301 6v-61l-98 -6q-38 -2 -56.5 -7.5t-31 -27t-15 -53.5t-2.5 -97v-919q0 -65 2.5 -97t15 -53.5t31 -27 t56.5 -7.5l98 -6v-61z"/>
<glyph unicode="J" d="M637 1356l-98 -6q-38 -2 -56.5 -7.5t-31 -27t-15 -53.5t-2.5 -97v-925q0 -186 -26 -283.5t-101 -189.5q-59 -74 -142 -123t-136 -43l-49 6l-11 155l23 13q66 -41 137 -41q62 0 86.5 51t24.5 180v1200q0 65 -2.5 97t-15 53.5t-31 27t-56.5 7.5l-98 6v61q150 -6 299 -6 q151 0 301 6v-61z"/>
<glyph unicode="K" horiz-adv-x="1486" d="M1473 -6q-67 6 -134 6q-81 0 -163 -6l-713 686l-21 -14v-420q0 -65 2.5 -97t15 -53.5t31 -27t56.5 -7.5l98 -6v-61q-150 6 -301 6q-149 0 -299 -6v61l98 6q38 2 56.5 7.5t31 27t15 53.5t2.5 97v919q0 65 -2.5 97t-15 53.5t-31 27t-56.5 7.5l-98 6v61q150 -6 299 -6 q151 0 301 6v-61l-98 -6q-38 -2 -56.5 -7.5t-31 -27t-15 -53.5t-2.5 -97v-438l570 555q59 59 59 80v55q92 -6 182 -6q81 0 164 6v-61l-86 -4q-76 -3 -160 -78l-544 -492l676 -639q48 -45 76 -64t51 -20l43 -4v-61z"/>
<glyph unicode="L" horiz-adv-x="1251" d="M1200 352q-22 -222 -43 -352q-279 -6 -344 -6q-80 0 -238.5 3t-238.5 3q-101 0 -203 -6v47l64 33q51 25 51 121v970q0 65 -2.5 97t-15 53.5t-31 27t-56.5 7.5l-98 6v61q150 -6 299 -6q151 0 301 6v-61l-98 -6q-38 -2 -56.5 -7.5t-31 -27t-15 -53.5t-2.5 -97v-1069 q71 -16 174 -16q184 0 306.5 10t142.5 27q19 15 45 133l25 102h65z"/>
<glyph unicode="M" horiz-adv-x="1937" d="M1896 -6q-153 6 -309 6q-130 0 -262 -6v61l70 6q26 2 41 4.5t28.5 11t19 18.5t9.5 33t5 48t1 70v938l-90 -176l-365 -775q-21 -45 -52.5 -124.5t-57.5 -135.5h-41l-571 1211v-938q0 -120 17 -150.5t87 -34.5l90 -6v-61q-123 6 -246 6q-117 0 -237 -6v61l90 6 q70 4 87 34.5t17 150.5v919q0 120 -17 150.5t-87 34.5l-90 6v61q99 -6 194 -6q96 0 195 6l541 -1138l536 1138q99 -6 195 -6t190 6v-61l-86 -6q-70 -4 -87 -34.5t-17 -150.5v-919q0 -53 2 -81.5t7 -51t18 -32t29.5 -14t47.5 -6.5l98 -6v-61z"/>
<glyph unicode="N" horiz-adv-x="1701" d="M1665 1356l-90 -6q-38 -2 -56.5 -8t-31 -27.5t-15 -53.5t-2.5 -96v-1130q0 -10 3.5 -38t3.5 -38l-185 33l-968 1202v-948q0 -120 17 -150.5t87 -34.5l90 -6v-61q-123 6 -246 6q-117 0 -237 -6v61l90 6q70 4 87 34.5t17 150.5v919q0 120 -17 150.5t-87 34.5l-90 6v61 q150 -6 246 -6l110 6l985 -1216v964q0 120 -17 150.5t-87 34.5l-90 6v61q120 -6 237 -6q123 0 246 6v-61z"/>
<glyph unicode="O" horiz-adv-x="1609" d="M1565 752q0 -222 -105.5 -404t-290.5 -285.5t-411 -103.5q-204 0 -367 94.5t-254.5 263.5t-91.5 381q0 223 96.5 394.5t273.5 265.5t408 94q341 0 541.5 -189t200.5 -511zM1346 690q0 319 -147.5 497.5t-410.5 178.5q-252 0 -388 -154t-136 -438q0 -328 159 -528.5 t417 -200.5q238 0 372 170.5t134 474.5z"/>
<glyph unicode="P" horiz-adv-x="1236" d="M1188 1100q0 -121 -65 -221t-179 -157.5t-252 -57.5q-60 0 -119 12l-20 74q70 -21 127 -21q134 0 218.5 87.5t84.5 225.5q0 146 -87 221.5t-253 75.5q-93 0 -201 -24v-1069q0 -65 2.5 -97t15 -53.5t31 -27t56.5 -7.5l98 -6v-61q-150 6 -301 6q-149 0 -299 -6v61l98 6 q38 2 56.5 7.5t31 27t15 53.5t2.5 97v919q0 79 -8.5 115.5t-30.5 51.5t-70 18l-92 6v61q187 -6 373 -6q58 0 174 3t174 3q195 0 307.5 -84.5t112.5 -232.5z"/>
<glyph unicode="Q" horiz-adv-x="1609" d="M1565 -246l-172 -114q-131 26 -217 53l-304 94q-98 31 -159 31q-23 0 -58 -17l-120 -65l4 65q164 126 202 146q12 7 21 10l10 4q-330 0 -528.5 202t-198.5 539q0 165 56 305t156.5 237.5t244 152.5t313.5 55q344 0 547 -187t203 -505q0 -221 -107 -409t-293 -294 q-79 -46 -150.5 -65.5t-193.5 -30.5q64 -7 108 -21t140 -55q234 -100 375 -100q25 0 121 12v-43zM1346 686q0 322 -147 501t-411 179q-253 0 -388.5 -154.5t-135.5 -443.5q0 -152 43.5 -291.5t120.5 -236.5q155 -193 416 -193q242 0 372 166t130 473z"/>
<glyph unicode="R" horiz-adv-x="1368" d="M1370 -6q-74 6 -147 6q-69 0 -140 -6l-84 110l-376 506q-49 67 -95 117v33h60q178 0 282.5 83t104.5 224q0 131 -86 201.5t-246 70.5q-96 0 -201 -24v-1069q0 -65 2.5 -97t15 -53.5t31 -27t56.5 -7.5l98 -6v-61q-150 6 -301 6q-149 0 -299 -6v61l98 6q38 2 56.5 7.5 t31 27t15 53.5t2.5 97v919q0 64 -2.5 96t-15 53.5t-31 27.5t-56.5 8l-84 6v61q178 -6 355 -6q62 0 183 3t183 3q198 0 299 -79t101 -228q0 -179 -164 -297q-51 -35 -100.5 -55.5t-135.5 -42.5l465 -606q20 -26 47.5 -37.5t77.5 -16.5v-61z"/>
<glyph unicode="S" horiz-adv-x="1075" d="M1030 471q0 -147 -79 -264t-219 -182.5t-316 -65.5t-355 78q17 130 17 231q0 45 -2 82h65l17 -137q8 -63 109.5 -113.5t224.5 -50.5q160 0 263 90t103 228q0 114 -78 180q-40 34 -102 54.5t-180 37.5q-148 20 -229 47.5t-134 75.5q-86 80 -86 229q0 201 148.5 331 t377.5 130q86 0 167 -18.5t202 -67.5q-29 -161 -29 -289h-65l-12 117q-5 45 -25.5 72t-71.5 53q-83 47 -211 47q-135 0 -222 -83t-87 -212q0 -118 75 -175.5t263 -82.5q174 -24 254 -49.5t133 -75.5q84 -78 84 -217z"/>
<glyph unicode="T" horiz-adv-x="1255" d="M1219 1417q-15 -176 -15 -330h-63l-8 162q-1 37 -20 52.5t-62 15.5h-318q-8 -91 -8 -205v-866q0 -53 2 -81.5t7 -51t18 -32t29.5 -14t47.5 -6.5l99 -6v-61q-150 6 -301 6q-149 0 -299 -6v61l98 6q31 2 47.5 6.5t29.5 14t18 32t7 51t2 81.5v866q0 112 -8 205h-317 q-43 0 -62 -15.5t-20 -52.5l-8 -162h-64q0 166 -14 330l416 -6h323z"/>
<glyph unicode="U" horiz-adv-x="1593" d="M1554 1356l-90 -6q-70 -4 -87 -34.5t-17 -150.5v-592q0 -336 -141 -477q-134 -137 -445 -137q-308 0 -432 127q-115 118 -115 352v727q0 53 -2 81.5t-7 51t-18 32t-29.5 14t-47.5 6.5l-98 6v61q150 -6 299 -6q151 0 301 6v-61l-99 -6q-31 -2 -47.5 -6.5t-29.5 -14 t-18 -32t-7 -51t-2 -81.5v-704q0 -197 96.5 -286t310.5 -89q223 0 330 103.5t107 320.5v655q0 64 -2.5 96t-15 53.5t-31 27.5t-56.5 8l-90 6v61q120 -6 238 -6q122 0 245 6v-61z"/>
<glyph unicode="V" horiz-adv-x="1478" d="M1446 1356l-62 -6q-28 -3 -51.5 -34t-58.5 -114l-356 -862q-85 -205 -132 -358h-102q-38 137 -119 337l-385 947q-19 44 -38.5 62.5t-51.5 21.5l-74 6v61q135 -6 273 -6q137 0 272 6v-61l-115 -6q-39 -1 -54 -20.5t-7 -43.5l403 -1038l375 969q25 54 13 92t-66 41l-106 6 v61q111 -6 221 -6t221 6v-61z"/>
<glyph unicode="W" horiz-adv-x="2048" d="M2015 1356l-65 -6q-62 -6 -78 -60l-313 -1102l-56 -206h-102q-72 223 -146 421l-256 695l-356 -905q-50 -123 -74 -211h-102l-291 1265q-12 52 -35 75t-67 28l-58 6v61q129 -6 258 -6t258 6v-61l-86 -6q-56 -4 -69.5 -41t2.5 -95l205 -919l254 645q112 283 184 494h65 q6 -26 12 -47.5t11 -35t19.5 -54t25.5 -72.5l336 -944l270 1001q8 32 -12 48t-82 20l-82 6v61q108 -6 215 -6t215 6v-61z"/>
<glyph unicode="X" horiz-adv-x="1366" d="M1327 -6q-73 6 -145 6q-76 0 -152 -6l-377 627l-413 -627q-52 6 -105 6q-54 0 -106 -6v61l53 6q33 4 57.5 24.5t63.5 74.5l399 538l-262 437q-50 84 -100.5 132.5t-87.5 51.5l-93 6l-4 53l289 56q29 -15 55.5 -45t61.5 -89l262 -442l379 553h207v-61l-84 -7 q-23 -2 -51 -29t-89 -110l-315 -426l360 -573q52 -82 79.5 -111.5t56.5 -32.5l61 -6v-61z"/>
<glyph unicode="Y" horiz-adv-x="1366" d="M1339 1391q-121 -145 -194 -244t-191 -275q-89 -135 -118 -206t-29 -156v-264q0 -53 2 -81.5t7 -51t18 -32t29.5 -14t47.5 -6.5l99 -6v-61q-150 6 -301 6q-149 0 -299 -6v61l98 6q31 2 47.5 6.5t29.5 14t18 32t7 51t2 81.5v291q0 51 -18 81l-254 443 q-65 113 -137.5 186.5t-124.5 79.5l-60 6v60l246 51q28 0 83 -61.5t104 -149.5l292 -535l211 334q121 192 222 389h163v-30z"/>
<glyph unicode="Z" horiz-adv-x="1366" d="M1307 354q-13 -147 -13 -360q-313 6 -624 6q-320 0 -639 -6v57q169 201 198 240l619 794q4 5 21.5 27t21.5 27t18.5 23.5t19 24.5l16.5 22t17.5 23.5t15 21.5t16 24.5t14.5 23t16 25.5h-467q-188 0 -247.5 -18t-63.5 -78l-13 -146h-69q6 114 6 166t-6 166h338 q92 0 237.5 -3t237.5 -3l319 6l9 -59l-996 -1268h559q85 0 134.5 1.5t93 7.5t63.5 14t36 27t21 40t9 58l12 116h70z"/>
<glyph unicode="[" d="M590 -365l-12 -12q-121 4 -199 4l-199 -4l-18 27q18 78 18 352v1106q0 274 -18 352l18 27q121 -4 199 -4l199 4l12 -12v-54l-8 -10h-78q-84 0 -125 -33q-15 -15 -21 -56.5t-6 -164.5v-1204q0 -123 6 -164.5t21 -56.5q41 -33 125 -33h78l8 -10v-54z"/>
<glyph unicode="\" horiz-adv-x="1241" d="M1049 0h-121l-762 1487h121z"/>
<glyph unicode="]" d="M520 -350l-18 -27q-121 4 -199 4l-199 -4l-12 12v54l8 10h78q84 0 125 33q15 15 21 56.5t6 164.5v1204q0 123 -6 164.5t-21 56.5q-41 33 -125 33h-78l-8 10v54l12 12q121 -4 199 -4l199 4l18 -27q-18 -78 -18 -352v-1106q0 -274 18 -352z"/>
<glyph unicode="^" horiz-adv-x="1241" d="M1135 580h-140l-374 692l-377 -692h-140l449 831h135z"/>
<glyph unicode="_" horiz-adv-x="1024" d="M1024 -256h-1024v102h1024v-102z"/>
<glyph unicode="`" d="M522 1036h-82l-295 185q-51 32 -66.5 50t-15.5 46q0 29 19 49t45 20q46 0 113 -67z"/>
<glyph unicode="a" horiz-adv-x="1024" d="M965 -6q-77 6 -152 6q-81 0 -160 -6l11 174l-254 -176q-24 -17 -86 -17q-122 0 -190 66t-68 186q0 134 93 211t302 115l203 37q-5 140 -69.5 201t-209.5 61q-71 0 -99 -19.5t-59 -91.5l-26 -63l-54 14v133l109 66q116 70 248 70q178 0 250.5 -91.5t72.5 -316.5v-375 q0 -75 10.5 -96t47.5 -23l80 -4v-61zM664 254v270q-244 -36 -320 -82q-46 -30 -74 -80t-28 -106q0 -66 45.5 -115t107.5 -49q60 0 142.5 49.5t126.5 112.5z"/>
<glyph unicode="b" horiz-adv-x="1132" d="M1040 553q0 -112 -46.5 -223.5t-114.5 -161.5l-205 -148q-62 -45 -176 -45q-82 0 -142.5 17t-122.5 57l-81 -74l-33 13q16 163 16 325v957q0 46 -11.5 65t-39.5 19h-115v57q122 19 187.5 34.5t132.5 41.5l18 -17v-714l113 114q40 40 109.5 65.5t140.5 25.5 q163 0 266.5 -114.5t103.5 -293.5zM862 469q0 164 -75.5 261t-204.5 97q-131 0 -222 -94q-53 -59 -53 -102v-441q0 -34 89.5 -72t168.5 -38q131 0 214 108.5t83 280.5z"/>
<glyph unicode="c" horiz-adv-x="909" d="M846 94l-43 -65q-15 -23 -108.5 -46.5t-172.5 -23.5q-206 0 -337.5 132t-131.5 339q0 135 56 241t163 173q184 117 336 117q118 0 238 -72q-29 -119 -29 -252h-57l-15 125q-28 38 -93 65t-132 27q-138 0 -212.5 -89t-74.5 -253q0 -202 103.5 -324t273.5 -122 q106 0 215 59z"/>
<glyph unicode="d" horiz-adv-x="1251" d="M1186 -6q-92 6 -187 6q-78 0 -157 -6l10 188l-227 -190q-8 -6 -38.5 -11.5t-60.5 -5.5q-197 0 -299 86q-75 62 -115 160t-40 221q0 130 52 234.5t140 150.5l180 95q74 39 156 39q53 0 104.5 -14t139.5 -52v375q0 46 -11.5 65t-39.5 19h-115v57q121 19 186 34.5t133 41.5 l19 -17v-1261q0 -98 12 -121.5t64 -26.5l94 -6v-61zM844 453v264q0 25 -68 71q-112 76 -231 76q-138 0 -216.5 -93.5t-78.5 -260.5q0 -183 87 -300.5t222 -117.5q72 0 141.5 44t112.5 116q20 36 25.5 69t5.5 132z"/>
<glyph unicode="e" horiz-adv-x="980" d="M918 571q0 -11 -1 -21.5t-2 -25t-2 -24.5q-178 -29 -370 -29h-299q3 -89 15.5 -141t41.5 -103q43 -75 122 -117t179 -42q65 0 116 18.5t150 77.5l27 -21l-41 -69q-6 -10 -36.5 -28t-69.5 -34q-120 -53 -236 -53t-214.5 45.5t-158.5 126.5q-86 118 -86 318q0 160 55 262 t181 174q130 76 248 76q172 0 276.5 -106.5t104.5 -283.5zM735 547q0 99 -14.5 154.5t-50.5 109.5q-55 82 -158 82q-74 0 -135.5 -39t-93.5 -106q-20 -40 -27.5 -81.5t-7.5 -113.5q133 -12 258 -12z"/>
<glyph unicode="f" d="M698 1311l-24 -13q-37 32 -68.5 45t-73.5 13q-60 0 -89.5 -25t-41.5 -85.5t-12 -182.5v-174q148 0 268 8l-14 -109h-254v-579q0 -98 12 -121.5t64 -26.5l94 -6v-61q-129 6 -256 6t-256 -6v61l94 6q52 3 64 26.5t12 121.5v579l-141 -8v45l141 64v86q0 196 86 295l119 135 q34 39 83.5 62.5t98.5 23.5q32 0 94 -23v-157z"/>
<glyph unicode="g" horiz-adv-x="1138" d="M1114 858l-51 -84h-189q23 -62 23 -110q0 -157 -137 -258q-64 -45 -140 -72t-141 -27q-9 0 -49 4q-12 -12 -24 -22q-40 -34 -55 -54t-15 -40q0 -80 156 -80h327q107 0 174.5 -70t67.5 -180q0 -123 -73.5 -225.5t-200.5 -161t-279 -58.5q-195 0 -318.5 88.5t-123.5 227.5 q0 47 17.5 95t39.5 60l178 97q-74 22 -104.5 48.5t-30.5 69.5q0 41 31 89l161 124q-114 12 -179.5 85.5t-65.5 187.5q0 191 174 291q134 78 278 78q142 0 250 -87l291 9zM725 602q0 130 -64.5 209.5t-168.5 79.5q-98 0 -152.5 -65.5t-54.5 -184.5q0 -118 63 -191t166 -73 q94 0 152.5 62.5t58.5 162.5zM899 -209q0 100 -69 140t-242 40q-185 0 -232 -20q-62 -28 -98.5 -85t-36.5 -126q0 -114 83.5 -185t217.5 -71q161 0 269 87.5t108 219.5z"/>
<glyph unicode="h" horiz-adv-x="1191" d="M1171 -6q-85 6 -170 6q-82 0 -161 -6v581q0 118 -62.5 189.5t-165.5 71.5q-94 0 -177 -62t-83 -131v-434q0 -98 12 -121.5t64 -26.5l92 -6v-61q-126 6 -254 6t-254 -6v61l92 6q52 3 64 26.5t12 121.5v1061q0 46 -11.5 65t-39.5 19h-115v57q122 19 187.5 34.5t132.5 41.5 l18 -17v-696l156 135q60 52 162 52q342 0 342 -357v-395q0 -99 11.5 -122t63.5 -26l84 -6v-61z"/>
<glyph unicode="i" horiz-adv-x="595" d="M555 -6q-129 6 -256 6t-256 -6v61l94 6q52 3 64 26.5t12 121.5v461q0 72 -6 100.5t-23 38.5t-61 10h-76v58q159 18 320 84l18 -9v-743q0 -98 12 -121.5t64 -26.5l94 -6v-61zM401 1212q0 -46 -28 -74t-74 -28t-74 28t-28 74t28.5 74.5t75.5 28.5q44 0 72 -29t28 -74z"/>
<glyph unicode="j" horiz-adv-x="479" d="M326 -39q0 -245 -109 -387q-59 -77 -122 -112.5t-152 -41.5l-25 78q27 -6 62 -6q89 0 131.5 119.5t42.5 374.5v684q0 101 -14.5 125t-76.5 24h-75v58q158 17 319 84l19 -9v-991zM342 1212q0 -46 -28 -74t-74 -28t-74.5 28t-28.5 74t29 74.5t76 28.5q44 0 72 -29t28 -74z "/>
<glyph unicode="k" horiz-adv-x="1138" d="M1124 35l-196 -60l-543 517v-283q0 -98 12 -121.5t64 -26.5l90 -6v-61q-126 6 -250 6q-129 0 -258 -6v61l94 6q52 3 64 26.5t12 121.5v1061q0 46 -11.5 65t-39.5 19h-115v57q122 19 187.5 34.5t132.5 41.5l18 -17v-935l150 120q104 82 307 285h205v-61q-53 0 -102 -21 t-120 -76l-264 -207q58 -68 131 -139l258 -256q103 -98 174 -98v-47z"/>
<glyph unicode="l" horiz-adv-x="595" d="M555 -6q-129 6 -256 6t-256 -6v61l94 6q52 3 64 26.5t12 121.5v1061q0 46 -11.5 65t-39.5 19h-115v57q122 19 187.5 34.5t132.5 41.5l18 -17v-1261q0 -98 12 -121.5t64 -26.5l94 -6v-61z"/>
<glyph unicode="m" horiz-adv-x="1808" d="M1780 -6q-92 6 -183 6q-81 0 -161 -6v581q0 117 -52 189t-135 72q-92 0 -175 -62t-83 -131v-434q0 -98 12 -121.5t64 -26.5l94 -6v-61q-129 6 -256 6t-256 -6v61l94 6q52 3 64 26.5t12 121.5v366q0 117 -51.5 189t-134.5 72q-92 0 -175 -62t-83 -131v-434 q0 -98 12 -121.5t64 -26.5l86 -6v-61q-123 6 -244 6q-131 0 -260 -6v61l94 6q52 3 64 26.5t12 121.5v461q0 72 -6 100.5t-23 38.5t-61 10h-76v58q158 17 319 84l19 -9v-174l141 131q58 52 170 52q105 0 173 -45t118 -146l156 139q58 52 167 52q141 0 224.5 -89t83.5 -241 v-422q0 -98 11.5 -121.5t63.5 -26.5l97 -6v-61z"/>
<glyph unicode="n" horiz-adv-x="1191" d="M1171 -6q-85 6 -170 6q-82 0 -161 -6v581q0 118 -62.5 189.5t-165.5 71.5q-94 0 -177 -62t-83 -131v-434q0 -98 12 -121.5t64 -26.5l92 -6v-61q-126 6 -254 6t-254 -6v61l92 6q52 3 64 26.5t12 121.5v461q0 72 -6 100.5t-23 38.5t-61 10h-76v58q159 18 320 84l18 -9v-178 l156 135q60 52 162 52q342 0 342 -357v-395q0 -99 11.5 -122t63.5 -26l84 -6v-61z"/>
<glyph unicode="o" horiz-adv-x="1118" d="M1053 485q0 -230 -152.5 -378t-388.5 -148q-198 0 -322 134.5t-124 350.5q0 229 140.5 373t364.5 144q210 0 346 -134.5t136 -341.5zM862 410q0 209 -93 346t-234 137q-135 0 -207 -97.5t-72 -281.5q0 -218 92.5 -352.5t243.5 -134.5q125 0 197.5 103t72.5 280z"/>
<glyph unicode="p" horiz-adv-x="1230" d="M1135 555q0 -98 -58.5 -226.5t-120.5 -168.5l-233 -152q-54 -33 -145 -33q-134 0 -220 52v-387q0 -98 12 -121.5t64 -26.5l94 -6v-61q-129 6 -256 6t-256 -6v61l95 6q52 3 63.5 26.5t11.5 121.5v1030q0 72 -6 100.5t-23 38.5t-61 10h-76v58q159 18 320 84l18 -9v-196 l168 153q25 23 75.5 37.5t107.5 14.5q179 0 302.5 -118t123.5 -288zM956 479q0 160 -85 254t-230 94q-157 0 -246 -114q-37 -48 -37 -86v-426q60 -63 126 -92t151 -29q138 0 229.5 113.5t91.5 285.5z"/>
<glyph unicode="q" horiz-adv-x="1146" d="M1147 -575q-126 6 -252 6q-144 0 -285 -6v61l119 6q51 3 63.5 27t12.5 121v495l-213 -135q-42 -25 -105 -25q-190 0 -302.5 120.5t-112.5 322.5q0 270 198 397l172 111q24 14 71.5 24.5t90.5 10.5q131 0 281 -68l100 63l39 -22q-47 -105 -47 -283v-1011q0 -98 12 -121.5 t64 -26.5l94 -6v-61zM805 246v534q-103 84 -244 84q-148 0 -229.5 -93.5t-81.5 -262.5q0 -186 85 -301t220 -115q71 0 145 41q42 23 73.5 57t31.5 56z"/>
<glyph unicode="r" horiz-adv-x="808" d="M766 938l-18 -246h-43q-47 94 -138 94q-75 0 -128.5 -66.5t-53.5 -158.5v-352q0 -101 13.5 -122.5t82.5 -25.5l107 -6v-61q-147 6 -293 6q-126 0 -252 -6v61l94 6q52 3 64 26.5t12 121.5v461q0 72 -6 100.5t-23 38.5t-61 10h-76v58q159 18 320 84l18 -9v-211l115 136 q32 38 78 61t92 23q58 0 96 -23z"/>
<glyph unicode="s" horiz-adv-x="868" d="M801 303q0 -151 -129 -247.5t-330 -96.5q-133 0 -281 49q23 118 23 285h61v-84q0 -76 71.5 -125t184.5 -49q109 0 178.5 52.5t69.5 135.5q0 59 -31 93t-100 49q-215 48 -303 88q-139 64 -139 211q0 138 102.5 217.5t280.5 79.5q113 0 266 -52q-7 -78 -10 -231h-58v47 q0 72 -69 120t-172 48q-94 0 -145.5 -42t-51.5 -118q0 -70 48.5 -106.5t174.5 -61.5q139 -27 200.5 -49t100.5 -61q58 -58 58 -152z"/>
<glyph unicode="t" horiz-adv-x="667" d="M653 893l-18 -111h-262v-536q0 -75 26 -108.5t86 -33.5q52 0 121 39l27 -34l-98 -109q-9 -10 -41 -17.5t-68 -7.5q-118 0 -171.5 52t-53.5 166v589l-156 -8v43l160 72v143q0 81 -8 162q102 32 174 78l24 -23q-22 -180 -22 -291v-77z"/>
<glyph unicode="u" horiz-adv-x="1234" d="M1190 -6q-86 6 -170 6q-85 0 -170 -6q8 128 8 188l-137 -127q-86 -80 -229 -80q-171 0 -240 93q-28 38 -38.5 94.5t-10.5 163.5v344q0 72 -6 100.5t-23 38.5t-61 10h-76v58q158 17 319 84l19 -9v-604q0 -137 43 -186q52 -62 162 -62q116 0 202 86q35 35 55.5 75.5 t20.5 74.5v334q0 72 -6 100.5t-23 38.5t-61 10h-76v58q159 18 320 84l18 -9v-743q0 -99 12 -122t64 -26l84 -6v-61z"/>
<glyph unicode="v" horiz-adv-x="1157" d="M1104 883l-64 -4q-31 -1 -55 -30.5t-59 -107.5l-242 -532q-3 -8 -19 -42.5t-19.5 -42.5t-14 -34t-14 -38t-9 -30.5t-8.5 -35.5h-102l-353 825q-21 48 -32 57.5t-31 10.5l-70 4v57q120 -6 238 -6q119 0 239 6v-57l-100 -4q-79 -2 -33 -117l244 -590l127 287l86 217 q42 104 40.5 152t-50.5 51l-84 4v57q94 -6 192 -6t193 6v-57z"/>
<glyph unicode="w" horiz-adv-x="1708" d="M1655 883l-53 -4q-36 -3 -63.5 -39t-68.5 -140l-280 -714h-94l-279 700q-69 -143 -106 -229l-201 -471h-96l-209 688q-38 122 -64.5 162t-70.5 43l-58 4v57q123 -6 244 -6t244 6v-57l-82 -4q-56 -3 -71 -29t1 -72l172 -565l326 748h47q23 -79 59 -166l236 -594l98 254 l103 286q47 132 -66 138l-70 4v57q102 -6 201 -6t201 6v-57z"/>
<glyph unicode="x" horiz-adv-x="1056" d="M1016 -6q-64 6 -127 6t-125 -6l-272 399l-152 -200q-48 -64 -79 -112.5t-37 -64.5l-7 -16h-176v55h35q15 0 33 9t28 22l305 360l-245 357q-15 22 -45 39t-58 20l-43 4l-10 54l238 41q78 -78 122 -142l156 -237l254 358h168v-57h-29q-49 0 -69 -23l-291 -340l303 -409 q35 -47 72 -50l51 -6v-61z"/>
<glyph unicode="y" horiz-adv-x="1138" d="M1114 883l-57 -4q-38 -3 -74 -55.5t-98 -192.5l-416 -959q-59 -134 -129.5 -193t-173.5 -59q-51 0 -111 31l49 154h27q53 -47 105 -47q58 0 115.5 69.5t107.5 198.5l47 125l-338 827q-21 53 -44.5 74.5t-62.5 26.5l-36 4v57q120 -6 237 -6q118 0 238 6v-57l-78 -4 q-58 -3 -67.5 -35t18.5 -99l131 -344q54 -138 104 -225l244 598q23 56 7 78t-81 27l-53 4v57q99 -6 195 -6q95 0 194 6v-57z"/>
<glyph unicode="z" horiz-adv-x="1024" d="M954 285l-12 -97q-18 -147 -18 -194q-282 6 -566 6q-157 0 -313 -6l-12 41l532 649q75 92 133 184h-292q-114 0 -152.5 -10.5t-44.5 -42.5l-25 -139h-61q14 163 18 270q255 -6 508 -6q142 0 283 6v-61l-643 -813h276q149 0 217 11.5t74 39.5l37 162h61z"/>
<glyph unicode="{" d="M592 -358q-100 2 -153 14t-87 41q-78 69 -78 268v344q0 123 -30 171t-125 79q90 31 122.5 82t32.5 162v381q0 181 84 250q35 28 87.5 39.5t146.5 13.5q-97 -32 -133.5 -89.5t-36.5 -178.5v-381q0 -135 -35 -191.5t-137 -87.5q105 -32 138.5 -90t33.5 -207v-354 q0 -121 38 -180.5t132 -85.5z"/>
<glyph unicode="|" horiz-adv-x="1241" d="M678 -377h-115v1864h115v-1864z"/>
<glyph unicode="}" d="M563 559q-95 -31 -125 -79t-30 -171v-344q0 -203 -84 -272q-34 -27 -86 -38.5t-148 -12.5q94 26 132 85.5t38 180.5v354q0 149 33.5 207t138.5 90q-102 31 -137 87.5t-35 191.5v381q0 120 -36.5 178t-133.5 90q98 -2 151.5 -14.5t88.5 -42.5q78 -64 78 -246v-381 q0 -111 32.5 -162t122.5 -82z"/>
<glyph unicode="~" horiz-adv-x="1241" d="M1137 643q-127 -231 -283 -231q-40 0 -94.5 17t-171.5 67q-97 41 -128.5 51t-68.5 10q-61 0 -108 -40t-109 -144l-70 55q75 133 141 189.5t144 56.5q46 0 99.5 -16.5t162.5 -63.5q95 -42 133.5 -55t67.5 -13q119 0 215 172z"/>
<glyph unicode=" "/>
<glyph unicode="¡" horiz-adv-x="569" d="M403 811q0 -46 -35.5 -82.5t-80.5 -36.5q-47 0 -84 36.5t-37 82.5q0 47 37 83t86 36q44 0 79 -36.5t35 -82.5zM395 -424l-153 -78h-70v51q0 77 14 195l60 668v51l57 47l21 -10l4 -82z"/>
<glyph unicode="¢" horiz-adv-x="1024" d="M918 109l-41 -68q-149 -70 -297 -70q-57 0 -127 11l-58 -189h-84l66 213q-64 34 -101 65t-71 81q-80 119 -80 303q0 292 209 397l164 82q60 29 168 29l55 188h82l-55 -188q78 -3 163 -54q-22 -137 -22 -266h-58l-18 135q-35 38 -102 64l-217 -723q83 -45 174 -45 q92 0 231 57zM633 858q-64 10 -80 10q-117 0 -181.5 -93t-64.5 -261q0 -100 29 -195q15 -48 33 -77t57 -70z"/>
<glyph unicode="£" horiz-adv-x="1024" d="M979 1368q-21 -108 -21 -209q0 -23 3 -69h-68q-1 89 -12.5 129t-42.5 65q-53 41 -146 41q-92 0 -152 -36.5t-98 -114.5q-49 -104 -49 -267v-182l373 12l-8 -98l-371 10q-8 -134 -52.5 -253t-139.5 -255q147 19 272 15l321 -13q11 0 27 -1t21 -1q29 0 41 15.5t18 60.5 l14 107h54v-304q-31 -26 -50.5 -33t-52.5 -7q-191 0 -366 38q-161 38 -332 48l-92 -93h-45v101q32 32 77 55q24 11 32 18.5t18 28.5q31 62 50 175.5t19 234.5v61l-196 -6l16 92l180 -6v217q0 197 203 344q186 133 354 133q63 0 106 -11t95 -42z"/>
<glyph unicode="¤" horiz-adv-x="1024" d="M963 289l-93 -92l-98 98q-59 -46 -119 -66t-141 -20q-83 0 -143 20t-117 66l-98 -98l-93 92l101 100q-46 59 -66 117t-20 135q0 80 20 139t66 111l-101 100l97 96l98 -98q112 84 256 84q141 0 256 -84l98 98l97 -96l-101 -100q46 -52 66 -111t20 -139q0 -76 -20 -134.5 t-66 -117.5zM827 643q0 128 -93.5 218.5t-225.5 90.5q-127 0 -219 -92.5t-92 -218.5q0 -129 92 -220t223 -91t223 91.5t92 221.5z"/>
<glyph unicode="¥" horiz-adv-x="1024" d="M1016 1391q-130 -181 -266 -469l-66 -140h250v-80h-285q-35 -76 -35 -133v-65h320v-80h-320v-178q0 -120 15 -150.5t76 -34.5l83 -6v-61q-132 6 -266 6q-114 0 -231 -6v61l84 6q61 4 75.5 34t14.5 151v178h-320v80h320v33q0 33 -12 63l-43 102h-265v80h228l-154 328 q-66 140 -105.5 182t-103.5 39v60l189 43q6 2 20 2q40 0 65.5 -32.5t57.5 -123.5q4 -15 7.5 -25t6 -15.5t2.5 -6.5l213 -535l144 334l157 389h144v-30z"/>
<glyph unicode="¦" horiz-adv-x="1241" d="M678 741h-115v746h115v-746zM678 -377h-115v746h115v-746z"/>
<glyph unicode="§" horiz-adv-x="1024" d="M952 518q0 -82 -37.5 -150.5t-121.5 -140.5q64 -35 93 -85.5t29 -127.5q0 -85 -43 -170t-112 -149t-161.5 -104t-186.5 -40q-159 0 -322 91q21 192 25 321h65l10 -184q63 -68 125.5 -94.5t157.5 -26.5q143 0 228 67t85 179q0 103 -94 170q-36 26 -88.5 46.5t-183.5 63.5 q-122 39 -182 68.5t-111 73.5q-34 30 -54 75.5t-20 96.5q0 160 170 284q-119 88 -119 211q0 122 65 228t175 168.5t236 62.5q139 0 272 -74q-22 -160 -27 -311h-63l-10 178q-65 56 -120.5 78.5t-127.5 22.5q-123 0 -202 -69.5t-79 -176.5q0 -90 84 -148q38 -26 92 -47.5 t189 -64.5q204 -66 284 -137t80 -185zM817 436q0 98 -94 158q-43 27 -97.5 47.5t-164.5 52.5q-114 33 -185 62q-47 -43 -67.5 -84t-20.5 -94q0 -82 86.5 -141.5t300.5 -123.5q126 -40 173 -61q69 108 69 184z"/>
<glyph unicode="¨" d="M240 1212q0 -46 -28.5 -74t-74.5 -28t-74 28t-28 74t28.5 74.5t75.5 28.5q44 0 72.5 -29.5t28.5 -73.5zM647 1212q0 -46 -28 -74t-74 -28t-74.5 28t-28.5 74t29 74.5t76 28.5q44 0 72 -29t28 -74z"/>
<glyph unicode="©" horiz-adv-x="1529" d="M1470 664q0 -143 -55.5 -273.5t-150 -224.5t-225 -149.5t-273.5 -55.5q-191 0 -353 94t-256 256t-94 353q0 143 55.5 273.5t149.5 225t224.5 150t273.5 55.5t273.5 -55.5t225 -150t150 -225t55.5 -273.5zM1389 664q0 169 -83.5 312.5t-227 226.5t-312.5 83t-312 -83 t-226 -226.5t-83 -312.5t83 -312t226 -226t312 -83t312.5 83t227 226t83.5 312zM1169 379l-39 -64q-125 -61 -278 -61q-219 0 -354.5 112t-135.5 293q0 227 216 345q125 67 294 67q138 0 289 -47q-21 -94 -24 -182h-54v88q0 30 -72.5 54t-158.5 24q-150 0 -241 -89.5 t-91 -236.5q0 -158 103.5 -254t275.5 -96q140 0 250 67z"/>
<glyph unicode="ª" d="M635 872q-49 4 -51 5q-25 2 -49 2l-56 -2l-35 -3l-12 -2l6 105l-166 -107q-43 -6 -65 -6q-72 0 -115 39.5t-43 106.5q0 81 62 128.5t196 69.5l131 21q-1 83 -43.5 120t-136.5 37q-42 0 -57.5 -7.5t-32.5 -35.5l-6 -10l-6 -12l-19 -39l-35 8v80l72 41q71 41 156 41 q132 0 188 -80q16 -24 21.5 -56t5.5 -108v-209q0 -59 8.5 -74.5t40.5 -15.5h41v-37zM438 1028v162q-152 -19 -213 -55t-61 -105q0 -41 29.5 -68.5t72.5 -27.5q28 0 68.5 16.5t60.5 36.5zM635 739h-586v70h586v-70z"/>
<glyph unicode="«" horiz-adv-x="1024" d="M510 176l-47 -31l-361 351v24l361 357l47 -27l-244 -342zM922 176l-48 -31l-360 351v24l360 357l48 -27l-244 -342z"/>
<glyph unicode="¬" horiz-adv-x="1241" d="M1159 336h-115v295l-962 2v115h1077v-412z"/>
<glyph unicode="­" d="M639 578l-61 -138h-533l-10 11l55 137h539z"/>
<glyph unicode="®" horiz-adv-x="1529" d="M1470 664q0 -143 -55.5 -273.5t-150 -224.5t-225 -149.5t-273.5 -55.5q-191 0 -353 94t-256 256t-94 353q0 143 55.5 273.5t149.5 225t224.5 150t273.5 55.5t273.5 -55.5t225 -150t150 -225t55.5 -273.5zM1389 664q0 169 -83.5 312.5t-227 226.5t-312.5 83t-312 -83 t-226 -226.5t-83 -312.5t83 -312t226 -226t312 -83t312.5 83t227 226t83.5 312zM1161 324v-54q-47 6 -92 6t-88 -6l-328 400v30h43q86 0 149.5 43t63.5 113q0 62 -53.5 99.5t-126.5 37.5q-49 0 -104 -10v-567q0 -85 47 -90l61 -2v-54q-89 6 -180 6t-182 -6v54l63 2 q47 5 47 90v493q0 87 -47 90l-53 5v51q70 -4 213 -4q36 0 107.5 2t107.5 2q102 0 176 -46.5t74 -127.5q0 -97 -107 -168q-52 -33 -123 -49l267 -316q16 -20 65 -24z"/>
<glyph unicode="¯" d="M662 1159h-639v109h639v-109z"/>
<glyph unicode="°" horiz-adv-x="819" d="M717 1100q0 -123 -91 -213t-216 -90q-128 0 -218 90t-90 217t90 217t216 90q129 0 219 -91t90 -220zM635 1100q0 95 -66.5 162t-160.5 67q-92 0 -158 -65.5t-66 -159.5t66 -159.5t160 -65.5q92 0 158.5 65.5t66.5 155.5z"/>
<glyph unicode="±" horiz-adv-x="1241" d="M1159 569h-481v-352h-115v352h-481v115h481v481h115v-481h481v-115zM1159 0h-1077v115h1077v-115z"/>
<glyph unicode="²" horiz-adv-x="614" d="M582 555l-289 4l-281 -4v41l211 221q103 107 146 180.5t43 141.5q0 73 -44.5 116t-121.5 43q-60 0 -92.5 -22t-47.5 -72l-18 -61h-49l22 174q47 47 98 67.5t120 20.5q120 0 189 -62.5t69 -168.5q0 -69 -33.5 -130.5t-124.5 -156.5l-213 -221l416 12l-2 -14q-2 -11 -2 -48 q0 -36 2 -47z"/>
<glyph unicode="³" horiz-adv-x="614" d="M575 836q0 -114 -108 -207.5t-240 -93.5q-59 0 -157 28l-15 4q-7 78 -45 189l45 16q26 -70 51 -104q58 -70 160 -70q83 0 133 54t50 143q0 79 -41 123.5t-115 44.5q-44 0 -105 -27l-14 12l16 74q13 -1 27.5 -2t23 -1.5t13.5 -0.5q61 0 106.5 47.5t45.5 112.5 q0 54 -40.5 93.5t-97.5 39.5q-46 0 -92 -24.5t-55 -53.5l-25 -72h-51l37 160q50 46 95.5 65t109.5 19q104 0 168.5 -51t64.5 -133q0 -54 -29.5 -100t-95.5 -99q92 -19 136 -64t44 -122z"/>
<glyph unicode="´" d="M618 1317q0 -28 -15 -46t-66 -50l-295 -185h-82l282 283q67 67 113 67q26 0 44.5 -20t18.5 -49z"/>
<glyph unicode="µ" horiz-adv-x="1234" d="M1190 -6q-86 6 -172 6t-168 -6q8 128 8 188l-137 -127q-89 -80 -232 -80q-95 0 -182 41l41 -403v-6q0 -21 -51 -52.5t-94 -37.5v1153q0 72 -6 100.5t-23 38.5t-61 10h-76v58q158 17 319 84l19 -9v-604q0 -137 43 -186q52 -62 162 -62q116 0 202 86q35 35 55.5 75.5 t20.5 74.5v334q0 72 -6 100.5t-23 38.5t-61 10h-76v58q159 18 320 84l18 -9v-743q0 -99 12 -122t64 -26l84 -6v-61z"/>
<glyph unicode="¶" horiz-adv-x="1286" d="M1206 -307l-413 6l-414 -6v61l86 6q48 3 69.5 18t30 51.5t8.5 115.5v762q-113 8 -189 33.5t-151 82.5q-153 116 -153 287q0 140 102 229.5t262 83.5l121 -4l297 -8q163 0 344 10v-61l-65 -6q-80 -8 -104.5 -41.5t-24.5 -136.5v-1231q0 -79 8.5 -115.5t30 -51.5t69.5 -18 l86 -6v-61zM573 782v559q-12 2 -30 2q-102 0 -169 -75.5t-67 -190.5q0 -114 68.5 -190t197.5 -105zM862 -246v1587h-139v-1587h139z"/>
<glyph unicode="·" horiz-adv-x="512" d="M375 512q0 -50 -34.5 -84.5t-84.5 -34.5t-84.5 34.5t-34.5 84.5t34.5 84.5t84.5 34.5t84.5 -34.5t34.5 -84.5z"/>
<glyph unicode="¸" d="M623 -289q0 -79 -68.5 -125.5t-185.5 -46.5q-41 0 -73 6t-99 27l28 63q83 -22 133 -22q111 0 111 88q0 35 -22.5 57.5t-59.5 22.5q-29 0 -84 -14l-14 12l86 241h69l-51 -174q30 9 56 9q80 0 127 -39t47 -105z"/>
<glyph unicode="¹" horiz-adv-x="614" d="M520 555q-132 4 -201 4l-208 -4v49l75 4q47 3 60.5 16.5t13.5 57.5v586q0 24 -4 32l-160 -71h-20l-10 63q160 56 286 119l25 -8v-721q0 -44 13.5 -57.5t60.5 -16.5l69 -4v-49z"/>
<glyph unicode="º" d="M662 1161q0 -129 -99 -219t-241 -90q-135 0 -218.5 80.5t-83.5 210.5q0 137 92.5 223t241.5 86q135 0 221.5 -81.5t86.5 -209.5zM539 1128q0 120 -61 201.5t-152 81.5q-88 0 -135.5 -58t-47.5 -167q0 -129 58.5 -211t152.5 -82q83 0 134 64.5t51 170.5zM662 727h-642v70 h642v-70z"/>
<glyph unicode="»" horiz-adv-x="1024" d="M922 496l-361 -351l-47 31l244 332l-244 342l47 27l361 -357v-24zM510 496l-360 -351l-48 31l244 332l-244 342l48 27l360 -357v-24z"/>
<glyph unicode="¼" horiz-adv-x="1536" d="M1489 213q-56 6 -143 6v-74q0 -100 90 -100h43v-51q-125 6 -205 6l-219 -6v51h43q68 0 94.5 21.5t26.5 78.5v74h-355l-10 31q5 10 11 24t10 22t13 23t21 33l324 467l100 33l19 -6q-11 -202 -11 -375v-158h35h4q31 -3 109 4v-104zM1350 1411l-924 -1411h-107l924 1411h107 zM549 559q-228 6 -230 6q-1 0 -217 -6v53h74q55 0 71.5 30.5t16.5 133.5v488q0 36 -10 39h-6l-164 -70h-14l-9 65l330 119l21 -6q-17 -261 -17 -418v-217q0 -105 15.5 -134.5t70.5 -29.5h68v-53zM1219 313v394l-265 -394h265z"/>
<glyph unicode="½" horiz-adv-x="1536" d="M1280 1411l-924 -1411h-106l924 1411h106zM518 559q-228 6 -229 6t-217 -6v53h73q55 0 71.5 30.5t16.5 133.5v488q0 36 -10 39h-6l-164 -70h-14l-8 65l329 119l21 -6q-16 -245 -16 -418v-217q0 -105 15.5 -134.5t70.5 -29.5h67v-53zM1505 -6q-196 6 -321 6l-295 -6v41 l221 213q114 108 159.5 181.5t45.5 145.5q0 82 -45.5 126t-128.5 44q-110 0 -146 -96l-26 -71h-49l24 182q50 46 102 66t125 20q127 0 205 -63.5t78 -166.5q0 -134 -156 -284l-235 -223h250q105 0 192 10q-4 -33 -4 -68q0 -32 4 -57z"/>
<glyph unicode="¾" horiz-adv-x="1536" d="M641 840q0 -120 -107 -207.5t-253 -87.5q-81 0 -197 33q-4 40 -35 133l-18 59l63 16q32 -95 82 -135.5t135 -40.5q88 0 141.5 52.5t53.5 138.5q0 80 -44.5 122t-129.5 42q-54 0 -101 -27l-20 8l20 88q33 0 37 -2h29q66 0 115 47t49 109q0 54 -44.5 91.5t-107.5 37.5 q-66 0 -112.5 -35.5t-61.5 -97.5h-51l39 145q47 44 96 63t117 19q113 0 180.5 -49.5t67.5 -132.5q0 -53 -34 -99t-114 -104q108 -17 156.5 -61t48.5 -125zM1368 1411l-924 -1411h-106l924 1411h106zM1505 213q-55 6 -143 6v-74q0 -100 90 -100h43v-51q-125 6 -205 6l-219 -6 v51h43q68 0 94.5 21.5t26.5 78.5v74h-354l-11 31q4 8 11 23.5t11 23t13 22.5t21 33l323 467l101 33l18 -6q-10 -184 -10 -375v-158h35h4q30 -3 108 4v-104zM1235 313v394l-264 -394h264z"/>
<glyph unicode="¿" horiz-adv-x="909" d="M821 -199l-78 -231q-82 -40 -142.5 -56t-127.5 -16q-158 0 -265.5 91t-107.5 225q0 87 47.5 161t178.5 195q125 113 158.5 157t33.5 95q0 45 -45 98l43 29q90 -58 90 -150q0 -53 -32 -106.5t-125 -155.5q-91 -100 -124.5 -159.5t-33.5 -120.5q0 -98 71 -161t181 -63 q142 0 178 86l41 99zM621 811q0 -46 -35.5 -82.5t-81.5 -36.5q-47 0 -84 36.5t-37 82.5q0 47 37 83t86 36q44 0 79.5 -36.5t35.5 -82.5z"/>
<glyph unicode="À" horiz-adv-x="1593" d="M1548 -6q-129 6 -260 6q-143 0 -284 -6v61l96 6q84 7 84 41q0 25 -43 131l-94 236h-590l-58 -137q-71 -168 -71 -217q0 -25 22 -37.5t76 -16.5l76 -6v-61q-123 6 -248 6q-112 0 -223 -6v61l75 6q68 6 111 101l453 1028q35 77 60 138t32 84l8 22h66l495 -1164 q56 -128 82.5 -167t65.5 -42l69 -6v-61zM1010 551l-258 610l-260 -610h518zM1018 1534h-88l-320 149q-54 26 -71 41.5t-17 38.5t20 39.5t48 16.5q55 -3 123 -54z"/>
<glyph unicode="Á" horiz-adv-x="1593" d="M1548 -6q-129 6 -260 6q-143 0 -284 -6v61l96 6q84 7 84 41q0 25 -43 131l-94 236h-590l-58 -137q-71 -168 -71 -217q0 -25 22 -37.5t76 -16.5l76 -6v-61q-123 6 -248 6q-112 0 -223 -6v61l75 6q68 6 111 101l453 1028q35 77 60 138t32 84l8 22h66l495 -1164 q56 -128 82.5 -167t65.5 -42l69 -6v-61zM1010 551l-258 610l-260 -610h518zM1083 1763q0 -23 -17 -38.5t-71 -41.5l-319 -149h-88l305 231q68 51 123 54q28 0 47.5 -16.5t19.5 -39.5z"/>
<glyph unicode="Â" horiz-adv-x="1593" d="M1548 -6q-129 6 -260 6q-143 0 -284 -6v61l96 6q84 7 84 41q0 25 -43 131l-94 236h-590l-58 -137q-71 -168 -71 -217q0 -25 22 -37.5t76 -16.5l76 -6v-61q-123 6 -248 6q-112 0 -223 -6v61l75 6q68 6 111 101l453 1028q35 77 60 138t32 84l8 22h66l495 -1164 q56 -128 82.5 -167t65.5 -42l69 -6v-61zM1010 551l-258 610l-260 -610h518zM1147 1540h-78l-268 172l-269 -172h-75l274 277h139z"/>
<glyph unicode="Ã" horiz-adv-x="1593" d="M1548 -6q-129 6 -260 6q-143 0 -284 -6v61l96 6q84 7 84 41q0 25 -43 131l-94 236h-590l-58 -137q-71 -168 -71 -217q0 -25 22 -37.5t76 -16.5l76 -6v-61q-123 6 -248 6q-112 0 -223 -6v61l75 6q68 6 111 101l453 1028q35 77 60 138t32 84l8 22h66l495 -1164 q56 -128 82.5 -167t65.5 -42l69 -6v-61zM1010 551l-258 610l-260 -610h518zM1143 1786q-6 -90 -71 -152.5t-152 -62.5q-63 0 -140 39q-109 53 -145 53q-70 0 -109 -92h-59q22 100 77 152.5t140 52.5q36 0 67.5 -11t114.5 -51q66 -31 97 -31q43 0 70 23t50 80h60z"/>
<glyph unicode="Ä" horiz-adv-x="1593" d="M1548 -6q-129 6 -260 6q-143 0 -284 -6v61l96 6q84 7 84 41q0 25 -43 131l-94 236h-590l-58 -137q-71 -168 -71 -217q0 -25 22 -37.5t76 -16.5l76 -6v-61q-123 6 -248 6q-112 0 -223 -6v61l75 6q68 6 111 101l453 1028q35 77 60 138t32 84l8 22h66l495 -1164 q56 -128 82.5 -167t65.5 -42l69 -6v-61zM1010 551l-258 610l-260 -610h518zM702 1677q0 -46 -28 -74t-74 -28t-74 28t-28 74t28.5 74.5t75.5 28.5q44 0 72 -29t28 -74zM1110 1677q0 -46 -28 -74t-74 -28t-74.5 28t-28.5 74t29 74.5t76 28.5q44 0 72 -29t28 -74z"/>
<glyph unicode="Å" horiz-adv-x="1593" d="M1548 -6q-129 6 -260 6q-143 0 -284 -6v61l96 6q84 7 84 41q0 25 -43 131l-94 236h-590l-58 -137q-71 -168 -71 -217q0 -25 22 -37.5t76 -16.5l76 -6v-61q-123 6 -248 6q-112 0 -223 -6v61l75 6q68 6 111 101l453 1028q35 77 60 138t32 84l8 22h66l495 -1164 q56 -128 82.5 -167t65.5 -42l69 -6v-61zM1010 551l-258 610l-260 -610h518zM1010 1718q0 -86 -60 -145.5t-145 -59.5q-86 0 -145.5 59.5t-59.5 147.5q0 85 60.5 144t148.5 59q82 0 141.5 -60.5t59.5 -144.5zM932 1718q0 58 -34.5 94.5t-90.5 36.5q-59 0 -94 -35.5t-35 -93.5 q0 -61 34 -97t93 -36q57 0 92 36t35 95z"/>
<glyph unicode="Æ" horiz-adv-x="1933" d="M1860 336q-33 -175 -33 -336l-344 -6q-252 6 -506 6q-71 0 -141 -6v47l57 33q29 17 41 55t12 117v250q-126 6 -252 6q-125 0 -248 -6l-131 -234q-36 -65 -46.5 -91t-10.5 -50q0 -51 109 -60l73 -6v-61q-102 6 -200 6q-131 0 -260 -6v61l69 11q48 7 107 112l592 1049 q38 65 38 96q0 11 -24 17t-86 10l-90 6v61q264 -6 526 -6q232 0 463 6l252 -6q-33 -129 -33 -311h-72v133q0 35 -9.5 47.5t-45.5 22.5q-116 28 -297 28q-107 0 -150 -3t-90 -13v-547q120 -8 324 -8q76 0 110 14.5t38 63.5l10 106h61q-6 -120 -6 -237q0 -114 6 -228h-61 l-10 121q-4 47 -38.5 61.5t-111.5 14.5l-322 -6v-574q79 -16 203 -16q303 0 377 24q51 16 78 232h72zM946 580v761h-24l-426 -761h450z"/>
<glyph unicode="Ç" horiz-adv-x="1452" d="M1372 172l-57 -102q-211 -111 -465 -111h-29l-43 -113q30 9 53 9q82 0 129.5 -39t47.5 -105q0 -80 -68 -126t-186 -46q-44 0 -75 6t-97 27l28 63q81 -22 135 -22q53 0 81 22.5t28 65.5q0 35 -22.5 57.5t-59.5 22.5q-29 0 -84 -14l-14 12l80 184q-334 37 -521.5 231.5 t-187.5 505.5q0 207 90.5 367.5t265.5 261.5q214 123 486 123q214 0 473 -84q-36 -169 -39 -311h-64v147q0 39 -59.5 77t-154.5 61.5t-193 23.5q-266 0 -426 -171.5t-160 -455.5q0 -302 182.5 -485.5t483.5 -183.5q234 0 424 123z"/>
<glyph unicode="È" horiz-adv-x="1251" d="M1171 336q-32 -170 -32 -336l-342 -6q-237 6 -475 6q-126 0 -252 -6v61l73 6q32 3 48.5 7.5t29.5 13.5t18 31.5t7 51t2 81.5v919q0 65 -2.5 97t-15 53.5t-31 27t-56.5 7.5l-98 6v61q181 -6 365 -6q238 0 475 6l254 -6q-33 -129 -33 -311h-72v133q0 36 -9.5 48t-45.5 22 q-103 28 -297 28q-107 0 -150 -3t-90 -13v-547q120 -8 328 -8q72 0 102 14t41 64q4 17 7 43.5t4 44.5v18h61q-6 -120 -6 -237q0 -114 6 -228h-61q-3 76 -11 121q-10 48 -40 62t-103 14l-328 -6v-574q79 -16 203 -16q303 0 377 24q22 8 40.5 52t27.5 110l10 70h71zM840 1534 h-88l-320 149q-54 26 -71 41.5t-17 38.5t20 39.5t48 16.5q55 -3 123 -54z"/>
<glyph unicode="É" horiz-adv-x="1251" d="M1171 336q-32 -170 -32 -336l-342 -6q-237 6 -475 6q-126 0 -252 -6v61l73 6q32 3 48.5 7.5t29.5 13.5t18 31.5t7 51t2 81.5v919q0 65 -2.5 97t-15 53.5t-31 27t-56.5 7.5l-98 6v61q181 -6 365 -6q238 0 475 6l254 -6q-33 -129 -33 -311h-72v133q0 36 -9.5 48t-45.5 22 q-103 28 -297 28q-107 0 -150 -3t-90 -13v-547q120 -8 328 -8q72 0 102 14t41 64q4 17 7 43.5t4 44.5v18h61q-6 -120 -6 -237q0 -114 6 -228h-61q-3 76 -11 121q-10 48 -40 62t-103 14l-328 -6v-574q79 -16 203 -16q303 0 377 24q22 8 40.5 52t27.5 110l10 70h71zM907 1763 q0 -23 -17 -38.5t-71 -41.5l-319 -149h-88l305 231q68 51 123 54q28 0 47.5 -16.5t19.5 -39.5z"/>
<glyph unicode="Ê" horiz-adv-x="1251" d="M1171 336q-32 -170 -32 -336l-342 -6q-237 6 -475 6q-126 0 -252 -6v61l73 6q32 3 48.5 7.5t29.5 13.5t18 31.5t7 51t2 81.5v919q0 65 -2.5 97t-15 53.5t-31 27t-56.5 7.5l-98 6v61q181 -6 365 -6q238 0 475 6l254 -6q-33 -129 -33 -311h-72v133q0 36 -9.5 48t-45.5 22 q-103 28 -297 28q-107 0 -150 -3t-90 -13v-547q120 -8 328 -8q72 0 102 14t41 64q4 17 7 43.5t4 44.5v18h61q-6 -120 -6 -237q0 -114 6 -228h-61q-3 76 -11 121q-10 48 -40 62t-103 14l-328 -6v-574q79 -16 203 -16q303 0 377 24q22 8 40.5 52t27.5 110l10 70h71zM971 1540 h-78l-268 172l-269 -172h-75l274 277h139z"/>
<glyph unicode="Ë" horiz-adv-x="1251" d="M1171 336q-32 -170 -32 -336l-342 -6q-237 6 -475 6q-126 0 -252 -6v61l73 6q32 3 48.5 7.5t29.5 13.5t18 31.5t7 51t2 81.5v919q0 65 -2.5 97t-15 53.5t-31 27t-56.5 7.5l-98 6v61q181 -6 365 -6q238 0 475 6l254 -6q-33 -129 -33 -311h-72v133q0 36 -9.5 48t-45.5 22 q-103 28 -297 28q-107 0 -150 -3t-90 -13v-547q120 -8 328 -8q72 0 102 14t41 64q4 17 7 43.5t4 44.5v18h61q-6 -120 -6 -237q0 -114 6 -228h-61q-3 76 -11 121q-10 48 -40 62t-103 14l-328 -6v-574q79 -16 203 -16q303 0 377 24q22 8 40.5 52t27.5 110l10 70h71zM524 1677 q0 -46 -28 -74t-74 -28t-74.5 28t-28.5 74t29 74.5t76 28.5q44 0 72 -29t28 -74zM932 1677q0 -46 -28.5 -74t-74.5 -28t-74 28t-28 74t28.5 74.5t75.5 28.5q44 0 72.5 -29.5t28.5 -73.5z"/>
<glyph unicode="Ì" horiz-adv-x="690" d="M645 -6q-150 6 -301 6q-149 0 -299 -6v61l98 6q38 2 56.5 7.5t31 27t15 53.5t2.5 97v919q0 65 -2.5 97t-15 53.5t-31 27t-56.5 7.5l-98 6v61q150 -6 299 -6q151 0 301 6v-61l-98 -6q-38 -2 -56.5 -7.5t-31 -27t-15 -53.5t-2.5 -97v-919q0 -65 2.5 -97t15 -53.5t31 -27 t56.5 -7.5l98 -6v-61zM561 1534h-88l-319 149q-54 26 -71 41.5t-17 38.5t19.5 39.5t47.5 16.5q55 -3 123 -54z"/>
<glyph unicode="Í" horiz-adv-x="690" d="M645 -6q-150 6 -301 6q-149 0 -299 -6v61l98 6q38 2 56.5 7.5t31 27t15 53.5t2.5 97v919q0 65 -2.5 97t-15 53.5t-31 27t-56.5 7.5l-98 6v61q150 -6 299 -6q151 0 301 6v-61l-98 -6q-38 -2 -56.5 -7.5t-31 -27t-15 -53.5t-2.5 -97v-919q0 -65 2.5 -97t15 -53.5t31 -27 t56.5 -7.5l98 -6v-61zM627 1763q0 -23 -17 -38.5t-71 -41.5l-320 -149h-88l305 231q68 51 123 54q28 0 48 -16.5t20 -39.5z"/>
<glyph unicode="Î" horiz-adv-x="690" d="M645 -6q-150 6 -301 6q-149 0 -299 -6v61l98 6q38 2 56.5 7.5t31 27t15 53.5t2.5 97v919q0 65 -2.5 97t-15 53.5t-31 27t-56.5 7.5l-98 6v61q150 -6 299 -6q151 0 301 6v-61l-98 -6q-38 -2 -56.5 -7.5t-31 -27t-15 -53.5t-2.5 -97v-919q0 -65 2.5 -97t15 -53.5t31 -27 t56.5 -7.5l98 -6v-61zM690 1540h-78l-268 172l-268 -172h-76l274 277h140z"/>
<glyph unicode="Ï" horiz-adv-x="690" d="M645 -6q-150 6 -301 6q-149 0 -299 -6v61l98 6q38 2 56.5 7.5t31 27t15 53.5t2.5 97v919q0 65 -2.5 97t-15 53.5t-31 27t-56.5 7.5l-98 6v61q150 -6 299 -6q151 0 301 6v-61l-98 -6q-38 -2 -56.5 -7.5t-31 -27t-15 -53.5t-2.5 -97v-919q0 -65 2.5 -97t15 -53.5t31 -27 t56.5 -7.5l98 -6v-61zM246 1677q0 -46 -28.5 -74t-74.5 -28t-74 28t-28 74t28.5 74.5t75.5 28.5q44 0 72.5 -29.5t28.5 -73.5zM653 1677q0 -46 -28 -74t-74 -28t-74 28t-28 74t28.5 74.5t75.5 28.5q44 0 72 -29t28 -74z"/>
<glyph unicode="Ð" horiz-adv-x="1585" d="M1538 788q0 -164 -63.5 -320t-174.5 -265q-212 -209 -602 -209q-49 0 -148.5 3t-148.5 3q-143 0 -284 -6v47l63 33q51 25 51 121v514h-202v73h202v383q0 120 -17 150.5t-87 34.5l-82 6v61q212 -6 422 -6q59 0 177.5 3t178.5 3q324 0 519.5 -171.5t195.5 -457.5zM1319 735 q0 306 -145 451q-149 149 -521 149q-142 0 -227 -16v-537h377v-73h-377v-609q71 -16 211 -16q173 0 279 30t198 105q205 169 205 516z"/>
<glyph unicode="Ñ" horiz-adv-x="1701" d="M1665 1356l-90 -6q-38 -2 -56.5 -8t-31 -27.5t-15 -53.5t-2.5 -96v-1130q0 -10 3.5 -38t3.5 -38l-185 33l-968 1202v-948q0 -120 17 -150.5t87 -34.5l90 -6v-61q-123 6 -246 6q-117 0 -237 -6v61l90 6q70 4 87 34.5t17 150.5v919q0 120 -17 150.5t-87 34.5l-90 6v61 q150 -6 246 -6l110 6l985 -1216v964q0 120 -17 150.5t-87 34.5l-90 6v61q120 -6 237 -6q123 0 246 6v-61zM1190 1786q-6 -90 -71 -152.5t-152 -62.5q-63 0 -140 39q-109 53 -145 53q-70 0 -109 -92h-59q22 100 77 152.5t140 52.5q36 0 67.5 -11t114.5 -51q66 -31 97 -31 q43 0 70 23t50 80h60z"/>
<glyph unicode="Ò" horiz-adv-x="1609" d="M1565 752q0 -222 -105.5 -404t-290.5 -285.5t-411 -103.5q-204 0 -367 94.5t-254.5 263.5t-91.5 381q0 223 96.5 394.5t273.5 265.5t408 94q341 0 541.5 -189t200.5 -511zM1346 690q0 319 -147.5 497.5t-410.5 178.5q-252 0 -388 -154t-136 -438q0 -328 159 -528.5 t417 -200.5q238 0 372 170.5t134 474.5zM1038 1534h-88l-319 149q-54 26 -71 41.5t-17 38.5t19.5 39.5t47.5 16.5q55 -3 123 -54z"/>
<glyph unicode="Ó" horiz-adv-x="1609" d="M1565 752q0 -222 -105.5 -404t-290.5 -285.5t-411 -103.5q-204 0 -367 94.5t-254.5 263.5t-91.5 381q0 223 96.5 394.5t273.5 265.5t408 94q341 0 541.5 -189t200.5 -511zM1346 690q0 319 -147.5 497.5t-410.5 178.5q-252 0 -388 -154t-136 -438q0 -328 159 -528.5 t417 -200.5q238 0 372 170.5t134 474.5zM1104 1763q0 -23 -17 -38.5t-71 -41.5l-320 -149h-88l305 231q68 51 123 54q28 0 48 -16.5t20 -39.5z"/>
<glyph unicode="Ô" horiz-adv-x="1609" d="M1565 752q0 -222 -105.5 -404t-290.5 -285.5t-411 -103.5q-204 0 -367 94.5t-254.5 263.5t-91.5 381q0 223 96.5 394.5t273.5 265.5t408 94q341 0 541.5 -189t200.5 -511zM1346 690q0 319 -147.5 497.5t-410.5 178.5q-252 0 -388 -154t-136 -438q0 -328 159 -528.5 t417 -200.5q238 0 372 170.5t134 474.5zM1167 1540h-77l-269 172l-268 -172h-76l275 277h139z"/>
<glyph unicode="Õ" horiz-adv-x="1609" d="M1565 752q0 -222 -105.5 -404t-290.5 -285.5t-411 -103.5q-204 0 -367 94.5t-254.5 263.5t-91.5 381q0 223 96.5 394.5t273.5 265.5t408 94q341 0 541.5 -189t200.5 -511zM1346 690q0 319 -147.5 497.5t-410.5 178.5q-252 0 -388 -154t-136 -438q0 -328 159 -528.5 t417 -200.5q238 0 372 170.5t134 474.5zM1163 1786q-6 -90 -71 -152.5t-152 -62.5q-62 0 -139 39q-109 53 -146 53q-69 0 -108 -92h-60q22 100 77.5 152.5t140.5 52.5q36 0 67.5 -11t114.5 -51q66 -31 96 -31q43 0 70.5 23t50.5 80h59z"/>
<glyph unicode="Ö" horiz-adv-x="1609" d="M1565 752q0 -222 -105.5 -404t-290.5 -285.5t-411 -103.5q-204 0 -367 94.5t-254.5 263.5t-91.5 381q0 223 96.5 394.5t273.5 265.5t408 94q341 0 541.5 -189t200.5 -511zM1346 690q0 319 -147.5 497.5t-410.5 178.5q-252 0 -388 -154t-136 -438q0 -328 159 -528.5 t417 -200.5q238 0 372 170.5t134 474.5zM723 1677q0 -46 -28 -74t-74 -28t-74.5 28t-28.5 74t29 74.5t76 28.5q44 0 72 -29t28 -74zM1130 1677q0 -46 -28 -74t-74 -28t-74 28t-28 74t28.5 74.5t75.5 28.5q44 0 72 -29t28 -74z"/>
<glyph unicode="×" horiz-adv-x="1241" d="M1042 172l-81 -82l-340 340l-340 -340l-82 82l340 340l-340 340l82 82l340 -340l340 340l81 -82l-340 -340z"/>
<glyph unicode="Ø" horiz-adv-x="1705" d="M1632 1391l-180 -170q85 -108 122.5 -216t37.5 -247q0 -168 -61.5 -316.5t-168 -254t-255.5 -167t-318 -61.5q-186 0 -340 74q-62 29 -154 104l-186 -174l-68 60l193 180q-44 59 -64.5 94t-39.5 84q-58 147 -58 319q0 224 96 395t272.5 264t407.5 93q205 0 369 -74 q72 -34 154 -96l176 170zM1393 696q0 122 -18 208.5t-62 182.5l-864 -819q91 -118 192.5 -170.5t241.5 -52.5q243 0 376.5 170.5t133.5 480.5zM1262 1167q-60 68 -106 101t-118 59q-101 39 -213 39q-246 0 -380 -156t-134 -442q0 -129 20.5 -227.5t69.5 -198.5z"/>
<glyph unicode="Ù" horiz-adv-x="1593" d="M1554 1356l-90 -6q-70 -4 -87 -34.5t-17 -150.5v-592q0 -336 -141 -477q-134 -137 -445 -137q-308 0 -432 127q-115 118 -115 352v727q0 53 -2 81.5t-7 51t-18 32t-29.5 14t-47.5 6.5l-98 6v61q150 -6 299 -6q151 0 301 6v-61l-99 -6q-31 -2 -47.5 -6.5t-29.5 -14 t-18 -32t-7 -51t-2 -81.5v-704q0 -197 96.5 -286t310.5 -89q223 0 330 103.5t107 320.5v655q0 64 -2.5 96t-15 53.5t-31 27.5t-56.5 8l-90 6v61q120 -6 238 -6q122 0 245 6v-61zM1059 1534h-88l-320 149q-54 26 -71 41.5t-17 38.5t20 39.5t48 16.5q55 -3 123 -54z"/>
<glyph unicode="Ú" horiz-adv-x="1593" d="M1554 1356l-90 -6q-70 -4 -87 -34.5t-17 -150.5v-592q0 -336 -141 -477q-134 -137 -445 -137q-308 0 -432 127q-115 118 -115 352v727q0 53 -2 81.5t-7 51t-18 32t-29.5 14t-47.5 6.5l-98 6v61q150 -6 299 -6q151 0 301 6v-61l-99 -6q-31 -2 -47.5 -6.5t-29.5 -14 t-18 -32t-7 -51t-2 -81.5v-704q0 -197 96.5 -286t310.5 -89q223 0 330 103.5t107 320.5v655q0 64 -2.5 96t-15 53.5t-31 27.5t-56.5 8l-90 6v61q120 -6 238 -6q122 0 245 6v-61zM1124 1763q0 -23 -17 -38.5t-71 -41.5l-319 -149h-88l305 231q68 51 123 54q28 0 47.5 -16.5 t19.5 -39.5z"/>
<glyph unicode="Û" horiz-adv-x="1593" d="M1554 1356l-90 -6q-70 -4 -87 -34.5t-17 -150.5v-592q0 -336 -141 -477q-134 -137 -445 -137q-308 0 -432 127q-115 118 -115 352v727q0 53 -2 81.5t-7 51t-18 32t-29.5 14t-47.5 6.5l-98 6v61q150 -6 299 -6q151 0 301 6v-61l-99 -6q-31 -2 -47.5 -6.5t-29.5 -14 t-18 -32t-7 -51t-2 -81.5v-704q0 -197 96.5 -286t310.5 -89q223 0 330 103.5t107 320.5v655q0 64 -2.5 96t-15 53.5t-31 27.5t-56.5 8l-90 6v61q120 -6 238 -6q122 0 245 6v-61zM1188 1540h-78l-268 172l-269 -172h-75l274 277h139z"/>
<glyph unicode="Ü" horiz-adv-x="1593" d="M1554 1356l-90 -6q-70 -4 -87 -34.5t-17 -150.5v-592q0 -336 -141 -477q-134 -137 -445 -137q-308 0 -432 127q-115 118 -115 352v727q0 53 -2 81.5t-7 51t-18 32t-29.5 14t-47.5 6.5l-98 6v61q150 -6 299 -6q151 0 301 6v-61l-99 -6q-31 -2 -47.5 -6.5t-29.5 -14 t-18 -32t-7 -51t-2 -81.5v-704q0 -197 96.5 -286t310.5 -89q223 0 330 103.5t107 320.5v655q0 64 -2.5 96t-15 53.5t-31 27.5t-56.5 8l-90 6v61q120 -6 238 -6q122 0 245 6v-61zM743 1677q0 -46 -28 -74t-74 -28t-74 28t-28 74t28.5 74.5t75.5 28.5q44 0 72 -29t28 -74z M1151 1677q0 -46 -28 -74t-74 -28t-74.5 28t-28.5 74t29 74.5t76 28.5q44 0 72 -29t28 -74z"/>
<glyph unicode="Ý" horiz-adv-x="1366" d="M1339 1391q-121 -145 -194 -244t-191 -275q-89 -135 -118 -206t-29 -156v-264q0 -53 2 -81.5t7 -51t18 -32t29.5 -14t47.5 -6.5l99 -6v-61q-150 6 -301 6q-149 0 -299 -6v61l98 6q31 2 47.5 6.5t29.5 14t18 32t7 51t2 81.5v291q0 51 -18 81l-254 443 q-65 113 -137.5 186.5t-124.5 79.5l-60 6v60l246 51q28 0 83 -61.5t104 -149.5l292 -535l211 334q121 192 222 389h163v-30zM991 1763q0 -23 -17 -38.5t-71 -41.5l-319 -149h-88l305 231q68 51 123 54q28 0 47.5 -16.5t19.5 -39.5z"/>
<glyph unicode="Þ" horiz-adv-x="1236" d="M1176 793q0 -180 -132 -306.5t-319 -126.5q-69 0 -119 13l-22 76q71 -19 127 -19q109 0 184.5 87.5t75.5 213.5q0 293 -348 293q-81 0 -160 -18v-760q0 -53 2 -81.5t7 -51t18 -32t29.5 -14t47.5 -6.5l99 -6v-61q-150 6 -301 6q-149 0 -299 -6v61l98 6q31 2 47.5 6.5 t29.5 14t18 32t7 51t2 81.5v919q0 53 -2 81.5t-7 51t-18 32t-29.5 14t-47.5 6.5l-98 6v61q150 -6 299 -6q151 0 301 6v-61l-99 -6q-31 -2 -47.5 -6.5t-29.5 -14t-18 -32t-7 -51t-2 -81.5v-55q35 -4 94 -4q197 2 203 2q191 0 303.5 -85t112.5 -230z"/>
<glyph unicode="ß" horiz-adv-x="1138" d="M1063 334q0 -63 -22 -122.5t-54 -84.5l-119 -90q-70 -55 -161 -55q-98 0 -191 41v-29q-117 6 -235 6q-117 0 -234 -6v61l74 6q52 4 64 27.5t12 120.5v579h-142v29l142 72v135q0 61 21 116t73 126q77 105 190.5 168t225.5 63q137 0 223 -82.5t86 -212.5q0 -167 -90 -401 q-82 47 -146 47q-49 0 -78.5 -24t-29.5 -64q0 -43 39.5 -81t136.5 -87q114 -57 164.5 -117.5t50.5 -140.5zM930 225q0 71 -43 122.5t-148 107.5q-115 60 -152.5 103t-37.5 112q0 72 39 114l80 88q66 72 211 72q22 90 22 168q0 135 -72 214t-196 79q-143 0 -203.5 -103.5 t-60.5 -347.5v-735q0 -91 21 -127.5t73 -36.5h57l43 174h55v-94q41 -37 73 -51t73 -14q71 0 118.5 44t47.5 111z"/>
<glyph unicode="à" horiz-adv-x="1024" d="M965 -6q-77 6 -152 6q-81 0 -160 -6l11 174l-254 -176q-24 -17 -86 -17q-122 0 -190 66t-68 186q0 134 93 211t302 115l203 37q-5 140 -69.5 201t-209.5 61q-71 0 -99 -19.5t-59 -91.5l-26 -63l-54 14v133l109 66q116 70 248 70q178 0 250.5 -91.5t72.5 -316.5v-375 q0 -75 10.5 -96t47.5 -23l80 -4v-61zM664 254v270q-244 -36 -320 -82q-46 -30 -74 -80t-28 -106q0 -66 45.5 -115t107.5 -49q60 0 142.5 49.5t126.5 112.5zM686 1036h-82l-295 185q-51 32 -66.5 50t-15.5 46q0 29 19 49t45 20q45 0 112 -67z"/>
<glyph unicode="á" horiz-adv-x="1024" d="M965 -6q-77 6 -152 6q-81 0 -160 -6l11 174l-254 -176q-24 -17 -86 -17q-122 0 -190 66t-68 186q0 134 93 211t302 115l203 37q-5 140 -69.5 201t-209.5 61q-71 0 -99 -19.5t-59 -91.5l-26 -63l-54 14v133l109 66q116 70 248 70q178 0 250.5 -91.5t72.5 -316.5v-375 q0 -75 10.5 -96t47.5 -23l80 -4v-61zM664 254v270q-244 -36 -320 -82q-46 -30 -74 -80t-28 -106q0 -66 45.5 -115t107.5 -49q60 0 142.5 49.5t126.5 112.5zM780 1317q0 -28 -15.5 -46t-66.5 -50l-295 -185h-81l282 283q67 67 113 67q26 0 44.5 -20t18.5 -49z"/>
<glyph unicode="â" horiz-adv-x="1024" d="M965 -6q-77 6 -152 6q-81 0 -160 -6l11 174l-254 -176q-24 -17 -86 -17q-122 0 -190 66t-68 186q0 134 93 211t302 115l203 37q-5 140 -69.5 201t-209.5 61q-71 0 -99 -19.5t-59 -91.5l-26 -63l-54 14v133l109 66q116 70 248 70q178 0 250.5 -91.5t72.5 -316.5v-375 q0 -75 10.5 -96t47.5 -23l80 -4v-61zM664 254v270q-244 -36 -320 -82q-46 -30 -74 -80t-28 -106q0 -66 45.5 -115t107.5 -49q60 0 142.5 49.5t126.5 112.5zM823 1042h-71l-248 211l-248 -211h-72l256 342h127z"/>
<glyph unicode="ã" horiz-adv-x="1024" d="M965 -6q-77 6 -152 6q-81 0 -160 -6l11 174l-254 -176q-24 -17 -86 -17q-122 0 -190 66t-68 186q0 134 93 211t302 115l203 37q-5 140 -69.5 201t-209.5 61q-71 0 -99 -19.5t-59 -91.5l-26 -63l-54 14v133l109 66q116 70 248 70q178 0 250.5 -91.5t72.5 -316.5v-375 q0 -75 10.5 -96t47.5 -23l80 -4v-61zM664 254v270q-244 -36 -320 -82q-46 -30 -74 -80t-28 -106q0 -66 45.5 -115t107.5 -49q60 0 142.5 49.5t126.5 112.5zM842 1321q-6 -89 -71 -152t-153 -63q-62 0 -139 39q-109 53 -145 53q-70 0 -109 -92h-59q22 100 77 152.5t140 52.5 q36 0 67.5 -11t114.5 -51q64 -30 97 -30q43 0 70 22.5t50 79.5h60z"/>
<glyph unicode="ä" horiz-adv-x="1024" d="M965 -6q-77 6 -152 6q-81 0 -160 -6l11 174l-254 -176q-24 -17 -86 -17q-122 0 -190 66t-68 186q0 134 93 211t302 115l203 37q-5 140 -69.5 201t-209.5 61q-71 0 -99 -19.5t-59 -91.5l-26 -63l-54 14v133l109 66q116 70 248 70q178 0 250.5 -91.5t72.5 -316.5v-375 q0 -75 10.5 -96t47.5 -23l80 -4v-61zM664 254v270q-244 -36 -320 -82q-46 -30 -74 -80t-28 -106q0 -66 45.5 -115t107.5 -49q60 0 142.5 49.5t126.5 112.5zM401 1212q0 -46 -28 -74t-74 -28t-74 28t-28 74t28.5 74.5t75.5 28.5q44 0 72 -29t28 -74zM809 1212q0 -46 -28 -74 t-74 -28t-74.5 28t-28.5 74t29 74.5t76 28.5q44 0 72 -29t28 -74z"/>
<glyph unicode="å" horiz-adv-x="1024" d="M965 -6q-77 6 -152 6q-81 0 -160 -6l11 174l-254 -176q-24 -17 -86 -17q-122 0 -190 66t-68 186q0 134 93 211t302 115l203 37q-5 140 -69.5 201t-209.5 61q-71 0 -99 -19.5t-59 -91.5l-26 -63l-54 14v133l109 66q116 70 248 70q178 0 250.5 -91.5t72.5 -316.5v-375 q0 -75 10.5 -96t47.5 -23l80 -4v-61zM664 254v270q-244 -36 -320 -82q-46 -30 -74 -80t-28 -106q0 -66 45.5 -115t107.5 -49q60 0 142.5 49.5t126.5 112.5zM709 1212q0 -86 -60 -145t-145 -59q-86 0 -145.5 59t-59.5 147q0 85 60.5 144t148.5 59q82 0 141.5 -60.5 t59.5 -144.5zM631 1212q0 58 -34.5 94.5t-90.5 36.5q-58 0 -93.5 -35.5t-35.5 -93.5q0 -61 34 -97t93 -36q57 0 92 36t35 95z"/>
<glyph unicode="æ" horiz-adv-x="1552" d="M1499 569q0 -11 -4 -69q-178 -29 -371 -29h-299q3 -89 15 -141t41 -103q42 -76 122.5 -117.5t182.5 -41.5q67 0 121.5 19.5t146.5 76.5l29 -21l-41 -69q-14 -22 -103 -60q-125 -55 -241 -55q-86 0 -165 29t-138 80q-51 47 -90 114l-252 -196q-34 -27 -113 -27 q-127 0 -203 70.5t-76 189.5q0 135 84 201q46 34 160.5 65.5t243.5 44.5l115 13q-5 91 -16 136.5t-40 86.5q-28 40 -75 63t-101 23q-53 0 -110 -16.5t-76 -38.5q-28 -32 -51 -119l-54 12v127l201 109q63 35 145 35q99 0 169 -34.5t130 -111.5q100 83 171 114.5t159 31.5 q107 0 195.5 -47.5t138.5 -131.5q49 -84 49 -213zM664 240v237q-123 -13 -165.5 -20.5t-109.5 -26.5q-92 -27 -115 -59q-36 -52 -36 -121q0 -74 45.5 -116t126.5 -42q72 0 129.5 33t124.5 115zM1329 547q0 79 -10 127t-37 98q-34 63 -76.5 92t-101.5 29q-62 0 -119.5 -28.5 t-93.5 -76.5q-31 -43 -45 -95.5t-17 -139.5q157 -14 261 -12z"/>
<glyph unicode="ç" horiz-adv-x="909" d="M846 94l-43 -65q-15 -23 -99.5 -45.5t-152.5 -24.5l-43 -113q30 9 53 9q81 0 128.5 -39t47.5 -105q0 -80 -68 -126t-186 -46q-44 0 -75 6t-97 27l29 63q81 -22 135 -22q53 0 81 22.5t28 65.5q0 35 -22.5 57.5t-59.5 22.5q-29 0 -84 -14l-15 12l78 182q-192 15 -310 144 t-118 325q0 278 223 418q183 113 332 113q118 0 238 -72q-29 -119 -29 -252h-57l-15 125q-28 40 -92 66t-133 26q-138 0 -212.5 -89t-74.5 -253q0 -202 103.5 -324t273.5 -122q103 0 215 59z"/>
<glyph unicode="è" horiz-adv-x="980" d="M918 571q0 -11 -1 -21.5t-2 -25t-2 -24.5q-178 -29 -370 -29h-299q3 -89 15.5 -141t41.5 -103q43 -75 122 -117t179 -42q65 0 116 18.5t150 77.5l27 -21l-41 -69q-6 -10 -36.5 -28t-69.5 -34q-120 -53 -236 -53t-214.5 45.5t-158.5 126.5q-86 118 -86 318q0 160 55 262 t181 174q130 76 248 76q172 0 276.5 -106.5t104.5 -283.5zM735 547q0 99 -14.5 154.5t-50.5 109.5q-55 82 -158 82q-74 0 -135.5 -39t-93.5 -106q-20 -40 -27.5 -81.5t-7.5 -113.5q133 -12 258 -12zM719 1036h-82l-295 185q-51 32 -66.5 50t-15.5 46q0 29 19 49t45 20 q45 0 112 -67z"/>
<glyph unicode="é" horiz-adv-x="980" d="M918 571q0 -11 -1 -21.5t-2 -25t-2 -24.5q-178 -29 -370 -29h-299q3 -89 15.5 -141t41.5 -103q43 -75 122 -117t179 -42q65 0 116 18.5t150 77.5l27 -21l-41 -69q-6 -10 -36.5 -28t-69.5 -34q-120 -53 -236 -53t-214.5 45.5t-158.5 126.5q-86 118 -86 318q0 160 55 262 t181 174q130 76 248 76q172 0 276.5 -106.5t104.5 -283.5zM735 547q0 99 -14.5 154.5t-50.5 109.5q-55 82 -158 82q-74 0 -135.5 -39t-93.5 -106q-20 -40 -27.5 -81.5t-7.5 -113.5q133 -12 258 -12zM813 1317q0 -28 -15.5 -46t-66.5 -50l-295 -185h-82l283 283q67 67 113 67 q26 0 44.5 -20t18.5 -49z"/>
<glyph unicode="ê" horiz-adv-x="980" d="M918 571q0 -11 -1 -21.5t-2 -25t-2 -24.5q-178 -29 -370 -29h-299q3 -89 15.5 -141t41.5 -103q43 -75 122 -117t179 -42q65 0 116 18.5t150 77.5l27 -21l-41 -69q-6 -10 -36.5 -28t-69.5 -34q-120 -53 -236 -53t-214.5 45.5t-158.5 126.5q-86 118 -86 318q0 160 55 262 t181 174q130 76 248 76q172 0 276.5 -106.5t104.5 -283.5zM735 547q0 99 -14.5 154.5t-50.5 109.5q-55 82 -158 82q-74 0 -135.5 -39t-93.5 -106q-20 -40 -27.5 -81.5t-7.5 -113.5q133 -12 258 -12zM856 1042h-72l-247 211l-248 -211h-72l256 342h127z"/>
<glyph unicode="ë" horiz-adv-x="980" d="M918 571q0 -11 -1 -21.5t-2 -25t-2 -24.5q-178 -29 -370 -29h-299q3 -89 15.5 -141t41.5 -103q43 -75 122 -117t179 -42q65 0 116 18.5t150 77.5l27 -21l-41 -69q-6 -10 -36.5 -28t-69.5 -34q-120 -53 -236 -53t-214.5 45.5t-158.5 126.5q-86 118 -86 318q0 160 55 262 t181 174q130 76 248 76q172 0 276.5 -106.5t104.5 -283.5zM735 547q0 99 -14.5 154.5t-50.5 109.5q-55 82 -158 82q-74 0 -135.5 -39t-93.5 -106q-20 -40 -27.5 -81.5t-7.5 -113.5q133 -12 258 -12zM434 1212q0 -46 -28 -74t-74 -28t-74.5 28t-28.5 74t29 74.5t76 28.5 q44 0 72 -29t28 -74zM842 1212q0 -46 -28.5 -74t-74.5 -28t-74 28t-28 74t28.5 74.5t75.5 28.5q44 0 72.5 -29.5t28.5 -73.5z"/>
<glyph unicode="ì" horiz-adv-x="587" d="M555 -6q-129 6 -256 6t-256 -6v61l94 6q52 3 64 26.5t12 121.5v461q0 72 -6 100.5t-23 38.5t-61 10h-76v58q159 18 320 84l18 -9v-743q0 -98 12 -121.5t64 -26.5l94 -6v-61zM481 1036h-82l-295 185q-51 32 -66 50t-15 46q0 29 18.5 49t44.5 20q46 0 113 -67z"/>
<glyph unicode="í" horiz-adv-x="587" d="M555 -6q-129 6 -256 6t-256 -6v61l94 6q52 3 64 26.5t12 121.5v461q0 72 -6 100.5t-23 38.5t-61 10h-76v58q159 18 320 84l18 -9v-743q0 -98 12 -121.5t64 -26.5l94 -6v-61zM575 1317q0 -28 -15 -46t-66 -50l-295 -185h-82l282 283q67 67 113 67q26 0 44.5 -20t18.5 -49z "/>
<glyph unicode="î" horiz-adv-x="587" d="M555 -6q-129 6 -256 6t-256 -6v61l94 6q52 3 64 26.5t12 121.5v461q0 72 -6 100.5t-23 38.5t-61 10h-76v58q159 18 320 84l18 -9v-743q0 -98 12 -121.5t64 -26.5l94 -6v-61zM618 1042h-71l-248 211l-248 -211h-71l256 342h126z"/>
<glyph unicode="ï" horiz-adv-x="587" d="M555 -6q-129 6 -256 6t-256 -6v61l94 6q52 3 64 26.5t12 121.5v461q0 72 -6 100.5t-23 38.5t-61 10h-76v58q159 18 320 84l18 -9v-743q0 -98 12 -121.5t64 -26.5l94 -6v-61zM197 1212q0 -46 -28.5 -74t-74.5 -28t-74 28t-28 74t28.5 74.5t75.5 28.5q44 0 72.5 -29.5 t28.5 -73.5zM604 1212q0 -46 -28 -74t-74 -28t-74.5 28t-28.5 74t29 74.5t76 28.5q44 0 72 -29t28 -74z"/>
<glyph unicode="ð" horiz-adv-x="1118" d="M1032 537q0 -258 -142 -418t-370 -160q-204 0 -329 134t-125 351q0 227 137 372t352 145q118 0 219 -52l4 4q-81 181 -200 291l-287 -139l-37 61l278 136q-87 81 -249 163l69 66q113 -68 167.5 -104.5t105.5 -79.5l293 143l36 -61l-268 -132q81 -81 124.5 -134.5 t86.5 -121.5q135 -225 135 -464zM852 492q0 188 -80 288q-93 113 -237 113q-134 0 -206.5 -98t-72.5 -279q0 -215 84.5 -352t216.5 -137q99 0 164 65q62 63 96.5 168.5t34.5 231.5z"/>
<glyph unicode="ñ" horiz-adv-x="1191" d="M1171 -6q-85 6 -170 6q-82 0 -161 -6v581q0 118 -62.5 189.5t-165.5 71.5q-94 0 -177 -62t-83 -131v-434q0 -98 12 -121.5t64 -26.5l92 -6v-61q-126 6 -254 6t-254 -6v61l92 6q52 3 64 26.5t12 121.5v461q0 72 -6 100.5t-23 38.5t-61 10h-76v58q159 18 320 84l18 -9v-178 l156 135q60 52 162 52q342 0 342 -357v-395q0 -99 11.5 -122t63.5 -26l84 -6v-61zM934 1321q-6 -90 -71 -152.5t-152 -62.5q-63 0 -140 39q-109 53 -145 53q-70 0 -109 -92h-59q22 100 77 152.5t140 52.5q36 0 67.5 -11t114.5 -51q64 -30 97 -30q43 0 70 22.5t50 79.5h60z "/>
<glyph unicode="ò" horiz-adv-x="1118" d="M1053 485q0 -230 -152.5 -378t-388.5 -148q-198 0 -322 134.5t-124 350.5q0 229 140.5 373t364.5 144q210 0 346 -134.5t136 -341.5zM862 410q0 209 -93 346t-234 137q-135 0 -207 -97.5t-72 -281.5q0 -218 92.5 -352.5t243.5 -134.5q125 0 197.5 103t72.5 280zM754 1036 h-82l-295 185q-51 32 -66.5 50t-15.5 46q0 29 18.5 49t44.5 20q46 0 113 -67z"/>
<glyph unicode="ó" horiz-adv-x="1118" d="M1053 485q0 -230 -152.5 -378t-388.5 -148q-198 0 -322 134.5t-124 350.5q0 229 140.5 373t364.5 144q210 0 346 -134.5t136 -341.5zM862 410q0 209 -93 346t-234 137q-135 0 -207 -97.5t-72 -281.5q0 -218 92.5 -352.5t243.5 -134.5q125 0 197.5 103t72.5 280zM848 1317 q0 -28 -15.5 -46t-66.5 -50l-295 -185h-82l283 283q67 67 112 67q26 0 45 -20t19 -49z"/>
<glyph unicode="ô" horiz-adv-x="1118" d="M1053 485q0 -230 -152.5 -378t-388.5 -148q-198 0 -322 134.5t-124 350.5q0 229 140.5 373t364.5 144q210 0 346 -134.5t136 -341.5zM862 410q0 209 -93 346t-234 137q-135 0 -207 -97.5t-72 -281.5q0 -218 92.5 -352.5t243.5 -134.5q125 0 197.5 103t72.5 280zM891 1042 h-72l-248 211l-247 -211h-72l256 342h127z"/>
<glyph unicode="õ" horiz-adv-x="1118" d="M1053 485q0 -230 -152.5 -378t-388.5 -148q-198 0 -322 134.5t-124 350.5q0 229 140.5 373t364.5 144q210 0 346 -134.5t136 -341.5zM862 410q0 209 -93 346t-234 137q-135 0 -207 -97.5t-72 -281.5q0 -218 92.5 -352.5t243.5 -134.5q125 0 197.5 103t72.5 280zM909 1321 q-6 -90 -71 -152.5t-152 -62.5q-62 0 -139 39q-109 53 -146 53q-69 0 -108 -92h-60q22 100 77.5 152.5t140.5 52.5q36 0 67.5 -11t114.5 -51q64 -30 96 -30q43 0 70.5 23t50.5 79h59z"/>
<glyph unicode="ö" horiz-adv-x="1118" d="M1053 485q0 -230 -152.5 -378t-388.5 -148q-198 0 -322 134.5t-124 350.5q0 229 140.5 373t364.5 144q210 0 346 -134.5t136 -341.5zM862 410q0 209 -93 346t-234 137q-135 0 -207 -97.5t-72 -281.5q0 -218 92.5 -352.5t243.5 -134.5q125 0 197.5 103t72.5 280zM469 1212 q0 -46 -28 -74t-74 -28t-74.5 28t-28.5 74t29 74.5t76 28.5q44 0 72 -29t28 -74zM877 1212q0 -46 -28.5 -74t-74.5 -28t-74 28t-28 74t28.5 74.5t75.5 28.5q44 0 72.5 -29.5t28.5 -73.5z"/>
<glyph unicode="÷" horiz-adv-x="1241" d="M1159 455h-1077v114h1077v-114zM739 866q0 -50 -34.5 -84t-83.5 -34q-50 0 -84.5 34.5t-34.5 83.5q0 50 35 84.5t84 34.5t83.5 -34.5t34.5 -84.5zM739 158q0 -50 -34.5 -84.5t-83.5 -34.5t-84 34.5t-35 84.5q0 49 34.5 83.5t84.5 34.5q49 0 83.5 -34t34.5 -84z"/>
<glyph unicode="ø" horiz-adv-x="1138" d="M1085 920l-129 -125q58 -78 82.5 -148t24.5 -160q0 -229 -151.5 -378.5t-383.5 -149.5q-97 0 -167.5 26.5t-143.5 90.5l-127 -123l-57 47l137 131q-51 78 -72.5 149t-21.5 162q0 227 144 373t370 146q94 0 165.5 -26t147.5 -87l127 123zM872 403q0 125 -45 267l-487 -475 q52 -88 114.5 -128t145.5 -40q123 0 197.5 103t74.5 273zM795 741q-101 152 -252 152q-132 0 -204.5 -97t-72.5 -272q0 -128 41 -258z"/>
<glyph unicode="ù" horiz-adv-x="1234" d="M1190 -6q-86 6 -170 6q-85 0 -170 -6q8 128 8 188l-137 -127q-86 -80 -229 -80q-171 0 -240 93q-28 38 -38.5 94.5t-10.5 163.5v344q0 72 -6 100.5t-23 38.5t-61 10h-76v58q158 17 319 84l19 -9v-604q0 -137 43 -186q52 -62 162 -62q116 0 202 86q35 35 55.5 75.5 t20.5 74.5v334q0 72 -6 100.5t-23 38.5t-61 10h-76v58q159 18 320 84l18 -9v-743q0 -99 12 -122t64 -26l84 -6v-61zM799 1036h-82l-295 185q-51 32 -66.5 50t-15.5 46q0 29 18.5 49t44.5 20q46 0 113 -67z"/>
<glyph unicode="ú" horiz-adv-x="1234" d="M1190 -6q-86 6 -170 6q-85 0 -170 -6q8 128 8 188l-137 -127q-86 -80 -229 -80q-171 0 -240 93q-28 38 -38.5 94.5t-10.5 163.5v344q0 72 -6 100.5t-23 38.5t-61 10h-76v58q158 17 319 84l19 -9v-604q0 -137 43 -186q52 -62 162 -62q116 0 202 86q35 35 55.5 75.5 t20.5 74.5v334q0 72 -6 100.5t-23 38.5t-61 10h-76v58q159 18 320 84l18 -9v-743q0 -99 12 -122t64 -26l84 -6v-61zM893 1317q0 -28 -15.5 -46t-66.5 -50l-295 -185h-82l283 283q67 67 112 67q26 0 45 -20t19 -49z"/>
<glyph unicode="û" horiz-adv-x="1234" d="M1190 -6q-86 6 -170 6q-85 0 -170 -6q8 128 8 188l-137 -127q-86 -80 -229 -80q-171 0 -240 93q-28 38 -38.5 94.5t-10.5 163.5v344q0 72 -6 100.5t-23 38.5t-61 10h-76v58q158 17 319 84l19 -9v-604q0 -137 43 -186q52 -62 162 -62q116 0 202 86q35 35 55.5 75.5 t20.5 74.5v334q0 72 -6 100.5t-23 38.5t-61 10h-76v58q159 18 320 84l18 -9v-743q0 -99 12 -122t64 -26l84 -6v-61zM936 1042h-72l-248 211l-247 -211h-72l256 342h127z"/>
<glyph unicode="ü" horiz-adv-x="1234" d="M1190 -6q-86 6 -170 6q-85 0 -170 -6q8 128 8 188l-137 -127q-86 -80 -229 -80q-171 0 -240 93q-28 38 -38.5 94.5t-10.5 163.5v344q0 72 -6 100.5t-23 38.5t-61 10h-76v58q158 17 319 84l19 -9v-604q0 -137 43 -186q52 -62 162 -62q116 0 202 86q35 35 55.5 75.5 t20.5 74.5v334q0 72 -6 100.5t-23 38.5t-61 10h-76v58q159 18 320 84l18 -9v-743q0 -99 12 -122t64 -26l84 -6v-61zM514 1212q0 -46 -28 -74t-74 -28t-74.5 28t-28.5 74t29 74.5t76 28.5q44 0 72 -29t28 -74zM922 1212q0 -46 -28.5 -74t-74.5 -28t-74 28t-28 74t28.5 74.5 t75.5 28.5q44 0 72.5 -29.5t28.5 -73.5z"/>
<glyph unicode="ý" horiz-adv-x="1138" d="M1114 883l-57 -4q-38 -3 -74 -55.5t-98 -192.5l-416 -959q-59 -134 -129.5 -193t-173.5 -59q-51 0 -111 31l49 154h27q53 -47 105 -47q58 0 115.5 69.5t107.5 198.5l47 125l-338 827q-21 53 -44.5 74.5t-62.5 26.5l-36 4v57q120 -6 237 -6q118 0 238 6v-57l-78 -4 q-58 -3 -67.5 -35t18.5 -99l131 -344q54 -138 104 -225l244 598q23 56 7 78t-81 27l-53 4v57q99 -6 195 -6q95 0 194 6v-57zM889 1317q0 -28 -15.5 -46t-66.5 -50l-295 -185h-82l283 283q67 67 112 67q26 0 45 -20t19 -49z"/>
<glyph unicode="þ" horiz-adv-x="1230" d="M1114 547q0 -107 -48 -219.5t-114 -159.5l-204 -148q-62 -45 -168 -45q-113 0 -242 52v-387q0 -98 12 -121.5t64 -26.5l94 -6v-61q-129 6 -256 6t-256 -6v61l94 6q52 3 64 26.5t12 121.5v1630q0 46 -11.5 65t-39.5 19h-115v57q121 19 186 34.5t133 41.5l19 -17v-714 l113 114q40 40 109 65.5t140 25.5q172 0 293 -121t121 -293zM936 471q0 166 -84.5 261t-230.5 95q-158 0 -246 -114q-37 -48 -37 -86v-426q62 -65 125.5 -93t150.5 -28q149 0 235.5 105.5t86.5 285.5z"/>
<glyph unicode="ÿ" horiz-adv-x="1138" d="M1114 883l-57 -4q-38 -3 -74 -55.5t-98 -192.5l-416 -959q-59 -134 -129.5 -193t-173.5 -59q-51 0 -111 31l49 154h27q53 -47 105 -47q58 0 115.5 69.5t107.5 198.5l47 125l-338 827q-21 53 -44.5 74.5t-62.5 26.5l-36 4v57q120 -6 237 -6q118 0 238 6v-57l-78 -4 q-58 -3 -67.5 -35t18.5 -99l131 -344q54 -138 104 -225l244 598q23 56 7 78t-81 27l-53 4v57q99 -6 195 -6q95 0 194 6v-57zM510 1212q0 -46 -28 -74t-74 -28t-74.5 28t-28.5 74t29 74.5t76 28.5q44 0 72 -29t28 -74zM918 1212q0 -46 -28.5 -74t-74.5 -28t-74 28t-28 74 t28.5 74.5t75.5 28.5q44 0 72.5 -29.5t28.5 -73.5z"/>
<glyph unicode="Ā" horiz-adv-x="1593" d="M1548 -6q-129 6 -260 6q-143 0 -284 -6v61l96 6q84 7 84 41q0 25 -43 131l-94 236h-590l-58 -137q-71 -168 -71 -217q0 -25 22 -37.5t76 -16.5l76 -6v-61q-123 6 -248 6q-112 0 -223 -6v61l75 6q68 6 111 101l453 1028q35 77 60 138t32 84l8 22h66l495 -1164 q56 -128 82.5 -167t65.5 -42l69 -6v-61zM1010 551l-258 610l-260 -610h518zM1124 1624h-639v109h639v-109z"/>
<glyph unicode="ā" horiz-adv-x="1024" d="M965 -6q-77 6 -152 6q-81 0 -160 -6l11 174l-254 -176q-24 -17 -86 -17q-122 0 -190 66t-68 186q0 134 93 211t302 115l203 37q-5 140 -69.5 201t-209.5 61q-71 0 -99 -19.5t-59 -91.5l-26 -63l-54 14v133l109 66q116 70 248 70q178 0 250.5 -91.5t72.5 -316.5v-375 q0 -75 10.5 -96t47.5 -23l80 -4v-61zM664 254v270q-244 -36 -320 -82q-46 -30 -74 -80t-28 -106q0 -66 45.5 -115t107.5 -49q60 0 142.5 49.5t126.5 112.5zM823 1159h-639v109h639v-109z"/>
<glyph unicode="Ă" horiz-adv-x="1593" d="M1548 -6q-129 6 -260 6q-143 0 -284 -6v61l96 6q84 7 84 41q0 25 -43 131l-94 236h-590l-58 -137q-71 -168 -71 -217q0 -25 22 -37.5t76 -16.5l76 -6v-61q-123 6 -248 6q-112 0 -223 -6v61l75 6q68 6 111 101l453 1028q35 77 60 138t32 84l8 22h66l495 -1164 q56 -128 82.5 -167t65.5 -42l69 -6v-61zM1010 551l-258 610l-260 -610h518zM1114 1810q-9 -127 -92.5 -195.5t-220.5 -68.5t-221 68.5t-91 195.5h66q6 -72 74.5 -117.5t171.5 -45.5q104 0 172.5 45.5t73.5 117.5h67z"/>
<glyph unicode="ă" horiz-adv-x="1024" d="M965 -6q-77 6 -152 6q-81 0 -160 -6l11 174l-254 -176q-24 -17 -86 -17q-122 0 -190 66t-68 186q0 134 93 211t302 115l203 37q-5 140 -69.5 201t-209.5 61q-71 0 -99 -19.5t-59 -91.5l-26 -63l-54 14v133l109 66q116 70 248 70q178 0 250.5 -91.5t72.5 -316.5v-375 q0 -75 10.5 -96t47.5 -23l80 -4v-61zM664 254v270q-244 -36 -320 -82q-46 -30 -74 -80t-28 -106q0 -66 45.5 -115t107.5 -49q60 0 142.5 49.5t126.5 112.5zM793 1374q-3 -66 -14 -107t-36 -83q-37 -64 -99 -98.5t-140 -34.5q-172 0 -248 145q-36 70 -41 178h61 q4 -88 68.5 -144t159.5 -56t158.5 56t68.5 144h62z"/>
<glyph unicode="Ą" horiz-adv-x="1593" d="M1548 -395l-75 -66q-60 -51 -187 -51q-85 0 -132.5 57.5t-47.5 130.5q0 89 59 174.5t152 149.5h-29l-284 -6v61l96 6q84 7 84 41q0 25 -43 131l-94 236h-590l-58 -137q-71 -168 -71 -217q0 -25 22 -37.5t76 -16.5l76 -6v-61q-123 6 -248 6q-112 0 -223 -6v61l75 6 q68 6 111 101l453 1028q35 77 60 138t32 84l8 22h66l495 -1164q56 -128 82.5 -167t65.5 -42l69 -6v-61l-78 4q-92 2 -178 -133q-45 -72 -45 -135q0 -72 28.5 -110t70.5 -38q46 0 84.5 23t48.5 63l16 64l53 -15v-112zM1010 551l-258 610l-260 -610h518z"/>
<glyph unicode="ą" horiz-adv-x="1024" d="M965 -395l-76 -66q-60 -51 -187 -51q-85 0 -132.5 57.5t-47.5 130.5q0 88 58 173.5t151 148.5l-78 -4l11 174l-254 -176q-24 -17 -86 -17q-122 0 -190 66t-68 186q0 134 93 211t302 115l203 37q-5 140 -69.5 201t-209.5 61q-71 0 -99 -19.5t-59 -91.5l-26 -63l-54 14v133 l109 66q116 70 248 70q178 0 250.5 -91.5t72.5 -316.5v-375q0 -75 10.5 -96t47.5 -23l80 -4v-61l-62 4q-91 5 -172 -102q-67 -88 -67 -166q0 -72 28.5 -110t69.5 -38q46 0 84.5 23t48.5 63l16 64l54 -15v-112zM664 254v270q-244 -36 -320 -82q-46 -30 -74 -80t-28 -106 q0 -66 45.5 -115t107.5 -49q60 0 142.5 49.5t126.5 112.5z"/>
<glyph unicode="Ć" horiz-adv-x="1452" d="M1372 172l-57 -102q-211 -111 -465 -111q-238 0 -421 92.5t-283.5 261t-100.5 387.5q0 207 90.5 366.5t265.5 262.5q211 123 486 123q217 0 473 -84q-36 -169 -39 -311h-64v147q0 39 -59.5 77t-154.5 61.5t-193 23.5q-264 0 -425 -172t-161 -455q0 -302 183 -485.5 t483 -183.5q234 0 424 123zM1085 1763q0 -23 -17 -38.5t-71 -41.5l-319 -149h-88l305 231q68 51 123 54q28 0 47.5 -16.5t19.5 -39.5z"/>
<glyph unicode="ć" horiz-adv-x="909" d="M846 94l-43 -65q-15 -23 -108.5 -46.5t-172.5 -23.5q-206 0 -337.5 132t-131.5 339q0 135 56 241t163 173q184 117 336 117q118 0 238 -72q-29 -119 -29 -252h-57l-15 125q-28 38 -93 65t-132 27q-138 0 -212.5 -89t-74.5 -253q0 -202 103.5 -324t273.5 -122 q106 0 215 59zM797 1317q0 -28 -15.5 -46t-66.5 -50l-295 -185h-82l283 283q67 67 112 67q26 0 45 -20t19 -49z"/>
<glyph unicode="Ĉ" horiz-adv-x="1452" d="M1372 172l-57 -102q-211 -111 -465 -111q-238 0 -421 92.5t-283.5 261t-100.5 387.5q0 207 90.5 366.5t265.5 262.5q211 123 486 123q217 0 473 -84q-36 -169 -39 -311h-64v147q0 39 -59.5 77t-154.5 61.5t-193 23.5q-264 0 -425 -172t-161 -455q0 -302 183 -485.5 t483 -183.5q234 0 424 123zM1149 1540h-78l-268 172l-268 -172h-76l274 277h139z"/>
<glyph unicode="ĉ" horiz-adv-x="909" d="M846 94l-43 -65q-15 -23 -108.5 -46.5t-172.5 -23.5q-206 0 -337.5 132t-131.5 339q0 135 56 241t163 173q184 117 336 117q118 0 238 -72q-29 -119 -29 -252h-57l-15 125q-28 38 -93 65t-132 27q-138 0 -212.5 -89t-74.5 -253q0 -202 103.5 -324t273.5 -122 q106 0 215 59zM840 1042h-72l-248 211l-248 -211h-71l256 342h127z"/>
<glyph unicode="Ċ" horiz-adv-x="1452" d="M1372 172l-57 -102q-211 -111 -465 -111q-238 0 -421 92.5t-283.5 261t-100.5 387.5q0 207 90.5 366.5t265.5 262.5q211 123 486 123q217 0 473 -84q-36 -169 -39 -311h-64v147q0 39 -59.5 77t-154.5 61.5t-193 23.5q-264 0 -425 -172t-161 -455q0 -302 183 -485.5 t483 -183.5q234 0 424 123zM907 1677q0 -46 -28 -74t-74 -28t-74.5 28t-28.5 74t29 74.5t76 28.5q44 0 72 -29t28 -74z"/>
<glyph unicode="ċ" horiz-adv-x="909" d="M846 94l-43 -65q-15 -23 -108.5 -46.5t-172.5 -23.5q-206 0 -337.5 132t-131.5 339q0 135 56 241t163 173q184 117 336 117q118 0 238 -72q-29 -119 -29 -252h-57l-15 125q-28 38 -93 65t-132 27q-138 0 -212.5 -89t-74.5 -253q0 -202 103.5 -324t273.5 -122 q106 0 215 59zM623 1212q0 -46 -28.5 -74t-74.5 -28t-74 28t-28 74t28.5 74.5t75.5 28.5q44 0 72.5 -29.5t28.5 -73.5z"/>
<glyph unicode="Č" horiz-adv-x="1452" d="M1372 172l-57 -102q-211 -111 -465 -111q-238 0 -421 92.5t-283.5 261t-100.5 387.5q0 207 90.5 366.5t265.5 262.5q211 123 486 123q217 0 473 -84q-36 -169 -39 -311h-64v147q0 39 -59.5 77t-154.5 61.5t-193 23.5q-264 0 -425 -172t-161 -455q0 -302 183 -485.5 t483 -183.5q234 0 424 123zM1149 1817l-275 -277h-139l-276 277h78l268 -172l268 172h76z"/>
<glyph unicode="č" horiz-adv-x="909" d="M846 94l-43 -65q-15 -23 -108.5 -46.5t-172.5 -23.5q-206 0 -337.5 132t-131.5 339q0 135 56 241t163 173q184 117 336 117q118 0 238 -72q-29 -119 -29 -252h-57l-15 125q-28 38 -93 65t-132 27q-138 0 -212.5 -89t-74.5 -253q0 -202 103.5 -324t273.5 -122 q106 0 215 59zM840 1384l-256 -342h-127l-256 342h71l248 -210l250 210h70z"/>
<glyph unicode="Ď" horiz-adv-x="1585" d="M1538 788q0 -164 -63.5 -320t-174.5 -265q-212 -209 -602 -209q-49 0 -148.5 3t-148.5 3q-143 0 -284 -6v47l63 33q51 25 51 121v970q0 120 -17 150.5t-87 34.5l-82 6v61q212 -6 422 -6q59 0 177.5 3t178.5 3q324 0 519.5 -171.5t195.5 -457.5zM1319 735q0 306 -145 451 q-149 149 -521 149q-142 0 -227 -16v-1219q71 -16 211 -16q173 0 279 30t198 105q205 169 205 516zM1042 1817l-274 -277h-139l-277 277h78l268 -172l269 172h75z"/>
<glyph unicode="ď" horiz-adv-x="1251" d="M1186 -6q-92 6 -187 6q-78 0 -157 -6l10 188l-227 -190q-8 -6 -38.5 -11.5t-60.5 -5.5q-197 0 -299 86q-75 62 -115 160t-40 221q0 130 52 234.5t140 150.5l180 95q74 39 156 39q53 0 104.5 -14t139.5 -52v375q0 46 -11.5 65t-39.5 19h-115v57q121 19 186 34.5t133 41.5 l19 -17v-1261q0 -98 12 -121.5t64 -26.5l94 -6v-61zM844 453v264q0 25 -68 71q-112 76 -231 76q-138 0 -216.5 -93.5t-78.5 -260.5q0 -183 87 -300.5t222 -117.5q72 0 141.5 44t112.5 116q20 36 25.5 69t5.5 132zM1389 1464q-39 -103 -79 -170t-116 -166l-72 -38l-24 18 q56 92 77.5 158.5t30.5 169.5q57 17 162 51z"/>
<glyph unicode="Đ" horiz-adv-x="1585" d="M1538 788q0 -164 -63.5 -320t-174.5 -265q-212 -209 -602 -209q-49 0 -148.5 3t-148.5 3q-143 0 -284 -6v47l63 33q51 25 51 121v514h-202v73h202v383q0 120 -17 150.5t-87 34.5l-82 6v61q212 -6 422 -6q59 0 177.5 3t178.5 3q324 0 519.5 -171.5t195.5 -457.5zM1319 735 q0 306 -145 451q-149 149 -521 149q-142 0 -227 -16v-537h377v-73h-377v-609q71 -16 211 -16q173 0 279 30t198 105q205 169 205 516z"/>
<glyph unicode="đ" horiz-adv-x="1251" d="M1186 -6q-17 1 -40.5 1.5t-38 1t-20.5 1.5q-43 2 -88 2l-157 -6l10 188l-227 -190q-8 -6 -38.5 -11.5t-60.5 -5.5q-197 0 -299 86q-75 62 -115 160t-40 221q0 130 52 234.5t140 150.5l180 95q74 39 156 39q53 0 104.5 -14t139.5 -52v242h-297v73h297v60q0 46 -11.5 65 t-39.5 19h-115v57q121 19 186 34.5t133 41.5l19 -17v-260h170v-73h-170v-928q0 -98 12 -121.5t64 -26.5l94 -6v-61zM844 453v264q0 25 -68 71q-112 76 -231 76q-138 0 -216.5 -93.5t-78.5 -260.5q0 -183 87 -300.5t222 -117.5q72 0 141.5 44t112.5 116q20 36 25.5 69 t5.5 132z"/>
<glyph unicode="Ē" horiz-adv-x="1251" d="M1171 336q-32 -170 -32 -336l-342 -6q-237 6 -475 6q-126 0 -252 -6v61l73 6q32 3 48.5 7.5t29.5 13.5t18 31.5t7 51t2 81.5v919q0 65 -2.5 97t-15 53.5t-31 27t-56.5 7.5l-98 6v61q181 -6 365 -6q238 0 475 6l254 -6q-33 -129 -33 -311h-72v133q0 36 -9.5 48t-45.5 22 q-103 28 -297 28q-107 0 -150 -3t-90 -13v-547q120 -8 328 -8q72 0 102 14t41 64q4 17 7 43.5t4 44.5v18h61q-6 -120 -6 -237q0 -114 6 -228h-61q-3 76 -11 121q-10 48 -40 62t-103 14l-328 -6v-574q79 -16 203 -16q303 0 377 24q22 8 40.5 52t27.5 110l10 70h71zM946 1624 h-639v109h639v-109z"/>
<glyph unicode="ē" horiz-adv-x="980" d="M918 571q0 -11 -1 -21.5t-2 -25t-2 -24.5q-178 -29 -370 -29h-299q3 -89 15.5 -141t41.5 -103q43 -75 122 -117t179 -42q65 0 116 18.5t150 77.5l27 -21l-41 -69q-6 -10 -36.5 -28t-69.5 -34q-120 -53 -236 -53t-214.5 45.5t-158.5 126.5q-86 118 -86 318q0 160 55 262 t181 174q130 76 248 76q172 0 276.5 -106.5t104.5 -283.5zM735 547q0 99 -14.5 154.5t-50.5 109.5q-55 82 -158 82q-74 0 -135.5 -39t-93.5 -106q-20 -40 -27.5 -81.5t-7.5 -113.5q133 -12 258 -12zM856 1159h-639v109h639v-109z"/>
<glyph unicode="Ĕ" horiz-adv-x="1251" d="M1171 336q-32 -170 -32 -336l-342 -6q-237 6 -475 6q-126 0 -252 -6v61l73 6q32 3 48.5 7.5t29.5 13.5t18 31.5t7 51t2 81.5v919q0 65 -2.5 97t-15 53.5t-31 27t-56.5 7.5l-98 6v61q181 -6 365 -6q238 0 475 6l254 -6q-33 -129 -33 -311h-72v133q0 36 -9.5 48t-45.5 22 q-103 28 -297 28q-107 0 -150 -3t-90 -13v-547q120 -8 328 -8q72 0 102 14t41 64q4 17 7 43.5t4 44.5v18h61q-6 -120 -6 -237q0 -114 6 -228h-61q-3 76 -11 121q-10 48 -40 62t-103 14l-328 -6v-574q79 -16 203 -16q303 0 377 24q22 8 40.5 52t27.5 110l10 70h71zM938 1810 q-9 -127 -92.5 -195.5t-220.5 -68.5t-221 68.5t-91 195.5h66q6 -72 74.5 -117.5t171.5 -45.5q104 0 172 45.5t73 117.5h68z"/>
<glyph unicode="ĕ" horiz-adv-x="980" d="M918 571q0 -11 -1 -21.5t-2 -25t-2 -24.5q-178 -29 -370 -29h-299q3 -89 15.5 -141t41.5 -103q43 -75 122 -117t179 -42q65 0 116 18.5t150 77.5l27 -21l-41 -69q-6 -10 -36.5 -28t-69.5 -34q-120 -53 -236 -53t-214.5 45.5t-158.5 126.5q-86 118 -86 318q0 160 55 262 t181 174q130 76 248 76q172 0 276.5 -106.5t104.5 -283.5zM735 547q0 99 -14.5 154.5t-50.5 109.5q-55 82 -158 82q-74 0 -135.5 -39t-93.5 -106q-20 -40 -27.5 -81.5t-7.5 -113.5q133 -12 258 -12zM825 1374q-3 -67 -13.5 -108t-35.5 -82q-37 -64 -99 -98.5t-140 -34.5 q-172 0 -248 145q-36 70 -41 178h61q4 -88 68.5 -144t159.5 -56t158.5 56t68.5 144h61z"/>
<glyph unicode="Ė" horiz-adv-x="1251" d="M1171 336q-32 -170 -32 -336l-342 -6q-237 6 -475 6q-126 0 -252 -6v61l73 6q32 3 48.5 7.5t29.5 13.5t18 31.5t7 51t2 81.5v919q0 65 -2.5 97t-15 53.5t-31 27t-56.5 7.5l-98 6v61q181 -6 365 -6q238 0 475 6l254 -6q-33 -129 -33 -311h-72v133q0 36 -9.5 48t-45.5 22 q-103 28 -297 28q-107 0 -150 -3t-90 -13v-547q120 -8 328 -8q72 0 102 14t41 64q4 17 7 43.5t4 44.5v18h61q-6 -120 -6 -237q0 -114 6 -228h-61q-3 76 -11 121q-10 48 -40 62t-103 14l-328 -6v-574q79 -16 203 -16q303 0 377 24q22 8 40.5 52t27.5 110l10 70h71zM729 1677 q0 -46 -28 -74t-74 -28t-74.5 28t-28.5 74t29 74.5t76 28.5q44 0 72 -29t28 -74z"/>
<glyph unicode="ė" horiz-adv-x="980" d="M918 571q0 -11 -1 -21.5t-2 -25t-2 -24.5q-178 -29 -370 -29h-299q3 -89 15.5 -141t41.5 -103q43 -75 122 -117t179 -42q65 0 116 18.5t150 77.5l27 -21l-41 -69q-6 -10 -36.5 -28t-69.5 -34q-120 -53 -236 -53t-214.5 45.5t-158.5 126.5q-86 118 -86 318q0 160 55 262 t181 174q130 76 248 76q172 0 276.5 -106.5t104.5 -283.5zM735 547q0 99 -14.5 154.5t-50.5 109.5q-55 82 -158 82q-74 0 -135.5 -39t-93.5 -106q-20 -40 -27.5 -81.5t-7.5 -113.5q133 -12 258 -12zM639 1212q0 -46 -28 -74t-74 -28t-74.5 28t-28.5 74t29 74.5t76 28.5 q44 0 72 -29t28 -74z"/>
<glyph unicode="Ę" horiz-adv-x="1251" d="M1171 336q-32 -170 -32 -336h-2q-165 -4 -240 -104q-68 -89 -68 -166q0 -72 28.5 -110t70.5 -38q46 0 84.5 23t48.5 63l16 64l53 -15v-112l-75 -66q-60 -51 -187 -51q-85 0 -132.5 57.5t-47.5 130.5q0 88 57 172t148 148l-96 -2q-237 6 -475 6q-126 0 -252 -6v61l73 6 q32 3 48.5 7.5t29.5 13.5t18 31.5t7 51t2 81.5v919q0 65 -2.5 97t-15 53.5t-31 27t-56.5 7.5l-98 6v61q181 -6 365 -6q238 0 475 6l254 -6q-33 -129 -33 -311h-72v133q0 36 -9.5 48t-45.5 22q-103 28 -297 28q-107 0 -150 -3t-90 -13v-547q120 -8 328 -8q72 0 102 14t41 64 q4 17 7 43.5t4 44.5v18h61q-6 -120 -6 -237q0 -114 6 -228h-61q-3 76 -11 121q-10 48 -40 62t-103 14l-328 -6v-574q79 -16 203 -16q303 0 377 24q22 8 40.5 52t27.5 110l10 70h71z"/>
<glyph unicode="ę" horiz-adv-x="980" d="M918 571q0 -11 -1 -21.5t-2 -25t-2 -24.5q-178 -29 -370 -29h-299q3 -89 15.5 -141t41.5 -103q43 -75 122 -117t179 -42q65 0 116 18.5t150 77.5l27 -21l-41 -69q-8 -12 -35 -27q-111 -64 -176 -151q-68 -89 -68 -166q0 -72 28.5 -110t70.5 -38q46 0 84.5 23t48.5 63 l16 64l54 -15v-112l-76 -66q-60 -51 -187 -51q-85 0 -132.5 57.5t-47.5 130.5q0 78 45 153.5t121 137.5q-41 -8 -88 -8q-116 0 -214.5 45.5t-158.5 126.5q-86 118 -86 318q0 160 55 262t181 174q130 76 248 76q172 0 276.5 -106.5t104.5 -283.5zM735 547q0 99 -14.5 154.5 t-50.5 109.5q-55 82 -158 82q-74 0 -135.5 -39t-93.5 -106q-20 -40 -27.5 -81.5t-7.5 -113.5q133 -12 258 -12z"/>
<glyph unicode="Ě" horiz-adv-x="1251" d="M1171 336q-32 -170 -32 -336l-342 -6q-237 6 -475 6q-126 0 -252 -6v61l73 6q32 3 48.5 7.5t29.5 13.5t18 31.5t7 51t2 81.5v919q0 65 -2.5 97t-15 53.5t-31 27t-56.5 7.5l-98 6v61q181 -6 365 -6q238 0 475 6l254 -6q-33 -129 -33 -311h-72v133q0 36 -9.5 48t-45.5 22 q-103 28 -297 28q-107 0 -150 -3t-90 -13v-547q120 -8 328 -8q72 0 102 14t41 64q4 17 7 43.5t4 44.5v18h61q-6 -120 -6 -237q0 -114 6 -228h-61q-3 76 -11 121q-10 48 -40 62t-103 14l-328 -6v-574q79 -16 203 -16q303 0 377 24q22 8 40.5 52t27.5 110l10 70h71zM969 1817 l-275 -277h-139l-276 277h77l269 -172l268 172h76z"/>
<glyph unicode="ě" horiz-adv-x="980" d="M918 571q0 -11 -1 -21.5t-2 -25t-2 -24.5q-178 -29 -370 -29h-299q3 -89 15.5 -141t41.5 -103q43 -75 122 -117t179 -42q65 0 116 18.5t150 77.5l27 -21l-41 -69q-6 -10 -36.5 -28t-69.5 -34q-120 -53 -236 -53t-214.5 45.5t-158.5 126.5q-86 118 -86 318q0 160 55 262 t181 174q130 76 248 76q172 0 276.5 -106.5t104.5 -283.5zM735 547q0 99 -14.5 154.5t-50.5 109.5q-55 82 -158 82q-74 0 -135.5 -39t-93.5 -106q-20 -40 -27.5 -81.5t-7.5 -113.5q133 -12 258 -12zM856 1384l-256 -342h-127l-256 342h72l248 -210l249 210h70z"/>
<glyph unicode="Ĝ" horiz-adv-x="1562" d="M1491 504l-59 -21q-15 -6 -19 -17.5t-4 -57.5v-345q-209 -59 -332.5 -81.5t-232.5 -22.5q-177 0 -334.5 59t-265.5 164q-96 96 -147.5 229t-51.5 287q0 169 63 309.5t177 238.5t277.5 152t359.5 54q123 0 223.5 -17t271.5 -67q-41 -157 -41 -311h-63v108q0 58 -40 96.5 t-130 67.5q-115 37 -275 37q-287 0 -445.5 -164.5t-158.5 -460.5q0 -319 179.5 -507.5t484.5 -188.5q102 0 182.5 19.5t97.5 48.5q13 23 13 88v207q0 36 -15.5 52t-54.5 19l-170 15v61q126 -6 250 -6q126 0 252 6zM1188 1540h-78l-268 172l-269 -172h-75l274 277h139z"/>
<glyph unicode="ĝ" horiz-adv-x="1138" d="M1114 858l-51 -84h-189q23 -62 23 -110q0 -157 -137 -258q-64 -45 -140 -72t-141 -27q-9 0 -49 4q-12 -12 -24 -22q-40 -34 -55 -54t-15 -40q0 -80 156 -80h327q107 0 174.5 -70t67.5 -180q0 -123 -73.5 -225.5t-200.5 -161t-279 -58.5q-195 0 -318.5 88.5t-123.5 227.5 q0 47 17.5 95t39.5 60l178 97q-74 22 -104.5 48.5t-30.5 69.5q0 41 31 89l161 124q-114 12 -179.5 85.5t-65.5 187.5q0 191 174 291q134 78 278 78q142 0 250 -87l291 9zM725 602q0 130 -64.5 209.5t-168.5 79.5q-98 0 -152.5 -65.5t-54.5 -184.5q0 -118 63 -191t166 -73 q94 0 152.5 62.5t58.5 162.5zM899 -209q0 100 -69 140t-242 40q-185 0 -232 -20q-62 -28 -98.5 -85t-36.5 -126q0 -114 83.5 -185t217.5 -71q161 0 269 87.5t108 219.5zM885 1042h-72l-248 211l-248 -211h-71l256 342h127z"/>
<glyph unicode="Ğ" horiz-adv-x="1562" d="M1491 504l-59 -21q-15 -6 -19 -17.5t-4 -57.5v-345q-209 -59 -332.5 -81.5t-232.5 -22.5q-177 0 -334.5 59t-265.5 164q-96 96 -147.5 229t-51.5 287q0 169 63 309.5t177 238.5t277.5 152t359.5 54q123 0 223.5 -17t271.5 -67q-41 -157 -41 -311h-63v108q0 58 -40 96.5 t-130 67.5q-115 37 -275 37q-287 0 -445.5 -164.5t-158.5 -460.5q0 -319 179.5 -507.5t484.5 -188.5q102 0 182.5 19.5t97.5 48.5q13 23 13 88v207q0 36 -15.5 52t-54.5 19l-170 15v61q126 -6 250 -6q126 0 252 6zM1155 1810q-9 -127 -92.5 -195.5t-220.5 -68.5t-221 68.5 t-91 195.5h66q6 -72 74.5 -117.5t171.5 -45.5q104 0 172 45.5t73 117.5h68z"/>
<glyph unicode="ğ" horiz-adv-x="1138" d="M1114 858l-51 -84h-189q23 -62 23 -110q0 -157 -137 -258q-64 -45 -140 -72t-141 -27q-9 0 -49 4q-12 -12 -24 -22q-40 -34 -55 -54t-15 -40q0 -80 156 -80h327q107 0 174.5 -70t67.5 -180q0 -123 -73.5 -225.5t-200.5 -161t-279 -58.5q-195 0 -318.5 88.5t-123.5 227.5 q0 47 17.5 95t39.5 60l178 97q-74 22 -104.5 48.5t-30.5 69.5q0 41 31 89l161 124q-114 12 -179.5 85.5t-65.5 187.5q0 191 174 291q134 78 278 78q142 0 250 -87l291 9zM725 602q0 130 -64.5 209.5t-168.5 79.5q-98 0 -152.5 -65.5t-54.5 -184.5q0 -118 63 -191t166 -73 q94 0 152.5 62.5t58.5 162.5zM899 -209q0 100 -69 140t-242 40q-185 0 -232 -20q-62 -28 -98.5 -85t-36.5 -126q0 -114 83.5 -185t217.5 -71q161 0 269 87.5t108 219.5zM854 1374q-3 -67 -13.5 -108t-35.5 -82q-37 -64 -99.5 -98.5t-140.5 -34.5q-172 0 -248 145 q-36 70 -41 178h62q5 -88 68.5 -144t158.5 -56t159.5 56t68.5 144h61z"/>
<glyph unicode="Ġ" horiz-adv-x="1562" d="M1491 504l-59 -21q-15 -6 -19 -17.5t-4 -57.5v-345q-209 -59 -332.5 -81.5t-232.5 -22.5q-177 0 -334.5 59t-265.5 164q-96 96 -147.5 229t-51.5 287q0 169 63 309.5t177 238.5t277.5 152t359.5 54q123 0 223.5 -17t271.5 -67q-41 -157 -41 -311h-63v108q0 58 -40 96.5 t-130 67.5q-115 37 -275 37q-287 0 -445.5 -164.5t-158.5 -460.5q0 -319 179.5 -507.5t484.5 -188.5q102 0 182.5 19.5t97.5 48.5q13 23 13 88v207q0 36 -15.5 52t-54.5 19l-170 15v61q126 -6 250 -6q126 0 252 6zM946 1677q0 -46 -28 -74t-74 -28t-74.5 28t-28.5 74 t29 74.5t76 28.5q44 0 72 -29t28 -74z"/>
<glyph unicode="ġ" horiz-adv-x="1138" d="M1114 858l-51 -84h-189q23 -62 23 -110q0 -157 -137 -258q-64 -45 -140 -72t-141 -27q-9 0 -49 4q-12 -12 -24 -22q-40 -34 -55 -54t-15 -40q0 -80 156 -80h327q107 0 174.5 -70t67.5 -180q0 -123 -73.5 -225.5t-200.5 -161t-279 -58.5q-195 0 -318.5 88.5t-123.5 227.5 q0 47 17.5 95t39.5 60l178 97q-74 22 -104.5 48.5t-30.5 69.5q0 41 31 89l161 124q-114 12 -179.5 85.5t-65.5 187.5q0 191 174 291q134 78 278 78q142 0 250 -87l291 9zM725 602q0 130 -64.5 209.5t-168.5 79.5q-98 0 -152.5 -65.5t-54.5 -184.5q0 -118 63 -191t166 -73 q94 0 152.5 62.5t58.5 162.5zM899 -209q0 100 -69 140t-242 40q-185 0 -232 -20q-62 -28 -98.5 -85t-36.5 -126q0 -114 83.5 -185t217.5 -71q161 0 269 87.5t108 219.5zM668 1212q0 -46 -28.5 -74t-74.5 -28t-74 28t-28 74t28.5 74.5t75.5 28.5q44 0 72.5 -29.5t28.5 -73.5z "/>
<glyph unicode="Ģ" horiz-adv-x="1562" d="M1491 504l-59 -21q-15 -6 -19 -17.5t-4 -57.5v-345q-209 -59 -332.5 -81.5t-232.5 -22.5q-177 0 -334.5 59t-265.5 164q-96 96 -147.5 229t-51.5 287q0 169 63 309.5t177 238.5t277.5 152t359.5 54q123 0 223.5 -17t271.5 -67q-41 -157 -41 -311h-63v108q0 58 -40 96.5 t-130 67.5q-115 37 -275 37q-287 0 -445.5 -164.5t-158.5 -460.5q0 -319 179.5 -507.5t484.5 -188.5q102 0 182.5 19.5t97.5 48.5q13 23 13 88v207q0 36 -15.5 52t-54.5 19l-170 15v61q126 -6 250 -6q126 0 252 6zM936 -180q-39 -103 -79 -170t-116 -166l-71 -39l-25 18 q57 92 78.5 159t30.5 169q48 14 161 51z"/>
<glyph unicode="ģ" horiz-adv-x="1138" d="M711 1434q-57 -92 -78.5 -159t-30.5 -169q-57 -17 -162 -51l-20 22q40 103 79.5 170.5t114.5 165.5l72 39zM1114 858l-51 -84h-189q23 -62 23 -110q0 -157 -137 -258q-64 -45 -140 -72t-141 -27q-9 0 -49 4q-12 -12 -24 -22q-40 -34 -55 -54t-15 -40q0 -80 156 -80h327 q107 0 174.5 -70t67.5 -180q0 -123 -73.5 -225.5t-200.5 -161t-279 -58.5q-195 0 -318.5 88.5t-123.5 227.5q0 47 17.5 95t39.5 60l178 97q-74 22 -104.5 48.5t-30.5 69.5q0 41 31 89l161 124q-114 12 -179.5 85.5t-65.5 187.5q0 191 174 291q134 78 278 78q142 0 250 -87 l291 9zM725 602q0 130 -64.5 209.5t-168.5 79.5q-98 0 -152.5 -65.5t-54.5 -184.5q0 -118 63 -191t166 -73q94 0 152.5 62.5t58.5 162.5zM899 -209q0 100 -69 140t-242 40q-185 0 -232 -20q-62 -28 -98.5 -85t-36.5 -126q0 -114 83.5 -185t217.5 -71q161 0 269 87.5 t108 219.5z"/>
<glyph unicode="Ĥ" horiz-adv-x="1703" d="M1659 -6q-150 6 -301 6q-149 0 -299 -6v61l98 6q38 2 56.5 7.5t31 27t15 53.5t2.5 97v456q-69 5 -170 5h-480q-101 0 -170 -5v-456q0 -65 2.5 -97t15 -53.5t31 -27t56.5 -7.5l98 -6v-61q-150 6 -301 6q-149 0 -299 -6v61l98 6q38 2 56.5 7.5t31 27t15 53.5t2.5 97v919 q0 65 -2.5 97t-15 53.5t-31 27t-56.5 7.5l-98 6v61q150 -6 299 -6q151 0 301 6v-61l-98 -6q-38 -2 -56.5 -7.5t-31 -27t-15 -53.5t-2.5 -97v-364q82 -4 170 -4h480q84 0 170 4v364q0 65 -2.5 97t-15 53.5t-31 27t-56.5 7.5l-98 6v61q150 -6 299 -6q151 0 301 6v-61l-98 -6 q-38 -2 -56.5 -7.5t-31 -27t-15 -53.5t-2.5 -97v-919q0 -65 2.5 -97t15 -53.5t31 -27t56.5 -7.5l98 -6v-61zM1196 1540h-78l-268 172l-268 -172h-76l274 277h140z"/>
<glyph unicode="ĥ" horiz-adv-x="1191" d="M1171 -6q-85 6 -170 6q-82 0 -161 -6v581q0 118 -62.5 189.5t-165.5 71.5q-94 0 -177 -62t-83 -131v-434q0 -98 12 -121.5t64 -26.5l92 -6v-61q-126 6 -254 6t-254 -6v61l92 6q52 3 64 26.5t12 121.5v1061q0 46 -11.5 65t-39.5 19h-115v57q122 19 187.5 34.5t132.5 41.5 l18 -17v-696l156 135q60 52 162 52q342 0 342 -357v-395q0 -99 11.5 -122t63.5 -26l84 -6v-61zM940 1610h-78l-268 172l-268 -172h-76l274 276h140z"/>
<glyph unicode="Ħ" horiz-adv-x="1703" d="M1659 -6q-150 6 -301 6q-149 0 -299 -6v61l98 6q38 2 56.5 7.5t31 27t15 53.5t2.5 97v456q-69 5 -170 5h-480q-101 0 -170 -5v-456q0 -65 2.5 -97t15 -53.5t31 -27t56.5 -7.5l98 -6v-61q-150 6 -301 6q-149 0 -299 -6v61l98 6q38 2 56.5 7.5t31 27t15 53.5t2.5 97v772 h-203v90h203v57q0 65 -2.5 97t-15 53.5t-31 27t-56.5 7.5l-98 6v61q150 -6 299 -6q151 0 301 6v-61l-98 -6q-38 -2 -56.5 -7.5t-31 -27t-15 -53.5t-2.5 -97v-57h820v57q0 65 -2.5 97t-15 53.5t-31 27t-56.5 7.5l-98 6v61q150 -6 299 -6q151 0 301 6v-61l-98 -6 q-38 -2 -56.5 -7.5t-31 -27t-15 -53.5t-2.5 -97v-57h203v-90h-203v-772q0 -65 2.5 -97t15 -53.5t31 -27t56.5 -7.5l98 -6v-61zM1262 801v217h-820v-217q82 -4 170 -4h480q84 0 170 4z"/>
<glyph unicode="ħ" horiz-adv-x="1323" d="M1241 -6q-85 6 -170 6q-83 0 -162 -6v581q0 118 -62 189.5t-165 71.5q-94 0 -177 -62t-83 -131v-434q0 -98 12 -121.5t64 -26.5l92 -6v-61q-126 6 -254 6t-254 -6v61l92 6q52 3 64 26.5t12 121.5v881h-168v108h168v72q0 46 -11.5 65t-39.5 19h-115v57q121 19 186 34.5 t133 41.5l19 -17v-274l299 2v-108h-299v-316l156 135q33 28 69 40t92 12q342 0 342 -357v-395q0 -99 12 -122t64 -26l84 -6v-61z"/>
<glyph unicode="Ĩ" horiz-adv-x="690" d="M645 -6q-150 6 -301 6q-149 0 -299 -6v61l98 6q38 2 56.5 7.5t31 27t15 53.5t2.5 97v919q0 65 -2.5 97t-15 53.5t-31 27t-56.5 7.5l-98 6v61q150 -6 299 -6q151 0 301 6v-61l-98 -6q-38 -2 -56.5 -7.5t-31 -27t-15 -53.5t-2.5 -97v-919q0 -65 2.5 -97t15 -53.5t31 -27 t56.5 -7.5l98 -6v-61zM686 1786q-6 -90 -71 -152.5t-152 -62.5q-62 0 -139 39q-109 53 -146 53q-69 0 -108 -92h-60q22 100 77 152.5t140 52.5q36 0 68 -11t115 -51q66 -31 96 -31q43 0 70.5 23t50.5 80h59z"/>
<glyph unicode="ĩ" horiz-adv-x="587" d="M555 -6q-129 6 -256 6t-256 -6v61l94 6q52 3 64 26.5t12 121.5v461q0 72 -6 100.5t-23 38.5t-61 10h-76v58q159 18 320 84l18 -9v-743q0 -98 12 -121.5t64 -26.5l94 -6v-61zM637 1321q-6 -90 -71 -152.5t-152 -62.5q-63 0 -140 39q-109 53 -145 53q-70 0 -109 -92h-59 q22 100 77 152.5t140 52.5q36 0 67.5 -11t114.5 -51q64 -30 97 -30q43 0 70.5 23t50.5 79h59z"/>
<glyph unicode="Ī" horiz-adv-x="690" d="M645 -6q-150 6 -301 6q-149 0 -299 -6v61l98 6q38 2 56.5 7.5t31 27t15 53.5t2.5 97v919q0 65 -2.5 97t-15 53.5t-31 27t-56.5 7.5l-98 6v61q150 -6 299 -6q151 0 301 6v-61l-98 -6q-38 -2 -56.5 -7.5t-31 -27t-15 -53.5t-2.5 -97v-919q0 -65 2.5 -97t15 -53.5t31 -27 t56.5 -7.5l98 -6v-61zM668 1624h-639v109h639v-109z"/>
<glyph unicode="ī" horiz-adv-x="587" d="M555 -6q-129 6 -256 6t-256 -6v61l94 6q52 3 64 26.5t12 121.5v461q0 72 -6 100.5t-23 38.5t-61 10h-76v58q159 18 320 84l18 -9v-743q0 -98 12 -121.5t64 -26.5l94 -6v-61zM618 1159h-638v109h638v-109z"/>
<glyph unicode="Ĭ" horiz-adv-x="690" d="M645 -6q-150 6 -301 6q-149 0 -299 -6v61l98 6q38 2 56.5 7.5t31 27t15 53.5t2.5 97v919q0 65 -2.5 97t-15 53.5t-31 27t-56.5 7.5l-98 6v61q150 -6 299 -6q151 0 301 6v-61l-98 -6q-38 -2 -56.5 -7.5t-31 -27t-15 -53.5t-2.5 -97v-919q0 -65 2.5 -97t15 -53.5t31 -27 t56.5 -7.5l98 -6v-61zM657 1810q-9 -127 -92.5 -195.5t-220.5 -68.5t-220.5 68.5t-90.5 195.5h65q6 -72 74.5 -117.5t171.5 -45.5q104 0 172.5 45.5t73.5 117.5h67z"/>
<glyph unicode="ĭ" horiz-adv-x="587" d="M555 -6q-129 6 -256 6t-256 -6v61l94 6q52 3 64 26.5t12 121.5v461q0 72 -6 100.5t-23 38.5t-61 10h-76v58q159 18 320 84l18 -9v-743q0 -98 12 -121.5t64 -26.5l94 -6v-61zM588 1374q-3 -67 -13.5 -108t-35.5 -82q-37 -64 -99.5 -98.5t-140.5 -34.5q-172 0 -248 145 q-36 70 -41 178h62q5 -88 68.5 -144t158.5 -56t158.5 56t68.5 144h62z"/>
<glyph unicode="Į" horiz-adv-x="690" d="M645 -6l-90 4q-99 2 -186 -133q-45 -72 -45 -135q0 -72 28.5 -110t69.5 -38q46 0 84.5 23t48.5 63l16 64l54 -15v-112l-76 -66q-60 -51 -187 -51q-85 0 -132.5 57.5t-47.5 130.5q0 89 59 174.5t152 149.5h-49l-299 -6v61l98 6q38 2 56.5 7.5t31 27t15 53.5t2.5 97v919 q0 65 -2.5 97t-15 53.5t-31 27t-56.5 7.5l-98 6v61q150 -6 299 -6q151 0 301 6v-61l-98 -6q-38 -2 -56.5 -7.5t-31 -27t-15 -53.5t-2.5 -97v-919q0 -65 2.5 -97t15 -53.5t31 -27t56.5 -7.5l98 -6v-61z"/>
<glyph unicode="į" horiz-adv-x="595" d="M555 -6l-90 4q-86 3 -164 -102q-68 -89 -68 -166q0 -72 28.5 -110t70.5 -38q46 0 84.5 23t48.5 63l16 64l54 -15v-112l-76 -66q-60 -51 -187 -51q-85 0 -132.5 57.5t-47.5 130.5q0 89 59 174.5t152 149.5h-4l-256 -6v61l94 6q52 3 64 26.5t12 121.5v461q0 72 -6 100.5 t-23 38.5t-61 10h-76v58q159 18 320 84l18 -9v-743q0 -98 12 -121.5t64 -26.5l94 -6v-61zM358 1212q0 -46 -28 -74t-74 -28t-74 28t-28 74t28.5 74.5t75.5 28.5q44 0 72 -29t28 -74z"/>
<glyph unicode="İ" horiz-adv-x="690" d="M645 -6q-150 6 -301 6q-149 0 -299 -6v61l98 6q38 2 56.5 7.5t31 27t15 53.5t2.5 97v919q0 65 -2.5 97t-15 53.5t-31 27t-56.5 7.5l-98 6v61q150 -6 299 -6q151 0 301 6v-61l-98 -6q-38 -2 -56.5 -7.5t-31 -27t-15 -53.5t-2.5 -97v-919q0 -65 2.5 -97t15 -53.5t31 -27 t56.5 -7.5l98 -6v-61zM449 1677q0 -46 -28.5 -74t-74.5 -28t-74 28t-28 74t28.5 74.5t75.5 28.5q44 0 72.5 -29.5t28.5 -73.5z"/>
<glyph unicode="ı" horiz-adv-x="587" d="M555 -6q-129 6 -256 6t-256 -6v61l94 6q52 3 64 26.5t12 121.5v461q0 72 -6 100.5t-23 38.5t-61 10h-76v58q159 18 320 84l18 -9v-743q0 -98 12 -121.5t64 -26.5l94 -6v-61z"/>
<glyph unicode="Ĵ" d="M637 1356l-98 -6q-38 -2 -56.5 -7.5t-31 -27t-15 -53.5t-2.5 -97v-925q0 -186 -26 -283.5t-101 -189.5q-59 -74 -142 -123t-136 -43l-49 6l-11 155l23 13q66 -41 137 -41q62 0 86.5 51t24.5 180v1200q0 65 -2.5 97t-15 53.5t-31 27t-56.5 7.5l-98 6v61q150 -6 299 -6 q151 0 301 6v-61zM682 1540h-78l-268 172l-268 -172h-76l274 277h140z"/>
<glyph unicode="ĵ" horiz-adv-x="479" d="M326 -39q0 -245 -109 -387q-59 -77 -122 -112.5t-152 -41.5l-25 78q27 -6 62 -6q89 0 131.5 119.5t42.5 374.5v684q0 101 -14.5 125t-76.5 24h-75v58q158 17 319 84l19 -9v-991zM559 1042h-72l-247 211l-248 -211h-72l256 342h127z"/>
<glyph unicode="Ķ" horiz-adv-x="1486" d="M1473 -6q-67 6 -134 6q-81 0 -163 -6l-713 686l-21 -14v-420q0 -65 2.5 -97t15 -53.5t31 -27t56.5 -7.5l98 -6v-61q-150 6 -301 6q-149 0 -299 -6v61l98 6q38 2 56.5 7.5t31 27t15 53.5t2.5 97v919q0 65 -2.5 97t-15 53.5t-31 27t-56.5 7.5l-98 6v61q150 -6 299 -6 q151 0 301 6v-61l-98 -6q-38 -2 -56.5 -7.5t-31 -27t-15 -53.5t-2.5 -97v-438l570 555q59 59 59 80v55q92 -6 182 -6q81 0 164 6v-61l-86 -4q-76 -3 -160 -78l-544 -492l676 -639q48 -45 76 -64t51 -20l43 -4v-61zM852 -180q-39 -103 -79 -170t-116 -166l-71 -39l-25 18 q57 92 78.5 159t30.5 169q48 14 161 51z"/>
<glyph unicode="ķ" horiz-adv-x="1138" d="M1124 35l-196 -60l-543 517v-283q0 -98 12 -121.5t64 -26.5l90 -6v-61q-126 6 -250 6q-129 0 -258 -6v61l94 6q52 3 64 26.5t12 121.5v1061q0 46 -11.5 65t-39.5 19h-115v57q122 19 187.5 34.5t132.5 41.5l18 -17v-935l150 120q104 82 307 285h205v-61q-53 0 -102 -21 t-120 -76l-264 -207q58 -68 131 -139l258 -256q103 -98 174 -98v-47zM643 -180q-40 -103 -79.5 -170.5t-114.5 -165.5l-72 -39l-25 18q57 92 78.5 159t30.5 169q57 17 162 51z"/>
<glyph unicode="Ĺ" horiz-adv-x="1251" d="M1200 352q-22 -222 -43 -352q-279 -6 -344 -6q-80 0 -238.5 3t-238.5 3q-101 0 -203 -6v47l64 33q51 25 51 121v970q0 65 -2.5 97t-15 53.5t-31 27t-56.5 7.5l-98 6v61q150 -6 299 -6q151 0 301 6v-61l-98 -6q-38 -2 -56.5 -7.5t-31 -27t-15 -53.5t-2.5 -97v-1069 q71 -16 174 -16q184 0 306.5 10t142.5 27q19 15 45 133l25 102h65zM627 1763q0 -23 -17 -38.5t-71 -41.5l-320 -149h-88l305 231q68 51 123 54q28 0 48 -16.5t20 -39.5z"/>
<glyph unicode="ĺ" horiz-adv-x="595" d="M555 -6q-129 6 -256 6t-256 -6v61l94 6q52 3 64 26.5t12 121.5v1061q0 46 -11.5 65t-39.5 19h-115v57q122 19 187.5 34.5t132.5 41.5l18 -17v-1261q0 -98 12 -121.5t64 -26.5l94 -6v-61zM553 1833q0 -23 -17 -38.5t-71 -41.5l-320 -149h-88l305 231q67 50 123 53 q28 0 48 -16t20 -39z"/>
<glyph unicode="Ļ" horiz-adv-x="1251" d="M1200 352q-22 -222 -43 -352q-279 -6 -344 -6q-80 0 -238.5 3t-238.5 3q-101 0 -203 -6v47l64 33q51 25 51 121v970q0 65 -2.5 97t-15 53.5t-31 27t-56.5 7.5l-98 6v61q150 -6 299 -6q151 0 301 6v-61l-98 -6q-38 -2 -56.5 -7.5t-31 -27t-15 -53.5t-2.5 -97v-1069 q71 -16 174 -16q184 0 306.5 10t142.5 27q19 15 45 133l25 102h65zM717 -180q-39 -103 -79 -170t-116 -166l-71 -39l-25 18q57 92 78.5 159t30.5 169q48 14 161 51z"/>
<glyph unicode="ļ" horiz-adv-x="595" d="M555 -6q-129 6 -256 6t-256 -6v61l94 6q52 3 64 26.5t12 121.5v1061q0 46 -11.5 65t-39.5 19h-115v57q122 19 187.5 34.5t132.5 41.5l18 -17v-1261q0 -98 12 -121.5t64 -26.5l94 -6v-61zM391 -180q-40 -103 -79.5 -170.5t-114.5 -165.5l-72 -39l-25 18q57 92 78.5 159 t30.5 169q57 17 162 51z"/>
<glyph unicode="Ľ" horiz-adv-x="1251" d="M1200 352q-22 -222 -43 -352q-279 -6 -344 -6q-80 0 -238.5 3t-238.5 3q-101 0 -203 -6v47l64 33q51 25 51 121v970q0 65 -2.5 97t-15 53.5t-31 27t-56.5 7.5l-98 6v61q150 -6 299 -6q151 0 301 6v-61l-98 -6q-38 -2 -56.5 -7.5t-31 -27t-15 -53.5t-2.5 -97v-1069 q71 -16 174 -16q184 0 306.5 10t142.5 27q19 15 45 133l25 102h65zM1018 1395q-39 -103 -79 -170t-116 -166l-71 -39l-25 18q57 92 78.5 159t30.5 169q48 14 161 51z"/>
<glyph unicode="ľ" horiz-adv-x="595" d="M555 -6q-129 6 -256 6t-256 -6v61l94 6q52 3 64 26.5t12 121.5v1061q0 46 -11.5 65t-39.5 19h-115v57q122 19 187.5 34.5t132.5 41.5l18 -17v-1261q0 -98 12 -121.5t64 -26.5l94 -6v-61zM758 1464q-39 -103 -79 -170t-116 -166l-71 -38l-25 18q56 92 77.5 158.5 t30.5 169.5q57 17 162 51z"/>
<glyph unicode="Ŀ" horiz-adv-x="1251" d="M1200 352q-22 -222 -43 -352q-279 -6 -344 -6q-80 0 -238.5 3t-238.5 3q-101 0 -203 -6v47l64 33q51 25 51 121v970q0 65 -2.5 97t-15 53.5t-31 27t-56.5 7.5l-98 6v61q150 -6 299 -6q151 0 301 6v-61l-98 -6q-38 -2 -56.5 -7.5t-31 -27t-15 -53.5t-2.5 -97v-1069 q71 -16 174 -16q184 0 306.5 10t142.5 27q19 15 45 133l25 102h65zM1073 784q0 -46 -28 -74t-74 -28t-74.5 28t-28.5 74t29 74.5t76 28.5q44 0 72 -29t28 -74z"/>
<glyph unicode="ŀ" horiz-adv-x="595" d="M555 -6q-129 6 -256 6t-256 -6v61l94 6q52 3 64 26.5t12 121.5v1061q0 46 -11.5 65t-39.5 19h-115v57q122 19 187.5 34.5t132.5 41.5l18 -17v-1261q0 -98 12 -121.5t64 -26.5l94 -6v-61zM700 784q0 -46 -28 -74t-74 -28t-74 28t-28 74t28.5 74.5t75.5 28.5q44 0 72 -29 t28 -74z"/>
<glyph unicode="Ł" horiz-adv-x="1251" d="M1200 352q-22 -222 -43 -352q-279 -6 -344 -6q-80 0 -238.5 3t-238.5 3q-101 0 -203 -6v47l64 33q51 25 51 121v448l-103 -84l-43 59l146 119v428q0 65 -2.5 97t-15 53.5t-31 27t-56.5 7.5l-98 6v61q150 -6 299 -6q151 0 301 6v-61l-98 -6q-38 -2 -56.5 -7.5t-31 -27 t-15 -53.5t-2.5 -97v-288l226 186l41 -59l-267 -222v-686q71 -16 174 -16q184 0 306.5 10t142.5 27q19 15 45 133l25 102h65z"/>
<glyph unicode="ł" horiz-adv-x="595" d="M606 1069l-221 -182v-678q0 -98 12 -121.5t64 -26.5l94 -6v-61q-129 6 -256 6t-256 -6v61l94 6q52 3 64 26.5t12 121.5v555l-170 -139l-43 59l213 174v412q0 46 -11.5 65t-39.5 19h-115v57q122 19 187.5 34.5t132.5 41.5l18 -17v-489l180 147z"/>
<glyph unicode="Ń" horiz-adv-x="1701" d="M1665 1356l-90 -6q-38 -2 -56.5 -8t-31 -27.5t-15 -53.5t-2.5 -96v-1130q0 -10 3.5 -38t3.5 -38l-185 33l-968 1202v-948q0 -120 17 -150.5t87 -34.5l90 -6v-61q-123 6 -246 6q-117 0 -237 -6v61l90 6q70 4 87 34.5t17 150.5v919q0 120 -17 150.5t-87 34.5l-90 6v61 q150 -6 246 -6l110 6l985 -1216v964q0 120 -17 150.5t-87 34.5l-90 6v61q120 -6 237 -6q123 0 246 6v-61zM1130 1763q0 -23 -17 -38.5t-71 -41.5l-319 -149h-88l305 231q68 51 123 54q28 0 47.5 -16.5t19.5 -39.5z"/>
<glyph unicode="ń" horiz-adv-x="1191" d="M1171 -6q-85 6 -170 6q-82 0 -161 -6v581q0 118 -62.5 189.5t-165.5 71.5q-94 0 -177 -62t-83 -131v-434q0 -98 12 -121.5t64 -26.5l92 -6v-61q-126 6 -254 6t-254 -6v61l92 6q52 3 64 26.5t12 121.5v461q0 72 -6 100.5t-23 38.5t-61 10h-76v58q159 18 320 84l18 -9v-178 l156 135q60 52 162 52q342 0 342 -357v-395q0 -99 11.5 -122t63.5 -26l84 -6v-61zM872 1317q0 -28 -15 -46t-66 -50l-295 -185h-82l282 283q67 67 113 67q26 0 44.5 -20t18.5 -49z"/>
<glyph unicode="Ņ" horiz-adv-x="1701" d="M1665 1356l-90 -6q-38 -2 -56.5 -8t-31 -27.5t-15 -53.5t-2.5 -96v-1130q0 -10 3.5 -38t3.5 -38l-185 33l-968 1202v-948q0 -120 17 -150.5t87 -34.5l90 -6v-61q-123 6 -246 6q-117 0 -237 -6v61l90 6q70 4 87 34.5t17 150.5v919q0 120 -17 150.5t-87 34.5l-90 6v61 q150 -6 246 -6l110 6l985 -1216v964q0 120 -17 150.5t-87 34.5l-90 6v61q120 -6 237 -6q123 0 246 6v-61zM942 -180q-40 -103 -79.5 -170.5t-114.5 -165.5l-72 -39l-25 18q57 92 78.5 159t30.5 169q57 17 162 51z"/>
<glyph unicode="ņ" horiz-adv-x="1191" d="M1171 -6q-85 6 -170 6q-82 0 -161 -6v581q0 118 -62.5 189.5t-165.5 71.5q-94 0 -177 -62t-83 -131v-434q0 -98 12 -121.5t64 -26.5l92 -6v-61q-126 6 -254 6t-254 -6v61l92 6q52 3 64 26.5t12 121.5v461q0 72 -6 100.5t-23 38.5t-61 10h-76v58q159 18 320 84l18 -9v-178 l156 135q60 52 162 52q342 0 342 -357v-395q0 -99 11.5 -122t63.5 -26l84 -6v-61zM688 -180q-40 -103 -79.5 -170.5t-114.5 -165.5l-72 -39l-25 18q57 92 78.5 159t30.5 169q57 17 162 51z"/>
<glyph unicode="Ň" horiz-adv-x="1701" d="M1665 1356l-90 -6q-38 -2 -56.5 -8t-31 -27.5t-15 -53.5t-2.5 -96v-1130q0 -10 3.5 -38t3.5 -38l-185 33l-968 1202v-948q0 -120 17 -150.5t87 -34.5l90 -6v-61q-123 6 -246 6q-117 0 -237 -6v61l90 6q70 4 87 34.5t17 150.5v919q0 120 -17 150.5t-87 34.5l-90 6v61 q150 -6 246 -6l110 6l985 -1216v964q0 120 -17 150.5t-87 34.5l-90 6v61q120 -6 237 -6q123 0 246 6v-61zM1194 1817l-274 -277h-140l-276 277h78l268 -172l268 172h76z"/>
<glyph unicode="ň" horiz-adv-x="1191" d="M1171 -6q-85 6 -170 6q-82 0 -161 -6v581q0 118 -62.5 189.5t-165.5 71.5q-94 0 -177 -62t-83 -131v-434q0 -98 12 -121.5t64 -26.5l92 -6v-61q-126 6 -254 6t-254 -6v61l92 6q52 3 64 26.5t12 121.5v461q0 72 -6 100.5t-23 38.5t-61 10h-76v58q159 18 320 84l18 -9v-178 l156 135q60 52 162 52q342 0 342 -357v-395q0 -99 11.5 -122t63.5 -26l84 -6v-61zM915 1384l-256 -342h-127l-256 342h72l248 -210l250 210h69z"/>
<glyph unicode="Ŋ" horiz-adv-x="1701" d="M1665 1356l-90 -6q-38 -2 -56.5 -8t-31 -27.5t-15 -53.5t-2.5 -96v-1130q0 -169 -94 -293.5t-241 -124.5q-208 0 -369 127l90 90q52 -61 125.5 -94t153.5 -33q43 0 75 24.5t49 66.5t25 90t8 104l-968 1202v-948q0 -120 17 -150.5t87 -34.5l90 -6v-61q-123 6 -246 6 q-117 0 -237 -6v61l90 6q70 4 87 34.5t17 150.5v919q0 120 -17 150.5t-87 34.5l-90 6v61q150 -6 246 -6l110 6l985 -1216v964q0 120 -17 150.5t-87 34.5l-90 6v61q120 -6 237 -6q123 0 246 6v-61z"/>
<glyph unicode="ŋ" horiz-adv-x="1191" d="M1012 209q0 -144 -49 -268t-146 -203.5t-221 -79.5v70q47 0 84.5 18t62.5 46t43.5 73t28.5 90t16 105.5t7.5 110.5t1.5 114v290q0 118 -62.5 189.5t-165.5 71.5q-94 0 -177 -62t-83 -131v-434q0 -98 12 -121.5t64 -26.5l92 -6v-61q-126 6 -254 6t-254 -6v61l92 6 q52 3 64 26.5t12 121.5v461q0 72 -6 100.5t-23 38.5t-61 10h-76v58q159 18 320 84l18 -9v-178l156 135q60 52 162 52q342 0 342 -357v-395z"/>
<glyph unicode="Ō" horiz-adv-x="1609" d="M1565 752q0 -222 -105.5 -404t-290.5 -285.5t-411 -103.5q-204 0 -367 94.5t-254.5 263.5t-91.5 381q0 223 96.5 394.5t273.5 265.5t408 94q341 0 541.5 -189t200.5 -511zM1346 690q0 319 -147.5 497.5t-410.5 178.5q-252 0 -388 -154t-136 -438q0 -328 159 -528.5 t417 -200.5q238 0 372 170.5t134 474.5zM1145 1624h-639v109h639v-109z"/>
<glyph unicode="ō" horiz-adv-x="1118" d="M1053 485q0 -230 -152.5 -378t-388.5 -148q-198 0 -322 134.5t-124 350.5q0 229 140.5 373t364.5 144q210 0 346 -134.5t136 -341.5zM862 410q0 209 -93 346t-234 137q-135 0 -207 -97.5t-72 -281.5q0 -218 92.5 -352.5t243.5 -134.5q125 0 197.5 103t72.5 280zM891 1159 h-639v109h639v-109z"/>
<glyph unicode="Ŏ" horiz-adv-x="1609" d="M1565 752q0 -222 -105.5 -404t-290.5 -285.5t-411 -103.5q-204 0 -367 94.5t-254.5 263.5t-91.5 381q0 223 96.5 394.5t273.5 265.5t408 94q341 0 541.5 -189t200.5 -511zM1346 690q0 319 -147.5 497.5t-410.5 178.5q-252 0 -388 -154t-136 -438q0 -328 159 -528.5 t417 -200.5q238 0 372 170.5t134 474.5zM1135 1810q-9 -127 -93 -195.5t-221 -68.5t-220.5 68.5t-90.5 195.5h65q6 -72 74.5 -117.5t171.5 -45.5q104 0 172.5 45.5t73.5 117.5h68z"/>
<glyph unicode="ŏ" horiz-adv-x="1118" d="M1053 485q0 -230 -152.5 -378t-388.5 -148q-198 0 -322 134.5t-124 350.5q0 229 140.5 373t364.5 144q210 0 346 -134.5t136 -341.5zM862 410q0 209 -93 346t-234 137q-135 0 -207 -97.5t-72 -281.5q0 -218 92.5 -352.5t243.5 -134.5q125 0 197.5 103t72.5 280zM860 1374 q-3 -67 -13.5 -108t-35.5 -82q-37 -64 -99.5 -98.5t-140.5 -34.5q-171 0 -247 145q-36 70 -41 178h61q5 -88 68.5 -144t158.5 -56t159.5 56t68.5 144h61z"/>
<glyph unicode="Ő" horiz-adv-x="1609" d="M1565 752q0 -222 -105.5 -404t-290.5 -285.5t-411 -103.5q-204 0 -367 94.5t-254.5 263.5t-91.5 381q0 223 96.5 394.5t273.5 265.5t408 94q341 0 541.5 -189t200.5 -511zM1346 690q0 319 -147.5 497.5t-410.5 178.5q-252 0 -388 -154t-136 -438q0 -328 159 -528.5 t417 -200.5q238 0 372 170.5t134 474.5zM1364 1763q0 -23 -17 -38.5t-71 -41.5l-320 -149h-88l306 231q68 51 122 54q28 0 48 -16.5t20 -39.5zM1036 1763q0 -23 -17 -38.5t-71 -41.5l-319 -149h-88l305 231q68 51 123 54q28 0 47.5 -16.5t19.5 -39.5z"/>
<glyph unicode="ő" horiz-adv-x="1118" d="M1053 485q0 -230 -152.5 -378t-388.5 -148q-198 0 -322 134.5t-124 350.5q0 229 140.5 373t364.5 144q210 0 346 -134.5t136 -341.5zM862 410q0 209 -93 346t-234 137q-135 0 -207 -97.5t-72 -281.5q0 -218 92.5 -352.5t243.5 -134.5q125 0 197.5 103t72.5 280zM770 1331 q0 -25 -17.5 -47.5t-62.5 -54.5l-276 -201h-82l262 303q26 31 57 49.5t56 18.5q26 0 44.5 -20t18.5 -48zM1077 1331q0 -25 -17.5 -47.5t-62.5 -54.5l-276 -201h-82l262 303q26 31 57 49.5t56 18.5q26 0 44.5 -20t18.5 -48z"/>
<glyph unicode="Œ" horiz-adv-x="2043" d="M1970 336q-33 -175 -33 -336l-327 -6l-219 2q-133 1 -336 -18.5t-254 -18.5q-223 0 -394.5 91t-266.5 259t-95 387q0 223 97 395t272.5 266.5t402.5 94.5q70 0 225 -20.5t162 -20.5l486 6l247 -6q-32 -125 -32 -311h-72v133q0 36 -9.5 48.5t-45.5 21.5q-110 28 -289 28 q-101 0 -143 -3t-89 -13v-547q131 -8 310 -8q74 0 107.5 14.5t37.5 63.5l10 106h62q-6 -120 -6 -237q0 -114 6 -228h-62l-10 119q-4 49 -37.5 63.5t-107.5 14.5h-111q-120 0 -199 -6v-574q79 -16 199 -16q296 0 363 24q21 8 40 52t29 110l10 70h72zM1063 285v817 q0 101 -10 170q-103 90 -273 90q-250 0 -390 -159.5t-140 -444.5q0 -205 68.5 -367t191 -252t278.5 -90q71 0 149 19t116 47q10 69 10 170z"/>
<glyph unicode="œ" horiz-adv-x="1693" d="M1638 571q0 -13 -4 -71q-178 -29 -370 -29h-299q3 -89 15.5 -141t41.5 -103q43 -76 122 -117.5t181 -41.5q67 0 121.5 19.5t146.5 76.5l29 -21l-41 -69q-13 -20 -102 -60q-132 -55 -236 -55t-183 40.5t-169 137.5q-94 -98 -175.5 -138t-187.5 -40q-202 0 -332 144 t-130 368q0 220 135 355t356 135q109 0 187.5 -35t166.5 -121q100 89 172.5 122.5t167.5 33.5q177 0 282 -106t105 -284zM825 416q0 221 -82.5 349t-224.5 128q-262 0 -262 -361q0 -224 87.5 -364.5t227.5 -140.5q121 0 187.5 101.5t66.5 287.5zM1468 547q0 79 -10 127 t-37 98q-65 121 -176 121q-64 0 -122.5 -28.5t-92.5 -76.5q-32 -44 -45 -95t-16 -140q157 -14 260 -12z"/>
<glyph unicode="Ŕ" horiz-adv-x="1368" d="M1370 -6q-74 6 -147 6q-69 0 -140 -6l-84 110l-376 506q-49 67 -95 117v33h60q178 0 282.5 83t104.5 224q0 131 -86 201.5t-246 70.5q-96 0 -201 -24v-1069q0 -65 2.5 -97t15 -53.5t31 -27t56.5 -7.5l98 -6v-61q-150 6 -301 6q-149 0 -299 -6v61l98 6q38 2 56.5 7.5 t31 27t15 53.5t2.5 97v919q0 64 -2.5 96t-15 53.5t-31 27.5t-56.5 8l-84 6v61q178 -6 355 -6q62 0 183 3t183 3q198 0 299 -79t101 -228q0 -179 -164 -297q-51 -35 -100.5 -55.5t-135.5 -42.5l465 -606q20 -26 47.5 -37.5t77.5 -16.5v-61zM926 1763q0 -23 -17 -38.5 t-71 -41.5l-320 -149h-88l305 231q68 51 123 54q28 0 48 -16.5t20 -39.5z"/>
<glyph unicode="ŕ" horiz-adv-x="808" d="M766 938l-18 -246h-43q-47 94 -138 94q-75 0 -128.5 -66.5t-53.5 -158.5v-352q0 -101 13.5 -122.5t82.5 -25.5l107 -6v-61q-147 6 -293 6q-126 0 -252 -6v61l94 6q52 3 64 26.5t12 121.5v461q0 72 -6 100.5t-23 38.5t-61 10h-76v58q159 18 320 84l18 -9v-211l115 136 q32 38 78 61t92 23q58 0 96 -23zM662 1317q0 -28 -15.5 -46t-66.5 -50l-295 -185h-82l282 283q67 67 113 67q26 0 45 -20t19 -49z"/>
<glyph unicode="Ŗ" horiz-adv-x="1368" d="M1370 -6q-74 6 -147 6q-69 0 -140 -6l-84 110l-376 506q-49 67 -95 117v33h60q178 0 282.5 83t104.5 224q0 131 -86 201.5t-246 70.5q-96 0 -201 -24v-1069q0 -65 2.5 -97t15 -53.5t31 -27t56.5 -7.5l98 -6v-61q-150 6 -301 6q-149 0 -299 -6v61l98 6q38 2 56.5 7.5 t31 27t15 53.5t2.5 97v919q0 64 -2.5 96t-15 53.5t-31 27.5t-56.5 8l-84 6v61q178 -6 355 -6q62 0 183 3t183 3q198 0 299 -79t101 -228q0 -179 -164 -297q-51 -35 -100.5 -55.5t-135.5 -42.5l465 -606q20 -26 47.5 -37.5t77.5 -16.5v-61zM737 -180q-40 -103 -79.5 -170.5 t-114.5 -165.5l-72 -39l-25 18q57 92 78.5 159t30.5 169q57 17 162 51z"/>
<glyph unicode="ŗ" horiz-adv-x="808" d="M766 938l-18 -246h-43q-47 94 -138 94q-75 0 -128.5 -66.5t-53.5 -158.5v-352q0 -101 13.5 -122.5t82.5 -25.5l107 -6v-61q-147 6 -293 6q-126 0 -252 -6v61l94 6q52 3 64 26.5t12 121.5v461q0 72 -6 100.5t-23 38.5t-61 10h-76v58q159 18 320 84l18 -9v-211l115 136 q32 38 78 61t92 23q58 0 96 -23zM408 -180q-39 -103 -79 -170t-116 -166l-72 -39l-24 18q56 92 77.5 158.5t30.5 169.5q57 17 162 51z"/>
<glyph unicode="Ř" horiz-adv-x="1368" d="M1370 -6q-74 6 -147 6q-69 0 -140 -6l-84 110l-376 506q-49 67 -95 117v33h60q178 0 282.5 83t104.5 224q0 131 -86 201.5t-246 70.5q-96 0 -201 -24v-1069q0 -65 2.5 -97t15 -53.5t31 -27t56.5 -7.5l98 -6v-61q-150 6 -301 6q-149 0 -299 -6v61l98 6q38 2 56.5 7.5 t31 27t15 53.5t2.5 97v919q0 64 -2.5 96t-15 53.5t-31 27.5t-56.5 8l-84 6v61q178 -6 355 -6q62 0 183 3t183 3q198 0 299 -79t101 -228q0 -179 -164 -297q-51 -35 -100.5 -55.5t-135.5 -42.5l465 -606q20 -26 47.5 -37.5t77.5 -16.5v-61zM989 1817l-274 -277h-140l-276 277 h78l268 -172l268 172h76z"/>
<glyph unicode="ř" horiz-adv-x="808" d="M766 938l-18 -246h-43q-47 94 -138 94q-75 0 -128.5 -66.5t-53.5 -158.5v-352q0 -101 13.5 -122.5t82.5 -25.5l107 -6v-61q-147 6 -293 6q-126 0 -252 -6v61l94 6q52 3 64 26.5t12 121.5v461q0 72 -6 100.5t-23 38.5t-61 10h-76v58q159 18 320 84l18 -9v-211l115 136 q32 38 78 61t92 23q58 0 96 -23zM705 1384l-256 -342h-127l-256 342h71l248 -210l250 210h70z"/>
<glyph unicode="Ś" horiz-adv-x="1075" d="M1030 471q0 -147 -79 -264t-219 -182.5t-316 -65.5t-355 78q17 130 17 231q0 45 -2 82h65l17 -137q8 -63 109.5 -113.5t224.5 -50.5q160 0 263 90t103 228q0 114 -78 180q-40 34 -102 54.5t-180 37.5q-148 20 -229 47.5t-134 75.5q-86 80 -86 229q0 201 148.5 331 t377.5 130q86 0 167 -18.5t202 -67.5q-29 -161 -29 -289h-65l-12 117q-5 45 -25.5 72t-71.5 53q-83 47 -211 47q-135 0 -222 -83t-87 -212q0 -118 75 -175.5t263 -82.5q174 -24 254 -49.5t133 -75.5q84 -78 84 -217zM776 1763q0 -23 -17 -38.5t-71 -41.5l-319 -149h-88 l305 231q68 51 123 54q28 0 47.5 -16.5t19.5 -39.5z"/>
<glyph unicode="ś" horiz-adv-x="868" d="M801 303q0 -151 -129 -247.5t-330 -96.5q-133 0 -281 49q23 118 23 285h61v-84q0 -76 71.5 -125t184.5 -49q109 0 178.5 52.5t69.5 135.5q0 59 -31 93t-100 49q-215 48 -303 88q-139 64 -139 211q0 138 102.5 217.5t280.5 79.5q113 0 266 -52q-7 -78 -10 -231h-58v47 q0 72 -69 120t-172 48q-94 0 -145.5 -42t-51.5 -118q0 -70 48.5 -106.5t174.5 -61.5q139 -27 200.5 -49t100.5 -61q58 -58 58 -152zM678 1317q0 -28 -15.5 -46t-66.5 -50l-295 -185h-82l283 283q67 67 112 67q26 0 45 -20t19 -49z"/>
<glyph unicode="Ŝ" horiz-adv-x="1075" d="M1030 471q0 -147 -79 -264t-219 -182.5t-316 -65.5t-355 78q17 130 17 231q0 45 -2 82h65l17 -137q8 -63 109.5 -113.5t224.5 -50.5q160 0 263 90t103 228q0 114 -78 180q-40 34 -102 54.5t-180 37.5q-148 20 -229 47.5t-134 75.5q-86 80 -86 229q0 201 148.5 331 t377.5 130q86 0 167 -18.5t202 -67.5q-29 -161 -29 -289h-65l-12 117q-5 45 -25.5 72t-71.5 53q-83 47 -211 47q-135 0 -222 -83t-87 -212q0 -118 75 -175.5t263 -82.5q174 -24 254 -49.5t133 -75.5q84 -78 84 -217zM840 1540h-78l-268 172l-269 -172h-75l274 277h139z"/>
<glyph unicode="ŝ" horiz-adv-x="868" d="M801 303q0 -151 -129 -247.5t-330 -96.5q-133 0 -281 49q23 118 23 285h61v-84q0 -76 71.5 -125t184.5 -49q109 0 178.5 52.5t69.5 135.5q0 59 -31 93t-100 49q-215 48 -303 88q-139 64 -139 211q0 138 102.5 217.5t280.5 79.5q113 0 266 -52q-7 -78 -10 -231h-58v47 q0 72 -69 120t-172 48q-94 0 -145.5 -42t-51.5 -118q0 -70 48.5 -106.5t174.5 -61.5q139 -27 200.5 -49t100.5 -61q58 -58 58 -152zM721 1042h-72l-248 211l-247 -211h-72l256 342h127z"/>
<glyph unicode="Ş" horiz-adv-x="1075" d="M1030 471q0 -189 -128 -324t-337 -174l-49 -127q30 9 53 9q81 0 128.5 -39t47.5 -105q0 -80 -67.5 -126t-185.5 -46q-44 0 -75.5 6t-97.5 27l29 63q81 -22 135 -22q53 0 81 22.5t28 65.5q0 35 -22.5 57.5t-59.5 22.5q-29 0 -84 -14l-14 12l77 184q-25 -4 -73 -4 q-183 0 -355 78q15 113 15 313h65l17 -137q7 -64 108 -114t223 -50q161 0 265 90t104 228q0 117 -80 182q-42 36 -103 55.5t-177 34.5q-153 22 -233.5 50t-131.5 77q-84 78 -84 225q0 201 148.5 331t377.5 130q87 0 167 -18.5t202 -67.5q-29 -161 -29 -289h-65l-12 117 q-5 45 -25.5 72t-71.5 53q-83 47 -211 47q-135 0 -222 -83t-87 -212q0 -118 75 -175.5t263 -82.5q175 -23 256 -49.5t135 -77.5q80 -80 80 -215z"/>
<glyph unicode="ş" horiz-adv-x="868" d="M801 303q0 -128 -92.5 -218t-247.5 -116l-47 -123q30 9 53 9q81 0 128.5 -39t47.5 -105q0 -80 -68 -126t-186 -46q-44 0 -75 6t-97 27l29 63q81 -22 135 -22q108 0 108 88q0 35 -22.5 57.5t-58.5 22.5q-29 0 -84 -14l-15 12l78 182q-14 -2 -45 -2q-128 0 -281 49 q23 105 23 285h61v-84q0 -76 71.5 -125t184.5 -49q109 0 178.5 52.5t69.5 135.5q0 60 -31 93.5t-100 48.5q-224 52 -305 90q-137 66 -137 209q0 138 102.5 217.5t280.5 79.5q110 0 266 -52q-7 -78 -10 -231h-58v47q0 72 -68.5 120t-172.5 48q-94 0 -145.5 -42t-51.5 -118 q0 -70 48.5 -106.5t174.5 -61.5q138 -26 200.5 -49t102.5 -63q56 -56 56 -150z"/>
<glyph unicode="Š" horiz-adv-x="1075" d="M1030 471q0 -147 -79 -264t-219 -182.5t-316 -65.5t-355 78q17 130 17 231q0 45 -2 82h65l17 -137q8 -63 109.5 -113.5t224.5 -50.5q160 0 263 90t103 228q0 114 -78 180q-40 34 -102 54.5t-180 37.5q-148 20 -229 47.5t-134 75.5q-86 80 -86 229q0 201 148.5 331 t377.5 130q86 0 167 -18.5t202 -67.5q-29 -161 -29 -289h-65l-12 117q-5 45 -25.5 72t-71.5 53q-83 47 -211 47q-135 0 -222 -83t-87 -212q0 -118 75 -175.5t263 -82.5q174 -24 254 -49.5t133 -75.5q84 -78 84 -217zM840 1817l-275 -277h-139l-276 277h77l269 -172l268 172 h76z"/>
<glyph unicode="š" horiz-adv-x="868" d="M801 303q0 -151 -129 -247.5t-330 -96.5q-133 0 -281 49q23 118 23 285h61v-84q0 -76 71.5 -125t184.5 -49q109 0 178.5 52.5t69.5 135.5q0 59 -31 93t-100 49q-215 48 -303 88q-139 64 -139 211q0 138 102.5 217.5t280.5 79.5q113 0 266 -52q-7 -78 -10 -231h-58v47 q0 72 -69 120t-172 48q-94 0 -145.5 -42t-51.5 -118q0 -70 48.5 -106.5t174.5 -61.5q139 -27 200.5 -49t100.5 -61q58 -58 58 -152zM721 1384l-256 -342h-127l-256 342h72l247 -210l250 210h70z"/>
<glyph unicode="Ţ" horiz-adv-x="1255" d="M1219 1417q-15 -176 -15 -330h-63l-8 162q-1 37 -20 52.5t-62 15.5h-318q-8 -91 -8 -205v-866q0 -53 2 -81.5t7 -51t18 -32t29.5 -14t47.5 -6.5l99 -6v-61l-248 6l-62 -154q30 9 54 9q81 0 128.5 -39t47.5 -105q0 -80 -68 -126t-186 -46q-44 0 -75 6t-97 27l29 63 q81 -22 135 -22q108 0 108 88q0 35 -22.5 57.5t-59.5 22.5q-29 0 -84 -14l-14 12l96 221l-282 -6v61l98 6q31 2 47.5 6.5t29.5 14t18 32t7 51t2 81.5v866q0 112 -8 205h-317q-43 0 -62 -15.5t-20 -52.5l-8 -162h-64q0 166 -14 330l139 -2l277 -4h323l170 2z"/>
<glyph unicode="ţ" horiz-adv-x="667" d="M653 893l-18 -111h-262v-536q0 -75 26 -108.5t86 -33.5q54 0 121 39l27 -34l-98 -109q-16 -16 -76 -23l-49 -131q30 9 53 9q81 0 128.5 -39t47.5 -105q0 -80 -68 -126t-186 -46q-44 0 -75 6t-97 27l29 63q81 -22 135 -22q108 0 108 88q0 35 -22.5 57.5t-59.5 22.5 q-29 0 -84 -14l-14 12l84 198q-98 6 -143 58.5t-45 157.5v589l-156 -8v43l160 72v143q0 81 -8 162q102 32 174 78l24 -23q-22 -180 -22 -291v-77z"/>
<glyph unicode="Ť" horiz-adv-x="1255" d="M1219 1417q-15 -176 -15 -330h-63l-8 162q-1 37 -20 52.5t-62 15.5h-318q-8 -91 -8 -205v-866q0 -53 2 -81.5t7 -51t18 -32t29.5 -14t47.5 -6.5l99 -6v-61q-150 6 -301 6q-149 0 -299 -6v61l98 6q31 2 47.5 6.5t29.5 14t18 32t7 51t2 81.5v866q0 112 -8 205h-317 q-43 0 -62 -15.5t-20 -52.5l-8 -162h-64q0 166 -14 330l416 -6h323zM973 1817l-275 -277h-139l-276 277h77l269 -172l268 172h76z"/>
<glyph unicode="ť" horiz-adv-x="667" d="M653 893l-18 -111h-262v-536q0 -75 26 -108.5t86 -33.5q52 0 121 39l27 -34l-98 -109q-9 -10 -41 -17.5t-68 -7.5q-118 0 -171.5 52t-53.5 166v589l-156 -8v43l160 72v143q0 81 -8 162q102 32 174 78l24 -23q-22 -180 -22 -291v-77zM727 1335q-39 -103 -79 -170 t-116 -166l-71 -38l-25 18q57 92 78.5 159t30.5 169q57 17 162 51z"/>
<glyph unicode="Ũ" horiz-adv-x="1593" d="M1554 1356l-90 -6q-70 -4 -87 -34.5t-17 -150.5v-592q0 -336 -141 -477q-134 -137 -445 -137q-308 0 -432 127q-115 118 -115 352v727q0 53 -2 81.5t-7 51t-18 32t-29.5 14t-47.5 6.5l-98 6v61q150 -6 299 -6q151 0 301 6v-61l-99 -6q-31 -2 -47.5 -6.5t-29.5 -14 t-18 -32t-7 -51t-2 -81.5v-704q0 -197 96.5 -286t310.5 -89q223 0 330 103.5t107 320.5v655q0 64 -2.5 96t-15 53.5t-31 27.5t-56.5 8l-90 6v61q120 -6 238 -6q122 0 245 6v-61zM1184 1786q-6 -90 -71 -152.5t-152 -62.5q-63 0 -140 39q-109 53 -145 53q-70 0 -109 -92h-59 q22 100 77 152.5t140 52.5q36 0 67.5 -11t114.5 -51q66 -31 97 -31q43 0 70 23t50 80h60z"/>
<glyph unicode="ũ" horiz-adv-x="1234" d="M1190 -6q-86 6 -170 6q-85 0 -170 -6q8 128 8 188l-137 -127q-86 -80 -229 -80q-171 0 -240 93q-28 38 -38.5 94.5t-10.5 163.5v344q0 72 -6 100.5t-23 38.5t-61 10h-76v58q158 17 319 84l19 -9v-604q0 -137 43 -186q52 -62 162 -62q116 0 202 86q35 35 55.5 75.5 t20.5 74.5v334q0 72 -6 100.5t-23 38.5t-61 10h-76v58q159 18 320 84l18 -9v-743q0 -99 12 -122t64 -26l84 -6v-61zM954 1321q-6 -90 -71 -152.5t-152 -62.5q-62 0 -139 39q-109 53 -146 53q-69 0 -108 -92h-59q22 100 77 152.5t140 52.5q36 0 67.5 -11t114.5 -51 q64 -30 96 -30q43 0 70.5 23t50.5 79h59z"/>
<glyph unicode="Ū" horiz-adv-x="1593" d="M1554 1356l-90 -6q-70 -4 -87 -34.5t-17 -150.5v-592q0 -336 -141 -477q-134 -137 -445 -137q-308 0 -432 127q-115 118 -115 352v727q0 53 -2 81.5t-7 51t-18 32t-29.5 14t-47.5 6.5l-98 6v61q150 -6 299 -6q151 0 301 6v-61l-99 -6q-31 -2 -47.5 -6.5t-29.5 -14 t-18 -32t-7 -51t-2 -81.5v-704q0 -197 96.5 -286t310.5 -89q223 0 330 103.5t107 320.5v655q0 64 -2.5 96t-15 53.5t-31 27.5t-56.5 8l-90 6v61q120 -6 238 -6q122 0 245 6v-61zM1165 1624h-639v109h639v-109z"/>
<glyph unicode="ū" horiz-adv-x="1234" d="M1190 -6q-86 6 -170 6q-85 0 -170 -6q8 128 8 188l-137 -127q-86 -80 -229 -80q-171 0 -240 93q-28 38 -38.5 94.5t-10.5 163.5v344q0 72 -6 100.5t-23 38.5t-61 10h-76v58q158 17 319 84l19 -9v-604q0 -137 43 -186q52 -62 162 -62q116 0 202 86q35 35 55.5 75.5 t20.5 74.5v334q0 72 -6 100.5t-23 38.5t-61 10h-76v58q159 18 320 84l18 -9v-743q0 -99 12 -122t64 -26l84 -6v-61zM936 1159h-639v109h639v-109z"/>
<glyph unicode="Ŭ" horiz-adv-x="1593" d="M1554 1356l-90 -6q-70 -4 -87 -34.5t-17 -150.5v-592q0 -336 -141 -477q-134 -137 -445 -137q-308 0 -432 127q-115 118 -115 352v727q0 53 -2 81.5t-7 51t-18 32t-29.5 14t-47.5 6.5l-98 6v61q150 -6 299 -6q151 0 301 6v-61l-99 -6q-31 -2 -47.5 -6.5t-29.5 -14 t-18 -32t-7 -51t-2 -81.5v-704q0 -197 96.5 -286t310.5 -89q223 0 330 103.5t107 320.5v655q0 64 -2.5 96t-15 53.5t-31 27.5t-56.5 8l-90 6v61q120 -6 238 -6q122 0 245 6v-61zM1155 1810q-9 -127 -92.5 -195.5t-220.5 -68.5t-221 68.5t-91 195.5h66q6 -72 74.5 -117.5 t171.5 -45.5q104 0 172 45.5t73 117.5h68z"/>
<glyph unicode="ŭ" horiz-adv-x="1234" d="M1190 -6q-86 6 -170 6q-85 0 -170 -6q8 128 8 188l-137 -127q-86 -80 -229 -80q-171 0 -240 93q-28 38 -38.5 94.5t-10.5 163.5v344q0 72 -6 100.5t-23 38.5t-61 10h-76v58q158 17 319 84l19 -9v-604q0 -137 43 -186q52 -62 162 -62q116 0 202 86q35 35 55.5 75.5 t20.5 74.5v334q0 72 -6 100.5t-23 38.5t-61 10h-76v58q159 18 320 84l18 -9v-743q0 -99 12 -122t64 -26l84 -6v-61zM905 1374q-3 -67 -13.5 -108t-35.5 -82q-37 -64 -99.5 -98.5t-140.5 -34.5q-171 0 -247 145q-36 70 -41 178h61q5 -88 68.5 -144t158.5 -56t159.5 56 t68.5 144h61z"/>
<glyph unicode="Ů" horiz-adv-x="1593" d="M1554 1356l-90 -6q-70 -4 -87 -34.5t-17 -150.5v-592q0 -336 -141 -477q-134 -137 -445 -137q-308 0 -432 127q-115 118 -115 352v727q0 53 -2 81.5t-7 51t-18 32t-29.5 14t-47.5 6.5l-98 6v61q150 -6 299 -6q151 0 301 6v-61l-99 -6q-31 -2 -47.5 -6.5t-29.5 -14 t-18 -32t-7 -51t-2 -81.5v-704q0 -197 96.5 -286t310.5 -89q223 0 330 103.5t107 320.5v655q0 64 -2.5 96t-15 53.5t-31 27.5t-56.5 8l-90 6v61q120 -6 238 -6q122 0 245 6v-61zM1051 1718q0 -86 -60 -145.5t-145 -59.5q-86 0 -145.5 59.5t-59.5 147.5q0 85 60.5 144 t148.5 59q82 0 141.5 -60.5t59.5 -144.5zM973 1718q0 58 -34.5 94.5t-90.5 36.5q-58 0 -93.5 -35.5t-35.5 -93.5q0 -61 34 -97t93 -36q57 0 92 36t35 95z"/>
<glyph unicode="ů" horiz-adv-x="1234" d="M1190 -6q-86 6 -170 6q-85 0 -170 -6q8 128 8 188l-137 -127q-86 -80 -229 -80q-171 0 -240 93q-28 38 -38.5 94.5t-10.5 163.5v344q0 72 -6 100.5t-23 38.5t-61 10h-76v58q158 17 319 84l19 -9v-604q0 -137 43 -186q52 -62 162 -62q116 0 202 86q35 35 55.5 75.5 t20.5 74.5v334q0 72 -6 100.5t-23 38.5t-61 10h-76v58q159 18 320 84l18 -9v-743q0 -99 12 -122t64 -26l84 -6v-61zM821 1212q0 -86 -60 -145t-145 -59q-86 0 -145 59t-59 147q0 85 60.5 144t148.5 59q82 0 141 -60t59 -145zM743 1212q0 58 -34.5 94.5t-90.5 36.5 q-58 0 -93.5 -35.5t-35.5 -93.5q0 -61 34 -97t93 -36q57 0 92 36t35 95z"/>
<glyph unicode="Ű" horiz-adv-x="1593" d="M1554 1356l-90 -6q-70 -4 -87 -34.5t-17 -150.5v-592q0 -336 -141 -477q-134 -137 -445 -137q-308 0 -432 127q-115 118 -115 352v727q0 53 -2 81.5t-7 51t-18 32t-29.5 14t-47.5 6.5l-98 6v61q150 -6 299 -6q151 0 301 6v-61l-99 -6q-31 -2 -47.5 -6.5t-29.5 -14 t-18 -32t-7 -51t-2 -81.5v-704q0 -197 96.5 -286t310.5 -89q223 0 330 103.5t107 320.5v655q0 64 -2.5 96t-15 53.5t-31 27.5t-56.5 8l-90 6v61q120 -6 238 -6q122 0 245 6v-61zM1384 1763q0 -23 -17 -38.5t-71 -41.5l-319 -149h-88l305 231q68 51 123 54q28 0 47.5 -16.5 t19.5 -39.5zM1057 1763q0 -23 -17 -38.5t-71 -41.5l-320 -149h-88l305 231q68 51 123 54q28 0 48 -16.5t20 -39.5z"/>
<glyph unicode="ű" horiz-adv-x="1234" d="M1190 -6q-86 6 -170 6q-85 0 -170 -6q8 128 8 188l-137 -127q-86 -80 -229 -80q-171 0 -240 93q-28 38 -38.5 94.5t-10.5 163.5v344q0 72 -6 100.5t-23 38.5t-61 10h-76v58q158 17 319 84l19 -9v-604q0 -137 43 -186q52 -62 162 -62q116 0 202 86q35 35 55.5 75.5 t20.5 74.5v334q0 72 -6 100.5t-23 38.5t-61 10h-76v58q159 18 320 84l18 -9v-743q0 -99 12 -122t64 -26l84 -6v-61zM815 1331q0 -25 -17.5 -47.5t-62.5 -54.5l-276 -201h-82l262 303q26 31 57 49.5t56 18.5q26 0 44.5 -20t18.5 -48zM1122 1331q0 -25 -17.5 -47.5 t-62.5 -54.5l-276 -201h-82l262 303q26 31 57 49.5t56 18.5q26 0 44.5 -20t18.5 -48z"/>
<glyph unicode="Ų" horiz-adv-x="1593" d="M1554 1356l-90 -6q-70 -4 -87 -34.5t-17 -150.5v-592q0 -336 -141 -477q-77 -80 -224 -116q-151 -29 -192 -84q-68 -89 -68 -166q0 -72 28.5 -110t70.5 -38q48 0 85.5 23t47.5 63l16 64l53 -15v-112l-75 -66q-58 -51 -187 -51q-85 0 -132.5 57.5t-47.5 130.5 q0 75 42.5 148.5t115.5 134.5q-292 6 -410 127q-115 118 -115 352v727q0 53 -2 81.5t-7 51t-18 32t-29.5 14t-47.5 6.5l-98 6v61q150 -6 299 -6q151 0 301 6v-61l-99 -6q-31 -2 -47.5 -6.5t-29.5 -14t-18 -32t-7 -51t-2 -81.5v-704q0 -197 96.5 -286t310.5 -89 q223 0 330 103.5t107 320.5v655q0 64 -2.5 96t-15 53.5t-31 27.5t-56.5 8l-90 6v61q120 -6 238 -6q122 0 245 6v-61z"/>
<glyph unicode="ų" horiz-adv-x="1234" d="M1190 -395l-76 -66q-60 -51 -186 -51q-85 0 -132.5 57.5t-47.5 130.5q0 89 58 175t150 149l-106 -6q8 128 8 188l-137 -127q-86 -80 -229 -80q-171 0 -240 93q-28 38 -38.5 94.5t-10.5 163.5v344q0 72 -6 100.5t-23 38.5t-61 10h-76v58q158 17 319 84l19 -9v-604 q0 -137 43 -186q52 -62 162 -62q116 0 202 86q35 35 55.5 75.5t20.5 74.5v334q0 72 -6 100.5t-23 38.5t-61 10h-76v58q159 18 320 84l18 -9v-743q0 -99 12 -122t64 -26l84 -6v-61l-68 4q-88 3 -166 -102q-67 -88 -67 -166q0 -72 28.5 -110t69.5 -38q46 0 84.5 23t48.5 63 l17 64l53 -15v-112z"/>
<glyph unicode="Ŵ" horiz-adv-x="2048" d="M2015 1356l-65 -6q-62 -6 -78 -60l-313 -1102l-56 -206h-102q-72 223 -146 421l-256 695l-356 -905q-50 -123 -74 -211h-102l-291 1265q-12 52 -35 75t-67 28l-58 6v61q129 -6 258 -6t258 6v-61l-86 -6q-56 -4 -69.5 -41t2.5 -95l205 -919l254 645q112 283 184 494h65 q6 -26 12 -47.5t11 -35t19.5 -54t25.5 -72.5l336 -944l270 1001q8 32 -12 48t-82 20l-82 6v61q108 -6 215 -6t215 6v-61zM1343 1540h-77l-269 172l-268 -172h-76l275 277h139z"/>
<glyph unicode="ŵ" horiz-adv-x="1708" d="M1655 883l-53 -4q-36 -3 -63.5 -39t-68.5 -140l-280 -714h-94l-279 700q-69 -143 -106 -229l-201 -471h-96l-209 688q-38 122 -64.5 162t-70.5 43l-58 4v57q123 -6 244 -6t244 6v-57l-82 -4q-56 -3 -71 -29t1 -72l172 -565l326 748h47q23 -79 59 -166l236 -594l98 254 l103 286q47 132 -66 138l-70 4v57q102 -6 201 -6t201 6v-57zM1137 1042h-72l-248 211l-248 -211h-71l256 342h127z"/>
<glyph unicode="Ŷ" horiz-adv-x="1366" d="M1339 1391q-121 -145 -194 -244t-191 -275q-89 -135 -118 -206t-29 -156v-264q0 -53 2 -81.5t7 -51t18 -32t29.5 -14t47.5 -6.5l99 -6v-61q-150 6 -301 6q-149 0 -299 -6v61l98 6q31 2 47.5 6.5t29.5 14t18 32t7 51t2 81.5v291q0 51 -18 81l-254 443 q-65 113 -137.5 186.5t-124.5 79.5l-60 6v60l246 51q28 0 83 -61.5t104 -149.5l292 -535l211 334q121 192 222 389h163v-30zM1055 1540h-78l-268 172l-269 -172h-75l274 277h139z"/>
<glyph unicode="ŷ" horiz-adv-x="1138" d="M1114 883l-57 -4q-38 -3 -74 -55.5t-98 -192.5l-416 -959q-59 -134 -129.5 -193t-173.5 -59q-51 0 -111 31l49 154h27q53 -47 105 -47q58 0 115.5 69.5t107.5 198.5l47 125l-338 827q-21 53 -44.5 74.5t-62.5 26.5l-36 4v57q120 -6 237 -6q118 0 238 6v-57l-78 -4 q-58 -3 -67.5 -35t18.5 -99l131 -344q54 -138 104 -225l244 598q23 56 7 78t-81 27l-53 4v57q99 -6 195 -6q95 0 194 6v-57zM932 1042h-72l-248 211l-247 -211h-72l256 342h127z"/>
<glyph unicode="Ÿ" horiz-adv-x="1366" d="M1339 1391q-121 -145 -194 -244t-191 -275q-89 -135 -118 -206t-29 -156v-264q0 -53 2 -81.5t7 -51t18 -32t29.5 -14t47.5 -6.5l99 -6v-61q-150 6 -301 6q-149 0 -299 -6v61l98 6q31 2 47.5 6.5t29.5 14t18 32t7 51t2 81.5v291q0 51 -18 81l-254 443 q-65 113 -137.5 186.5t-124.5 79.5l-60 6v60l246 51q28 0 83 -61.5t104 -149.5l292 -535l211 334q121 192 222 389h163v-30zM610 1677q0 -46 -28 -74t-74 -28t-74 28t-28 74t28.5 74.5t75.5 28.5q44 0 72 -29t28 -74zM1018 1677q0 -46 -28.5 -74t-74.5 -28t-74 28t-28 74 t29 74.5t76 28.5q44 0 72 -29t28 -74z"/>
<glyph unicode="Ź" horiz-adv-x="1366" d="M1307 354q-13 -147 -13 -360q-313 6 -624 6q-320 0 -639 -6v57q169 201 198 240l619 794q4 5 21.5 27t21.5 27t18.5 23.5t19 24.5l16.5 22t17.5 23.5t15 21.5t16 24.5t14.5 23t16 25.5h-467q-188 0 -247.5 -18t-63.5 -78l-13 -146h-69q6 114 6 166t-6 166h338 q92 0 237.5 -3t237.5 -3l319 6l9 -59l-996 -1268h559q85 0 134.5 1.5t93 7.5t63.5 14t36 27t21 40t9 58l12 116h70zM944 1763q0 -23 -17 -38.5t-71 -41.5l-319 -149h-88l305 231q68 51 123 54q28 0 47.5 -16.5t19.5 -39.5z"/>
<glyph unicode="ź" horiz-adv-x="1024" d="M954 285l-12 -97q-18 -147 -18 -194q-282 6 -566 6q-157 0 -313 -6l-12 41l532 649q75 92 133 184h-292q-114 0 -152.5 -10.5t-44.5 -42.5l-25 -139h-61q14 163 18 270q255 -6 508 -6q142 0 283 6v-61l-643 -813h276q149 0 217 11.5t74 39.5l37 162h61zM762 1317 q0 -28 -15.5 -46t-66.5 -50l-295 -185h-82l283 283q67 67 112 67q26 0 45 -20t19 -49z"/>
<glyph unicode="Ż" horiz-adv-x="1366" d="M1307 354q-13 -147 -13 -360q-313 6 -624 6q-320 0 -639 -6v57q169 201 198 240l619 794q4 5 21.5 27t21.5 27t18.5 23.5t19 24.5l16.5 22t17.5 23.5t15 21.5t16 24.5t14.5 23t16 25.5h-467q-188 0 -247.5 -18t-63.5 -78l-13 -146h-69q6 114 6 166t-6 166h338 q92 0 237.5 -3t237.5 -3l319 6l9 -59l-996 -1268h559q85 0 134.5 1.5t93 7.5t63.5 14t36 27t21 40t9 58l12 116h70zM766 1677q0 -46 -28 -74t-74 -28t-74.5 28t-28.5 74t29 74.5t76 28.5q44 0 72 -29t28 -74z"/>
<glyph unicode="ż" horiz-adv-x="1024" d="M954 285l-12 -97q-18 -147 -18 -194q-282 6 -566 6q-157 0 -313 -6l-12 41l532 649q75 92 133 184h-292q-114 0 -152.5 -10.5t-44.5 -42.5l-25 -139h-61q14 163 18 270q255 -6 508 -6q142 0 283 6v-61l-643 -813h276q149 0 217 11.5t74 39.5l37 162h61zM588 1212 q0 -46 -28.5 -74t-74.5 -28t-74 28t-28 74t28.5 74.5t75.5 28.5q44 0 72.5 -29.5t28.5 -73.5z"/>
<glyph unicode="Ž" horiz-adv-x="1366" d="M1307 354q-13 -147 -13 -360q-313 6 -624 6q-320 0 -639 -6v57q169 201 198 240l619 794q4 5 21.5 27t21.5 27t18.5 23.5t19 24.5l16.5 22t17.5 23.5t15 21.5t16 24.5t14.5 23t16 25.5h-467q-188 0 -247.5 -18t-63.5 -78l-13 -146h-69q6 114 6 166t-6 166h338 q92 0 237.5 -3t237.5 -3l319 6l9 -59l-996 -1268h559q85 0 134.5 1.5t93 7.5t63.5 14t36 27t21 40t9 58l12 116h70zM1008 1817l-275 -277h-139l-277 277h78l269 -172l268 172h76z"/>
<glyph unicode="ž" horiz-adv-x="1024" d="M954 285l-12 -97q-18 -147 -18 -194q-282 6 -566 6q-157 0 -313 -6l-12 41l532 649q75 92 133 184h-292q-114 0 -152.5 -10.5t-44.5 -42.5l-25 -139h-61q14 163 18 270q255 -6 508 -6q142 0 283 6v-61l-643 -813h276q149 0 217 11.5t74 39.5l37 162h61zM805 1384 l-256 -342h-127l-256 342h72l247 -210l250 210h70z"/>
<glyph unicode="ſ" d="M698 1311l-24 -13q-37 32 -68.5 45t-73.5 13q-60 0 -89.5 -25t-41.5 -85.5t-12 -182.5v-854q0 -98 12 -121.5t64 -26.5l94 -6v-61q-129 6 -256 6t-256 -6v61l94 6q52 3 64 26.5t12 121.5v579l-141 -8v45l141 64v86q0 196 86 295l119 135q34 39 83.5 62.5t98.5 23.5 q32 0 94 -23v-157z"/>
<glyph unicode="Ǝ" horiz-adv-x="1251" d="M1171 1356l-98 -6q-31 -2 -47.5 -6.5t-29.5 -14t-18 -32t-7 -51t-2 -81.5v-919q0 -45 1 -70t5 -48t9.5 -33t19 -18.5t28.5 -11t41 -4.5l74 -6v-61q-126 6 -252 6q-238 0 -475 -6l-342 6q0 161 -33 336h72l10 -70q9 -66 27.5 -110t40.5 -52q74 -24 376 -24q124 0 203 16 v574l-328 6q-73 0 -103 -14t-40 -62q-4 -20 -6.5 -50t-2.5 -50l-1 -21h-62q7 133 7 228q0 97 -7 237h62q0 -67 10 -106q11 -50 41 -64t102 -14q208 0 328 8v547q-47 10 -89.5 13t-149.5 3q-194 0 -297 -28q-37 -10 -46.5 -22.5t-9.5 -47.5v-133h-71q0 182 -33 311l254 6 q237 -6 475 -6q183 0 364 6v-61z"/>
<glyph unicode="ƒ" horiz-adv-x="1024" d="M969 1446q-21 -78 -29 -189l-20 -16q-15 10 -17 12q-42 37 -84 37q-46 0 -69.5 -31.5t-38.5 -115.5l-56 -307l215 8q-15 -91 -18 -111q-115 10 -215 12l-148 -712q-118 -567 -489 -570q19 87 31 183l22 14q41 -41 94 -41q57 0 88 57.5t62 217.5l164 851l-221 -10l20 109 l219 -8q129 595 490 610z"/>
<glyph unicode="Ơ" horiz-adv-x="1609" d="M1565 752q0 -222 -105.5 -404t-290.5 -285.5t-411 -103.5q-204 0 -367 94.5t-254.5 263.5t-91.5 381q0 223 96.5 394.5t273.5 265.5t408 94q272 0 455 -123q44 29 60 70.5t16 103.5q0 9 -1 28.5t-1 29.5q54 10 106.5 22t69.5 16l22 -14q-11 -39 -32 -87t-68 -116 t-102 -106q217 -189 217 -524zM1346 690q0 319 -147.5 497.5t-410.5 178.5q-252 0 -388 -154t-136 -438q0 -328 159 -528.5t417 -200.5q238 0 372 170.5t134 474.5z"/>
<glyph unicode="ơ" horiz-adv-x="1118" d="M1161 1075q-20 -68 -70 -158.5t-126 -146.5q88 -125 88 -285q0 -230 -152.5 -378t-388.5 -148q-198 0 -322 134.5t-124 350.5q0 229 140.5 373t364.5 144q203 0 336 -127q58 51 58 159q0 9 -1 28.5t-1 29.5q53 10 103.5 22t72.5 17zM862 410q0 209 -93 346t-234 137 q-135 0 -207 -97.5t-72 -281.5q0 -218 92.5 -352.5t243.5 -134.5q125 0 197.5 103t72.5 280z"/>
<glyph unicode="Ư" horiz-adv-x="1593" d="M1640 1585q-9 -32 -28.5 -76.5t-53.5 -101.5t-86.5 -104t-111.5 -64v-666q0 -336 -141 -477q-134 -137 -445 -137q-308 0 -432 127q-115 118 -115 352v727q0 53 -2 81.5t-7 51t-18 32t-29.5 14t-47.5 6.5l-98 6v61q150 -6 299 -6q151 0 301 6v-61l-99 -6 q-31 -2 -47.5 -6.5t-29.5 -14t-18 -32t-7 -51t-2 -81.5v-704q0 -197 96.5 -286t310.5 -89q223 0 330 103.5t107 320.5v655q0 64 -2.5 96t-15 53.5t-31 27.5t-56.5 8l-90 6v61h289v-92q49 29 66.5 71.5t17.5 106.5q0 9 -1 28.5t-1 29.5q54 10 106.5 22t69.5 16z"/>
<glyph unicode="ư" horiz-adv-x="1310" d="M1311 1075q-9 -32 -29 -76.5t-53.5 -101.5t-86.5 -104t-112 -64v-520q0 -99 12 -122t64 -26l84 -6v-61q-141 6 -170 6q-33 0 -170 -6q8 128 8 188l-137 -127q-86 -80 -229 -80q-171 0 -240 93q-28 38 -38.5 94.5t-10.5 163.5v344q0 72 -6 100.5t-23 38.5t-61 10h-76v58 q158 17 319 84l19 -9v-604q0 -137 43 -186q52 -62 162 -62q116 0 202 86q35 35 55.5 75.5t20.5 74.5v334q0 72 -6 100.5t-23 38.5t-61 10h-76v58q159 18 320 84l18 -9v-137q49 29 66.5 71.5t17.5 106.5q0 9 -1 28.5t-1 29.5q53 10 103.5 22t72.5 17z"/>
<glyph unicode="ǝ" horiz-adv-x="980" d="M918 471q0 -160 -55 -262t-181 -174q-130 -76 -248 -76q-172 0 -276.5 106t-104.5 283q0 14 4 72q178 29 371 29h299q-3 88 -15 139.5t-42 103.5q-43 75 -122.5 117.5t-178.5 42.5q-66 0 -117 -18.5t-150 -77.5l-26 20l41 70q15 23 106 61q123 54 236 54q116 0 214 -45.5 t158 -127.5q87 -119 87 -317zM723 367q-133 12 -258 12l-229 -6q0 -99 14.5 -154.5t50.5 -109.5q55 -82 158 -82q74 0 135.5 39t93.5 106q20 40 27.5 81.5t7.5 113.5z"/>
<glyph unicode="Ǧ" horiz-adv-x="1562" d="M1491 504l-59 -21q-15 -6 -19 -17.5t-4 -57.5v-345q-209 -59 -332.5 -81.5t-232.5 -22.5q-177 0 -334.5 59t-265.5 164q-96 96 -147.5 229t-51.5 287q0 169 63 309.5t177 238.5t277.5 152t359.5 54q123 0 223.5 -17t271.5 -67q-41 -157 -41 -311h-63v108q0 58 -40 96.5 t-130 67.5q-115 37 -275 37q-287 0 -445.5 -164.5t-158.5 -460.5q0 -319 179.5 -507.5t484.5 -188.5q102 0 182.5 19.5t97.5 48.5q13 23 13 88v207q0 36 -15.5 52t-54.5 19l-170 15v61q126 -6 250 -6q126 0 252 6zM1188 1817l-275 -277h-139l-276 277h77l269 -172l268 172 h76z"/>
<glyph unicode="ǧ" horiz-adv-x="1138" d="M1114 858l-51 -84h-189q23 -62 23 -110q0 -157 -137 -258q-64 -45 -140 -72t-141 -27q-9 0 -49 4q-12 -12 -24 -22q-40 -34 -55 -54t-15 -40q0 -80 156 -80h327q107 0 174.5 -70t67.5 -180q0 -123 -73.5 -225.5t-200.5 -161t-279 -58.5q-195 0 -318.5 88.5t-123.5 227.5 q0 47 17.5 95t39.5 60l178 97q-74 22 -104.5 48.5t-30.5 69.5q0 41 31 89l161 124q-114 12 -179.5 85.5t-65.5 187.5q0 191 174 291q134 78 278 78q142 0 250 -87l291 9zM725 602q0 130 -64.5 209.5t-168.5 79.5q-98 0 -152.5 -65.5t-54.5 -184.5q0 -118 63 -191t166 -73 q94 0 152.5 62.5t58.5 162.5zM899 -209q0 100 -69 140t-242 40q-185 0 -232 -20q-62 -28 -98.5 -85t-36.5 -126q0 -114 83.5 -185t217.5 -71q161 0 269 87.5t108 219.5zM885 1384l-256 -342h-127l-256 342h71l248 -210l250 210h70z"/>
<glyph unicode="Ǫ" horiz-adv-x="1609" d="M1565 752q0 -267 -150.5 -472t-396.5 -282q-60 -20 -85 -28.5t-66.5 -30t-57.5 -43.5q-68 -85 -68 -166q0 -72 28.5 -110t70.5 -38q46 0 84.5 23t48.5 63l16 64l53 -15v-112l-75 -66q-60 -51 -187 -51q-85 0 -132.5 57.5t-47.5 130.5q0 75 42.5 148t113.5 135 q-204 0 -366 94.5t-253.5 263.5t-91.5 381q0 223 96.5 394.5t273.5 265.5t408 94q341 0 541.5 -189t200.5 -511zM1346 690q0 319 -147.5 497.5t-410.5 178.5q-252 0 -388 -154t-136 -438q0 -328 159 -528.5t417 -200.5q238 0 372 170.5t134 474.5z"/>
<glyph unicode="ǫ" horiz-adv-x="1118" d="M1053 485q0 -170 -87.5 -299.5t-236.5 -187.5q-52 -21 -75 -30.5t-59 -30.5t-50 -41q-68 -85 -68 -166q0 -72 28.5 -110t69.5 -38q47 0 85.5 23t48.5 63l16 64l53 -15v-112l-76 -66q-60 -51 -186 -51q-85 0 -132.5 57.5t-47.5 130.5q0 75 42.5 149t113.5 134 q-190 8 -308 141.5t-118 343.5q0 229 140.5 373t364.5 144q210 0 346 -134.5t136 -341.5zM862 410q0 209 -93 346t-234 137q-135 0 -207 -97.5t-72 -281.5q0 -218 92.5 -352.5t243.5 -134.5q125 0 197.5 103t72.5 280z"/>
<glyph unicode="Ǵ" horiz-adv-x="1562" d="M1491 504l-59 -21q-15 -6 -19 -17.5t-4 -57.5v-345q-209 -59 -332.5 -81.5t-232.5 -22.5q-177 0 -334.5 59t-265.5 164q-96 96 -147.5 229t-51.5 287q0 169 63 309.5t177 238.5t277.5 152t359.5 54q123 0 223.5 -17t271.5 -67q-41 -157 -41 -311h-63v108q0 58 -40 96.5 t-130 67.5q-115 37 -275 37q-287 0 -445.5 -164.5t-158.5 -460.5q0 -319 179.5 -507.5t484.5 -188.5q102 0 182.5 19.5t97.5 48.5q13 23 13 88v207q0 36 -15.5 52t-54.5 19l-170 15v61q126 -6 250 -6q126 0 252 6zM1124 1763q0 -23 -17 -38.5t-71 -41.5l-319 -149h-88 l305 231q68 51 123 54q28 0 47.5 -16.5t19.5 -39.5z"/>
<glyph unicode="ǵ" horiz-adv-x="1138" d="M1114 858l-51 -84h-189q23 -62 23 -110q0 -157 -137 -258q-64 -45 -140 -72t-141 -27q-9 0 -49 4q-12 -12 -24 -22q-40 -34 -55 -54t-15 -40q0 -80 156 -80h327q107 0 174.5 -70t67.5 -180q0 -123 -73.5 -225.5t-200.5 -161t-279 -58.5q-195 0 -318.5 88.5t-123.5 227.5 q0 47 17.5 95t39.5 60l178 97q-74 22 -104.5 48.5t-30.5 69.5q0 41 31 89l161 124q-114 12 -179.5 85.5t-65.5 187.5q0 191 174 291q134 78 278 78q142 0 250 -87l291 9zM725 602q0 130 -64.5 209.5t-168.5 79.5q-98 0 -152.5 -65.5t-54.5 -184.5q0 -118 63 -191t166 -73 q94 0 152.5 62.5t58.5 162.5zM899 -209q0 100 -69 140t-242 40q-185 0 -232 -20q-62 -28 -98.5 -85t-36.5 -126q0 -114 83.5 -185t217.5 -71q161 0 269 87.5t108 219.5zM842 1317q0 -28 -15.5 -46t-66.5 -50l-295 -185h-82l283 283q67 67 112 67q26 0 45 -20t19 -49z"/>
<glyph unicode="Ǻ" horiz-adv-x="1593" d="M1548 -6q-129 6 -260 6q-143 0 -284 -6v61l96 6q84 7 84 41q0 25 -43 131l-94 236h-590l-58 -137q-71 -168 -71 -217q0 -25 22 -37.5t76 -16.5l76 -6v-61q-123 6 -248 6q-112 0 -223 -6v61l75 6q68 6 111 101l453 1028q35 77 60 138t32 84l8 22h66l495 -1164 q56 -128 82.5 -167t65.5 -42l69 -6v-61zM1010 551l-258 610l-260 -610h518zM1085 2193q0 -23 -16.5 -37.5t-71.5 -41.5l-319 -150h-88l305 231q68 51 123 54q28 0 47.5 -16.5t19.5 -39.5zM1010 1718q0 -86 -60 -145.5t-145 -59.5q-86 0 -145.5 59.5t-59.5 147.5 q0 85 60.5 144t148.5 59q82 0 141.5 -60.5t59.5 -144.5zM932 1718q0 58 -34.5 94.5t-90.5 36.5q-59 0 -94 -35.5t-35 -93.5q0 -61 34 -97t93 -36q57 0 92 36t35 95z"/>
<glyph unicode="ǻ" horiz-adv-x="1024" d="M965 -6q-77 6 -152 6q-81 0 -160 -6l11 174l-254 -176q-24 -17 -86 -17q-122 0 -190 66t-68 186q0 134 93 211t302 115l203 37q-5 140 -69.5 201t-209.5 61q-71 0 -99 -19.5t-59 -91.5l-26 -63l-54 14v133l109 66q116 70 248 70q178 0 250.5 -91.5t72.5 -316.5v-375 q0 -75 10.5 -96t47.5 -23l80 -4v-61zM664 254v270q-244 -36 -320 -82q-46 -30 -74 -80t-28 -106q0 -66 45.5 -115t107.5 -49q60 0 142.5 49.5t126.5 112.5zM786 1696q0 -23 -17 -38.5t-71 -41.5l-319 -150h-88l305 232q67 50 123 53q28 0 47.5 -16t19.5 -39zM711 1221 q0 -86 -60 -145.5t-145 -59.5q-86 0 -145.5 59.5t-59.5 147.5q0 85 60.5 143.5t148.5 58.5q82 0 141.5 -60t59.5 -144zM633 1221q0 58 -34.5 94.5t-90.5 36.5q-58 0 -93.5 -35t-35.5 -94q0 -61 34 -97t93 -36q57 0 92 36t35 95z"/>
<glyph unicode="Ǽ" horiz-adv-x="1933" d="M1860 336q-33 -175 -33 -336l-344 -6q-252 6 -506 6q-71 0 -141 -6v47l57 33q29 17 41 55t12 117v250q-126 6 -252 6q-125 0 -248 -6l-131 -234q-36 -65 -46.5 -91t-10.5 -50q0 -51 109 -60l73 -6v-61q-102 6 -200 6q-131 0 -260 -6v61l69 11q48 7 107 112l592 1049 q38 65 38 96q0 11 -24 17t-86 10l-90 6v61q264 -6 526 -6q232 0 463 6l252 -6q-33 -129 -33 -311h-72v133q0 35 -9.5 47.5t-45.5 22.5q-116 28 -297 28q-107 0 -150 -3t-90 -13v-547q120 -8 324 -8q76 0 110 14.5t38 63.5l10 106h61q-6 -120 -6 -237q0 -114 6 -228h-61 l-10 121q-4 47 -38.5 61.5t-111.5 14.5l-322 -6v-574q79 -16 203 -16q303 0 377 24q51 16 78 232h72zM946 580v761h-24l-426 -761h450zM1319 1763q0 -23 -17 -38.5t-71 -41.5l-320 -149h-88l305 231q68 51 123 54q28 0 48 -16.5t20 -39.5z"/>
<glyph unicode="ǽ" horiz-adv-x="1552" d="M1499 569q0 -11 -4 -69q-178 -29 -371 -29h-299q3 -89 15 -141t41 -103q42 -76 122.5 -117.5t182.5 -41.5q67 0 121.5 19.5t146.5 76.5l29 -21l-41 -69q-14 -22 -103 -60q-125 -55 -241 -55q-86 0 -165 29t-138 80q-51 47 -90 114l-252 -196q-34 -27 -113 -27 q-127 0 -203 70.5t-76 189.5q0 135 84 201q46 34 160.5 65.5t243.5 44.5l115 13q-5 91 -16 136.5t-40 86.5q-28 40 -75 63t-101 23q-53 0 -110 -16.5t-76 -38.5q-28 -32 -51 -119l-54 12v127l201 109q63 35 145 35q99 0 169 -34.5t130 -111.5q100 83 171 114.5t159 31.5 q107 0 195.5 -47.5t138.5 -131.5q49 -84 49 -213zM664 240v237q-123 -13 -165.5 -20.5t-109.5 -26.5q-92 -27 -115 -59q-36 -52 -36 -121q0 -74 45.5 -116t126.5 -42q72 0 129.5 33t124.5 115zM1329 547q0 79 -10 127t-37 98q-34 63 -76.5 92t-101.5 29q-62 0 -119.5 -28.5 t-93.5 -76.5q-31 -43 -45 -95.5t-17 -139.5q157 -14 261 -12zM1053 1317q0 -28 -15.5 -46t-66.5 -50l-295 -185h-82l283 283q67 67 112 67q26 0 45 -20t19 -49z"/>
<glyph unicode="Ǿ" horiz-adv-x="1705" d="M1632 1391l-180 -170q85 -108 122.5 -216t37.5 -247q0 -168 -61.5 -316.5t-168 -254t-255.5 -167t-318 -61.5q-186 0 -340 74q-62 29 -154 104l-186 -174l-68 60l193 180q-44 59 -64.5 94t-39.5 84q-58 147 -58 319q0 224 96 395t272.5 264t407.5 93q205 0 369 -74 q72 -34 154 -96l176 170zM1393 696q0 122 -18 208.5t-62 182.5l-864 -819q91 -118 192.5 -170.5t241.5 -52.5q243 0 376.5 170.5t133.5 480.5zM1262 1167q-60 68 -106 101t-118 59q-101 39 -213 39q-246 0 -380 -156t-134 -442q0 -129 20.5 -227.5t69.5 -198.5zM1135 1763 q0 -23 -17 -38.5t-71 -41.5l-320 -149h-88l305 231q68 51 123 54q28 0 48 -16.5t20 -39.5z"/>
<glyph unicode="ǿ" horiz-adv-x="1138" d="M1085 920l-129 -125q58 -78 82.5 -148t24.5 -160q0 -229 -151.5 -378.5t-383.5 -149.5q-97 0 -167.5 26.5t-143.5 90.5l-127 -123l-57 47l137 131q-51 78 -72.5 149t-21.5 162q0 227 144 373t370 146q94 0 165.5 -26t147.5 -87l127 123zM872 403q0 125 -45 267l-487 -475 q52 -88 114.5 -128t145.5 -40q123 0 197.5 103t74.5 273zM795 741q-101 152 -252 152q-132 0 -204.5 -97t-72.5 -272q0 -128 41 -258zM846 1317q0 -28 -15.5 -46t-66.5 -50l-295 -185h-82l283 283q67 67 112 67q26 0 45 -20t19 -49z"/>
<glyph unicode="Ȁ" horiz-adv-x="1593" d="M1548 -6q-129 6 -260 6q-143 0 -284 -6v61l96 6q84 7 84 41q0 25 -43 131l-94 236h-590l-58 -137q-71 -168 -71 -217q0 -25 22 -37.5t76 -16.5l76 -6v-61q-123 6 -248 6q-112 0 -223 -6v61l75 6q68 6 111 101l453 1028q35 77 60 138t32 84l8 22h66l495 -1164 q56 -128 82.5 -167t65.5 -42l69 -6v-61zM1010 551l-258 610l-260 -610h518zM758 1534h-88l-320 149q-54 26 -71 41.5t-17 38.5t20 39.5t48 16.5q55 -3 123 -54zM1085 1534h-88l-319 149q-54 26 -71 41.5t-17 38.5t19.5 39.5t47.5 16.5q55 -3 123 -54z"/>
<glyph unicode="ȁ" horiz-adv-x="1024" d="M965 -6q-77 6 -152 6q-81 0 -160 -6l11 174l-254 -176q-24 -17 -86 -17q-122 0 -190 66t-68 186q0 134 93 211t302 115l203 37q-5 140 -69.5 201t-209.5 61q-71 0 -99 -19.5t-59 -91.5l-26 -63l-54 14v133l109 66q116 70 248 70q178 0 250.5 -91.5t72.5 -316.5v-375 q0 -75 10.5 -96t47.5 -23l80 -4v-61zM664 254v270q-244 -36 -320 -82q-46 -30 -74 -80t-28 -106q0 -66 45.5 -115t107.5 -49q60 0 142.5 49.5t126.5 112.5zM743 1028h-81l-277 201q-45 32 -62.5 54.5t-17.5 47.5q0 28 19 48t45 20q54 0 112 -68zM436 1028h-82l-276 201 q-45 32 -62.5 54.5t-17.5 47.5q0 28 18.5 48t44.5 20q25 0 56 -18.5t57 -49.5z"/>
<glyph unicode="Ȅ" horiz-adv-x="1251" d="M1171 336q-32 -170 -32 -336l-342 -6q-237 6 -475 6q-126 0 -252 -6v61l73 6q32 3 48.5 7.5t29.5 13.5t18 31.5t7 51t2 81.5v919q0 65 -2.5 97t-15 53.5t-31 27t-56.5 7.5l-98 6v61q181 -6 365 -6q238 0 475 6l254 -6q-33 -129 -33 -311h-72v133q0 36 -9.5 48t-45.5 22 q-103 28 -297 28q-107 0 -150 -3t-90 -13v-547q120 -8 328 -8q72 0 102 14t41 64q4 17 7 43.5t4 44.5v18h61q-6 -120 -6 -237q0 -114 6 -228h-61q-3 76 -11 121q-10 48 -40 62t-103 14l-328 -6v-574q79 -16 203 -16q303 0 377 24q22 8 40.5 52t27.5 110l10 70h71zM582 1534 h-88l-320 149q-54 26 -71 41.5t-17 38.5t20 39.5t48 16.5q54 -3 122 -54zM909 1534h-88l-319 149q-54 26 -71 41.5t-17 38.5t19.5 39.5t47.5 16.5q55 -3 123 -54z"/>
<glyph unicode="ȅ" horiz-adv-x="980" d="M918 571q0 -11 -1 -21.5t-2 -25t-2 -24.5q-178 -29 -370 -29h-299q3 -89 15.5 -141t41.5 -103q43 -75 122 -117t179 -42q65 0 116 18.5t150 77.5l27 -21l-41 -69q-6 -10 -36.5 -28t-69.5 -34q-120 -53 -236 -53t-214.5 45.5t-158.5 126.5q-86 118 -86 318q0 160 55 262 t181 174q130 76 248 76q172 0 276.5 -106.5t104.5 -283.5zM735 547q0 99 -14.5 154.5t-50.5 109.5q-55 82 -158 82q-74 0 -135.5 -39t-93.5 -106q-20 -40 -27.5 -81.5t-7.5 -113.5q133 -12 258 -12zM776 1028h-82l-276 201q-45 32 -62.5 54.5t-17.5 47.5q0 28 18.5 48 t44.5 20q25 0 56 -18.5t57 -49.5zM469 1028h-82l-276 201q-45 32 -62.5 54.5t-17.5 47.5q0 28 18.5 48t44.5 20q25 0 56 -18.5t57 -49.5z"/>
<glyph unicode="Ȉ" horiz-adv-x="690" d="M645 -6q-150 6 -301 6q-149 0 -299 -6v61l98 6q38 2 56.5 7.5t31 27t15 53.5t2.5 97v919q0 65 -2.5 97t-15 53.5t-31 27t-56.5 7.5l-98 6v61q150 -6 299 -6q151 0 301 6v-61l-98 -6q-38 -2 -56.5 -7.5t-31 -27t-15 -53.5t-2.5 -97v-919q0 -65 2.5 -97t15 -53.5t31 -27 t56.5 -7.5l98 -6v-61zM301 1534h-88l-319 149q-55 27 -72 42t-17 38t20 39.5t48 16.5q55 -3 123 -54zM629 1534h-88l-320 149q-54 26 -71 41.5t-17 38.5t20 39.5t48 16.5q55 -3 123 -54z"/>
<glyph unicode="ȉ" horiz-adv-x="587" d="M555 -6q-129 6 -256 6t-256 -6v61l94 6q52 3 64 26.5t12 121.5v461q0 72 -6 100.5t-23 38.5t-61 10h-76v58q159 18 320 84l18 -9v-743q0 -98 12 -121.5t64 -26.5l94 -6v-61zM539 1028h-82l-277 201q-45 32 -62.5 54.5t-17.5 47.5q0 28 19 48t45 20q54 0 112 -68z M231 1028h-81l-277 201q-45 32 -62.5 54.5t-17.5 47.5q0 28 19 48t45 20q54 0 112 -68z"/>
<glyph unicode="Ȍ" horiz-adv-x="1609" d="M1565 752q0 -222 -105.5 -404t-290.5 -285.5t-411 -103.5q-204 0 -367 94.5t-254.5 263.5t-91.5 381q0 223 96.5 394.5t273.5 265.5t408 94q341 0 541.5 -189t200.5 -511zM1346 690q0 319 -147.5 497.5t-410.5 178.5q-252 0 -388 -154t-136 -438q0 -328 159 -528.5 t417 -200.5q238 0 372 170.5t134 474.5zM778 1534h-88l-319 149q-54 26 -71 41.5t-17 38.5t19.5 39.5t47.5 16.5q55 -3 123 -54zM1106 1534h-88l-320 149q-54 26 -71 41.5t-17 38.5t20 39.5t48 16.5q55 -3 123 -54z"/>
<glyph unicode="ȍ" horiz-adv-x="1118" d="M1053 485q0 -230 -152.5 -378t-388.5 -148q-198 0 -322 134.5t-124 350.5q0 229 140.5 373t364.5 144q210 0 346 -134.5t136 -341.5zM862 410q0 209 -93 346t-234 137q-135 0 -207 -97.5t-72 -281.5q0 -218 92.5 -352.5t243.5 -134.5q125 0 197.5 103t72.5 280zM811 1028 h-82l-276 201q-45 32 -62.5 54.5t-17.5 47.5q0 28 18.5 48t44.5 20q25 0 56 -18.5t57 -49.5zM504 1028h-82l-277 201q-44 32 -61.5 54.5t-17.5 47.5q0 28 18.5 48t44.5 20q25 0 56 -18.5t57 -49.5z"/>
<glyph unicode="Ȑ" horiz-adv-x="1368" d="M1370 -6q-74 6 -147 6q-69 0 -140 -6l-84 110l-376 506q-49 67 -95 117v33h60q178 0 282.5 83t104.5 224q0 131 -86 201.5t-246 70.5q-96 0 -201 -24v-1069q0 -65 2.5 -97t15 -53.5t31 -27t56.5 -7.5l98 -6v-61q-150 6 -301 6q-149 0 -299 -6v61l98 6q38 2 56.5 7.5 t31 27t15 53.5t2.5 97v919q0 64 -2.5 96t-15 53.5t-31 27.5t-56.5 8l-84 6v61q178 -6 355 -6q62 0 183 3t183 3q198 0 299 -79t101 -228q0 -179 -164 -297q-51 -35 -100.5 -55.5t-135.5 -42.5l465 -606q20 -26 47.5 -37.5t77.5 -16.5v-61zM600 1534h-88l-319 149 q-55 27 -72 42t-17 38t20 39.5t48 16.5q55 -3 123 -54zM928 1534h-88l-320 149q-54 26 -71 41.5t-17 38.5t20 39.5t48 16.5q55 -3 123 -54z"/>
<glyph unicode="ȑ" horiz-adv-x="808" d="M766 938l-18 -246h-43q-47 94 -138 94q-75 0 -128.5 -66.5t-53.5 -158.5v-352q0 -101 13.5 -122.5t82.5 -25.5l107 -6v-61q-147 6 -293 6q-126 0 -252 -6v61l94 6q52 3 64 26.5t12 121.5v461q0 72 -6 100.5t-23 38.5t-61 10h-76v58q159 18 320 84l18 -9v-211l115 136 q32 38 78 61t92 23q58 0 96 -23zM625 1028h-82l-277 201q-45 32 -62.5 54.5t-17.5 47.5q0 28 19 48t45 20q54 0 112 -68zM317 1028h-81l-277 201q-45 32 -62.5 54.5t-17.5 47.5q0 28 19 48t45 20q54 0 112 -68z"/>
<glyph unicode="Ȕ" horiz-adv-x="1593" d="M1554 1356l-90 -6q-70 -4 -87 -34.5t-17 -150.5v-592q0 -336 -141 -477q-134 -137 -445 -137q-308 0 -432 127q-115 118 -115 352v727q0 53 -2 81.5t-7 51t-18 32t-29.5 14t-47.5 6.5l-98 6v61q150 -6 299 -6q151 0 301 6v-61l-99 -6q-31 -2 -47.5 -6.5t-29.5 -14 t-18 -32t-7 -51t-2 -81.5v-704q0 -197 96.5 -286t310.5 -89q223 0 330 103.5t107 320.5v655q0 64 -2.5 96t-15 53.5t-31 27.5t-56.5 8l-90 6v61q120 -6 238 -6q122 0 245 6v-61zM799 1534h-88l-320 149q-54 26 -71 41.5t-17 38.5t20 39.5t48 16.5q55 -3 123 -54zM1126 1534 h-88l-319 149q-54 26 -71 41.5t-17 38.5t19.5 39.5t47.5 16.5q55 -3 123 -54z"/>
<glyph unicode="ȕ" horiz-adv-x="1234" d="M1190 -6q-86 6 -170 6q-85 0 -170 -6q8 128 8 188l-137 -127q-86 -80 -229 -80q-171 0 -240 93q-28 38 -38.5 94.5t-10.5 163.5v344q0 72 -6 100.5t-23 38.5t-61 10h-76v58q158 17 319 84l19 -9v-604q0 -137 43 -186q52 -62 162 -62q116 0 202 86q35 35 55.5 75.5 t20.5 74.5v334q0 72 -6 100.5t-23 38.5t-61 10h-76v58q159 18 320 84l18 -9v-743q0 -99 12 -122t64 -26l84 -6v-61zM856 1028h-82l-276 201q-45 32 -62.5 54.5t-17.5 47.5q0 28 18.5 48t44.5 20q25 0 56 -18.5t57 -49.5zM549 1028h-82l-277 201q-44 32 -61.5 54.5 t-17.5 47.5q0 28 18.5 48t44.5 20q25 0 56 -18.5t57 -49.5z"/>
<glyph unicode="Ș" horiz-adv-x="1075" d="M1030 471q0 -147 -79 -264t-219 -182.5t-316 -65.5t-355 78q17 130 17 231q0 45 -2 82h65l17 -137q8 -63 109.5 -113.5t224.5 -50.5q160 0 263 90t103 228q0 114 -78 180q-40 34 -102 54.5t-180 37.5q-148 20 -229 47.5t-134 75.5q-86 80 -86 229q0 201 148.5 331 t377.5 130q86 0 167 -18.5t202 -67.5q-29 -161 -29 -289h-65l-12 117q-5 45 -25.5 72t-71.5 53q-83 47 -211 47q-135 0 -222 -83t-87 -212q0 -118 75 -175.5t263 -82.5q174 -24 254 -49.5t133 -75.5q84 -78 84 -217zM588 -180q-39 -103 -79 -170t-116 -166l-71 -39l-25 18 q57 92 78.5 159t30.5 169q48 14 161 51z"/>
<glyph unicode="ș" horiz-adv-x="868" d="M801 303q0 -151 -129 -247.5t-330 -96.5q-133 0 -281 49q23 118 23 285h61v-84q0 -76 71.5 -125t184.5 -49q109 0 178.5 52.5t69.5 135.5q0 59 -31 93t-100 49q-215 48 -303 88q-139 64 -139 211q0 138 102.5 217.5t280.5 79.5q113 0 266 -52q-7 -78 -10 -231h-58v47 q0 72 -69 120t-172 48q-94 0 -145.5 -42t-51.5 -118q0 -70 48.5 -106.5t174.5 -61.5q139 -27 200.5 -49t100.5 -61q58 -58 58 -152zM494 -180q-39 -103 -79 -170t-116 -166l-72 -39l-24 18q56 92 77.5 158.5t30.5 169.5q57 17 162 51z"/>
<glyph unicode="Ț" horiz-adv-x="1255" d="M1219 1417q-15 -176 -15 -330h-63l-8 162q-1 37 -20 52.5t-62 15.5h-318q-8 -91 -8 -205v-866q0 -53 2 -81.5t7 -51t18 -32t29.5 -14t47.5 -6.5l99 -6v-61q-150 6 -301 6q-149 0 -299 -6v61l98 6q31 2 47.5 6.5t29.5 14t18 32t7 51t2 81.5v866q0 112 -8 205h-317 q-43 0 -62 -15.5t-20 -52.5l-8 -162h-64q0 166 -14 330l416 -6h323zM721 -180q-39 -103 -79 -170t-116 -166l-71 -39l-25 18q57 92 78.5 159t30.5 169q48 14 161 51z"/>
<glyph unicode="ț" horiz-adv-x="667" d="M653 893l-18 -111h-262v-536q0 -75 26 -108.5t86 -33.5q52 0 121 39l27 -34l-98 -109q-9 -10 -41 -17.5t-68 -7.5q-118 0 -171.5 52t-53.5 166v589l-156 -8v43l160 72v143q0 81 -8 162q102 32 174 78l24 -23q-22 -180 -22 -291v-77zM426 -180q-39 -103 -79 -170 t-116 -166l-71 -39l-25 18q57 92 78.5 159t30.5 169q57 17 162 51z"/>
<glyph unicode="ɘ" horiz-adv-x="980" d="M918 449q0 -199 -87 -318q-60 -82 -158 -127t-214 -45t-236 53q-39 16 -69.5 34t-36.5 28l-41 69l26 21q99 -59 150 -77.5t117 -18.5q100 0 179 42t122 117q29 51 41.5 103t15.5 141h-299q-193 0 -371 29q-4 58 -4 71q0 177 104.5 283.5t276.5 106.5q118 0 248 -76 q126 -72 181 -174t55 -262zM723 553q0 72 -7.5 113.5t-27.5 81.5q-32 67 -93.5 106t-135.5 39q-103 0 -158 -82q-36 -54 -50.5 -109.5t-14.5 -154.5l229 -6q125 0 258 12z"/>
<glyph unicode="ə" horiz-adv-x="980" d="M918 471q0 -160 -55 -262t-181 -174q-130 -76 -248 -76q-172 0 -276.5 106t-104.5 283q0 14 4 72q178 29 371 29h299q-3 88 -15 139.5t-42 103.5q-43 75 -122.5 117.5t-178.5 42.5q-66 0 -117 -18.5t-150 -77.5l-26 20l41 70q15 23 106 61q123 54 236 54q116 0 214 -45.5 t158 -127.5q87 -119 87 -317zM723 367q-133 12 -258 12l-229 -6q0 -99 14.5 -154.5t50.5 -109.5q55 -82 158 -82q74 0 135.5 39t93.5 106q20 40 27.5 81.5t7.5 113.5z"/>
<glyph unicode="ʾ" horiz-adv-x="724" d="M643 1063q0 -194 -154 -291q-130 -80 -233 -80q-81 0 -166 49q-12 8 -8 19q18 74 18 164q0 7 5.5 11.5t11.5 4.5h39q12 0 16 -14l8 -78q18 -23 56.5 -37t78.5 -14q84 0 129 54.5t45 156.5q0 127 -63.5 203.5t-169.5 76.5q-70 0 -137 -37q-4 -3 -11 -1.5t-10 7.5l-14 21 q-4 8 0 16l29 45q12 18 78 36t122 18q145 0 237.5 -92.5t92.5 -237.5z"/>
<glyph unicode="ʿ" horiz-adv-x="724" d="M643 1325q-18 -73 -18 -164q0 -7 -5.5 -11.5t-11.5 -4.5h-39q-13 0 -16 14l-8 78q-18 23 -56.5 37t-78.5 14q-84 0 -129 -54.5t-45 -156.5q0 -127 63.5 -203.5t169.5 -76.5q70 0 137 37q4 3 11 1t10 -8l14 -20q4 -8 0 -16l-29 -46q-12 -18 -78 -35.5t-122 -17.5 q-145 0 -237.5 92.5t-92.5 237.5q0 194 154 291q130 80 233 80q80 0 166 -50q11 -8 8 -18z"/>
<glyph unicode="ˆ" d="M662 1042h-72l-248 211l-248 -211h-71l256 342h127z"/>
<glyph unicode="ˇ" d="M662 1384l-256 -342h-127l-256 342h71l248 -210l250 210h70z"/>
<glyph unicode="˘" d="M631 1374q-3 -67 -13.5 -108t-35.5 -82q-37 -64 -99.5 -98.5t-140.5 -34.5q-172 0 -248 145q-36 70 -41 178h62q5 -88 68.5 -144t158.5 -56t158.5 56t68.5 144h62z"/>
<glyph unicode="˙" horiz-adv-x="512" d="M358 1212q0 -46 -28 -74t-74 -28t-74 28t-28 74t28.5 74.5t75.5 28.5q44 0 72 -29t28 -74z"/>
<glyph unicode="˚" d="M547 1212q0 -86 -60 -145t-145 -59q-86 0 -145.5 59t-59.5 147q0 85 60.5 144t148.5 59q82 0 141.5 -60.5t59.5 -144.5zM469 1212q0 58 -34.5 94.5t-90.5 36.5q-58 0 -93.5 -35.5t-35.5 -93.5q0 -61 34 -97t93 -36q57 0 92 36t35 95z"/>
<glyph unicode="˛" horiz-adv-x="641" d="M543 -395l-76 -66q-60 -51 -186 -51q-85 0 -133 57.5t-48 130.5q0 101 74.5 197t185.5 158h84q-202 -162 -202 -301q0 -72 28.5 -110t69.5 -38q46 0 84.5 23t48.5 63l16 64l54 -15v-112z"/>
<glyph unicode="˜" d="M680 1321q-6 -90 -71 -152.5t-152 -62.5q-63 0 -140 39q-109 53 -145 53q-70 0 -109 -92h-59q22 100 77 152.5t140 52.5q36 0 67.5 -11t114.5 -51q64 -30 97 -30q43 0 70.5 23t50.5 79h59z"/>
<glyph unicode="˝" horiz-adv-x="778" d="M588 1331q0 -25 -17.5 -47.5t-62.5 -54.5l-277 -201h-81l262 303q58 68 112 68q26 0 45 -20t19 -48zM895 1331q0 -25 -17.5 -47.5t-62.5 -54.5l-276 -201h-82l262 303q58 68 112 68q26 0 45 -20t19 -48z"/>
<glyph unicode="̀" horiz-adv-x="0" d="M-330 1036h-82l-295 185q-51 32 -66 50t-15 46q0 29 18.5 49t44.5 20q46 0 113 -67z"/>
<glyph unicode="́" horiz-adv-x="0" d="M-233 1317q0 -28 -15.5 -46t-66.5 -50l-295 -185h-82l282 283q67 67 113 67q26 0 45 -20t19 -49z"/>
<glyph unicode="̂" horiz-adv-x="0" d="M-190 1042h-72l-248 211l-248 -211h-71l256 342h127z"/>
<glyph unicode="̃" horiz-adv-x="0" d="M-172 1321q-6 -90 -71 -152.5t-152 -62.5q-63 0 -140 39q-109 53 -145 53q-69 0 -108 -92h-60q22 100 77 152.5t140 52.5q36 0 67.5 -11t114.5 -51q64 -30 97 -30q43 0 70.5 23t50.5 79h59z"/>
<glyph unicode="̄" horiz-adv-x="0" d="M-190 1159h-639v109h639v-109z"/>
<glyph unicode="̆" horiz-adv-x="0" d="M-221 1374q-3 -67 -13.5 -108t-35.5 -82q-37 -64 -99.5 -98.5t-140.5 -34.5q-172 0 -248 145q-36 70 -41 178h62q5 -88 68.5 -144t158.5 -56t158.5 56t68.5 144h62z"/>
<glyph unicode="̇" horiz-adv-x="0" d="M-410 1212q0 -46 -28 -74t-74 -28t-74 28t-28 74t28.5 74.5t75.5 28.5q44 0 72 -29t28 -74z"/>
<glyph unicode="̈" horiz-adv-x="0" d="M-612 1212q0 -46 -28.5 -74t-74.5 -28t-74 28t-28 74t28.5 74.5t75.5 28.5q44 0 72.5 -29.5t28.5 -73.5zM-205 1212q0 -46 -28 -74t-74 -28t-74.5 28t-28.5 74t29 74.5t76 28.5q44 0 72 -29t28 -74z"/>
<glyph unicode="̉" horiz-adv-x="0" d="M-170 1319q0 -59 -104 -127q-12 -8 -31 -21q-31 -21 -39 -28t-8 -15q10 -11 35 -34l-52 -25q-15 6 -35 28t-20 40q0 22 14.5 41.5t57.5 54.5q38 29 51.5 45t13.5 31q0 20 -26.5 34.5t-65.5 14.5q-50 0 -61 -19l-25 -43l-63 15l49 100q92 29 129 29q78 0 129 -35t51 -86z "/>
<glyph unicode="̊" horiz-adv-x="0" d="M-305 1212q0 -86 -60 -145t-145 -59q-86 0 -145.5 59t-59.5 147q0 85 60.5 144t148.5 59q82 0 141.5 -60.5t59.5 -144.5zM-383 1212q0 58 -34.5 94.5t-90.5 36.5q-58 0 -93.5 -35.5t-35.5 -93.5q0 -61 34 -97t93 -36q57 0 92 36t35 95z"/>
<glyph unicode="̋" horiz-adv-x="0" d="M-313 1331q0 -25 -17.5 -47.5t-62.5 -54.5l-277 -201h-82l263 303q58 68 112 68q26 0 45 -20t19 -48zM-6 1331q0 -25 -17.5 -47.5t-62.5 -54.5l-276 -201h-82l262 303q58 68 112 68q26 0 45 -20t19 -48z"/>
<glyph unicode="̌" horiz-adv-x="0" d="M-190 1384l-256 -342h-127l-256 342h71l248 -210l250 210h70z"/>
<glyph unicode="̏" horiz-adv-x="0" d="M-272 1028h-82l-277 201q-45 32 -62.5 54.5t-17.5 47.5q0 28 19 48t45 20q54 0 112 -68zM-580 1028h-82l-276 201q-45 32 -62.5 54.5t-17.5 47.5q0 28 19 48t45 20q54 0 112 -68z"/>
<glyph unicode="̑" horiz-adv-x="0" d="M-221 1051h-62q-5 88 -68.5 144t-158.5 56t-158.5 -56t-68.5 -144h-62q3 67 13.5 108t35.5 82q37 64 99.5 98.5t140.5 34.5q172 0 248 -145q36 -70 41 -178z"/>
<glyph unicode="̣" horiz-adv-x="0" d="M-256 -293q0 -46 -28 -74t-74 -28t-74.5 28t-28.5 74t29 74.5t76 28.5q44 0 72 -29t28 -74z"/>
<glyph unicode="̦" horiz-adv-x="0" d="M-420 -180q-40 -103 -79.5 -170.5t-114.5 -165.5l-72 -39l-25 18q57 92 78.5 159t30.5 169q57 17 162 51z"/>
<glyph unicode="̮" horiz-adv-x="0" d="M-170 -160q-9 -127 -92.5 -195.5t-220.5 -68.5t-221 68.5t-91 195.5h66q6 -72 74.5 -118t171.5 -46q104 0 172 46t73 118h68z"/>
<glyph unicode="̯" horiz-adv-x="0" d="M-170 -424h-66q-6 72 -74.5 118t-170.5 46q-104 0 -172.5 -46t-73.5 -118h-68q9 127 93 195.5t221 68.5t220.5 -68.5t90.5 -195.5z"/>
<glyph unicode="̰" horiz-adv-x="0" d="M-135 -184q-6 -90 -71 -152.5t-152 -62.5q-63 0 -140 39q-109 53 -145 53q-70 0 -109 -92h-59q22 100 77 152t140 52q37 0 68.5 -10.5t113.5 -50.5q66 -31 97 -31q43 0 70 23t50 80h60z"/>
<glyph unicode="̱" horiz-adv-x="0" d="M-190 -346h-639v108h639v-108z"/>
<glyph unicode="̲" horiz-adv-x="0" d="M-190 -346h-639v108h639v-108z"/>
<glyph unicode="Α" horiz-adv-x="1593" d="M1548 -6q-129 6 -260 6q-143 0 -284 -6v61l96 6q84 7 84 41q0 25 -43 131l-94 236h-590l-58 -137q-71 -168 -71 -217q0 -25 22 -37.5t76 -16.5l76 -6v-61q-123 6 -248 6q-112 0 -223 -6v61l75 6q68 6 111 101l453 1028q35 77 60 138t32 84l8 22h66l495 -1164 q56 -128 82.5 -167t65.5 -42l69 -6v-61zM1010 551l-258 610l-260 -610h518z"/>
<glyph unicode="Β" horiz-adv-x="1251" d="M1180 467q0 -108 -51.5 -206.5t-141.5 -162.5q-141 -104 -377 -104q-42 0 -127 3t-127 3q-112 0 -223 -6v47l53 20q45 16 45 134v970q0 45 -1 70t-5 48t-9.5 33t-19 18.5t-28.5 11t-41 4.5l-74 6v61q163 -6 324 -6q61 0 182.5 3t183.5 3q367 0 367 -278q0 -159 -149 -262 q-43 -30 -87 -46.5t-118 -31.5q119 -9 183 -27.5t122 -60.5q119 -84 119 -244zM969 426q0 164 -99 241.5t-307 77.5q-57 0 -137 -4v-645q68 -16 158 -16q183 0 284 91.5t101 254.5zM907 1092q0 127 -75 185t-240 58q-95 0 -166 -16v-498q63 -4 125 -4q174 0 265 70.5 t91 204.5z"/>
<glyph unicode="Γ" horiz-adv-x="1138" d="M1098 1411q-33 -129 -33 -311h-72v133q0 36 -9.5 48.5t-45.5 21.5q-110 28 -276 28q-150 0 -220 -16v-1069q0 -65 2.5 -97t15 -53.5t31 -27t56.5 -7.5l98 -6v-61q-150 6 -301 6q-149 0 -299 -6v61l98 6q38 2 56.5 7.5t31 27t15 53.5t2.5 97v919q0 65 -2.5 97t-15 53.5 t-31 27t-56.5 7.5l-98 6v61q181 -6 361 -6q222 0 442 6z"/>
<glyph unicode="Δ" horiz-adv-x="1208" d="M1180 0h-1151l567 1497h29zM934 170l-379 1042l-389 -1042h768z"/>
<glyph unicode="Ε" horiz-adv-x="1251" d="M1171 336q-32 -170 -32 -336l-342 -6q-237 6 -475 6q-126 0 -252 -6v61l73 6q32 3 48.5 7.5t29.5 13.5t18 31.5t7 51t2 81.5v919q0 65 -2.5 97t-15 53.5t-31 27t-56.5 7.5l-98 6v61q181 -6 365 -6q238 0 475 6l254 -6q-33 -129 -33 -311h-72v133q0 36 -9.5 48t-45.5 22 q-103 28 -297 28q-107 0 -150 -3t-90 -13v-547q120 -8 328 -8q72 0 102 14t41 64q4 17 7 43.5t4 44.5v18h61q-6 -120 -6 -237q0 -114 6 -228h-61q-3 76 -11 121q-10 48 -40 62t-103 14l-328 -6v-574q79 -16 203 -16q303 0 377 24q22 8 40.5 52t27.5 110l10 70h71z"/>
<glyph unicode="Ζ" horiz-adv-x="1366" d="M1307 354q-13 -147 -13 -360q-313 6 -624 6q-320 0 -639 -6v57q169 201 198 240l619 794q4 5 21.5 27t21.5 27t18.5 23.5t19 24.5l16.5 22t17.5 23.5t15 21.5t16 24.5t14.5 23t16 25.5h-467q-188 0 -247.5 -18t-63.5 -78l-13 -146h-69q6 114 6 166t-6 166h338 q92 0 237.5 -3t237.5 -3l319 6l9 -59l-996 -1268h559q85 0 134.5 1.5t93 7.5t63.5 14t36 27t21 40t9 58l12 116h70z"/>
<glyph unicode="Η" horiz-adv-x="1703" d="M1659 -6q-150 6 -301 6q-149 0 -299 -6v61l98 6q38 2 56.5 7.5t31 27t15 53.5t2.5 97v456q-69 5 -170 5h-480q-101 0 -170 -5v-456q0 -65 2.5 -97t15 -53.5t31 -27t56.5 -7.5l98 -6v-61q-150 6 -301 6q-149 0 -299 -6v61l98 6q38 2 56.5 7.5t31 27t15 53.5t2.5 97v919 q0 65 -2.5 97t-15 53.5t-31 27t-56.5 7.5l-98 6v61q150 -6 299 -6q151 0 301 6v-61l-98 -6q-38 -2 -56.5 -7.5t-31 -27t-15 -53.5t-2.5 -97v-364q82 -4 170 -4h480q84 0 170 4v364q0 65 -2.5 97t-15 53.5t-31 27t-56.5 7.5l-98 6v61q150 -6 299 -6q151 0 301 6v-61l-98 -6 q-38 -2 -56.5 -7.5t-31 -27t-15 -53.5t-2.5 -97v-919q0 -65 2.5 -97t15 -53.5t31 -27t56.5 -7.5l98 -6v-61z"/>
<glyph unicode="Θ" horiz-adv-x="1609" d="M1565 752q0 -222 -105.5 -404t-290.5 -285.5t-411 -103.5q-204 0 -367 94.5t-254.5 263.5t-91.5 381q0 223 96.5 394.5t273.5 265.5t408 94q341 0 541.5 -189t200.5 -511zM1346 690q0 319 -147.5 497.5t-410.5 178.5q-252 0 -388 -154t-136 -438q0 -328 159 -528.5 t417 -200.5q238 0 372 170.5t134 474.5zM1165 512h-45q-18 91 -28 111q-10 18 -17.5 26t-28 14.5t-55.5 6.5h-364q-46 0 -69.5 -11.5t-33.5 -44.5q-5 -11 -24 -102h-45q4 218 4 231q0 16 -4 234h45q20 -101 26 -113q10 -16 18 -23.5t29 -14.5t54 -7h364q50 0 71 11.5 t34 41.5q10 33 24 105h45q-4 -125 -4 -234q0 -110 4 -231z"/>
<glyph unicode="Ι" horiz-adv-x="690" d="M645 -6q-150 6 -301 6q-149 0 -299 -6v61l98 6q38 2 56.5 7.5t31 27t15 53.5t2.5 97v919q0 65 -2.5 97t-15 53.5t-31 27t-56.5 7.5l-98 6v61q150 -6 299 -6q151 0 301 6v-61l-98 -6q-38 -2 -56.5 -7.5t-31 -27t-15 -53.5t-2.5 -97v-919q0 -65 2.5 -97t15 -53.5t31 -27 t56.5 -7.5l98 -6v-61z"/>
<glyph unicode="Κ" horiz-adv-x="1486" d="M1473 -6q-67 6 -134 6q-81 0 -163 -6l-713 686l-21 -14v-420q0 -65 2.5 -97t15 -53.5t31 -27t56.5 -7.5l98 -6v-61q-150 6 -301 6q-149 0 -299 -6v61l98 6q38 2 56.5 7.5t31 27t15 53.5t2.5 97v919q0 65 -2.5 97t-15 53.5t-31 27t-56.5 7.5l-98 6v61q150 -6 299 -6 q151 0 301 6v-61l-98 -6q-38 -2 -56.5 -7.5t-31 -27t-15 -53.5t-2.5 -97v-438l570 555q59 59 59 80v55q92 -6 182 -6q81 0 164 6v-61l-86 -4q-76 -3 -160 -78l-544 -492l676 -639q48 -45 76 -64t51 -20l43 -4v-61z"/>
<glyph unicode="Λ" horiz-adv-x="1593" d="M1548 -6q-129 6 -260 6q-143 0 -284 -6v61l96 6q84 7 84 41l-432 1059l-424 -1046q0 -25 22 -37.5t76 -16.5l76 -6v-61q-123 6 -248 6q-112 0 -223 -6v61l75 6q68 6 111 101l453 1028q35 77 60 138t32 84l8 22h66l495 -1164q56 -128 82.5 -167t65.5 -42l69 -6v-61z"/>
<glyph unicode="Μ" horiz-adv-x="1937" d="M1896 -6q-153 6 -309 6q-130 0 -262 -6v61l70 6q26 2 41 4.5t28.5 11t19 18.5t9.5 33t5 48t1 70v938l-90 -176l-365 -775q-21 -45 -52.5 -124.5t-57.5 -135.5h-41l-571 1211v-938q0 -120 17 -150.5t87 -34.5l90 -6v-61q-123 6 -246 6q-117 0 -237 -6v61l90 6 q70 4 87 34.5t17 150.5v919q0 120 -17 150.5t-87 34.5l-90 6v61q99 -6 194 -6q96 0 195 6l541 -1138l536 1138q99 -6 195 -6t190 6v-61l-86 -6q-70 -4 -87 -34.5t-17 -150.5v-919q0 -53 2 -81.5t7 -51t18 -32t29.5 -14t47.5 -6.5l98 -6v-61z"/>
<glyph unicode="Ν" horiz-adv-x="1701" d="M1665 1356l-90 -6q-38 -2 -56.5 -8t-31 -27.5t-15 -53.5t-2.5 -96v-1130q0 -10 3.5 -38t3.5 -38l-185 33l-968 1202v-948q0 -120 17 -150.5t87 -34.5l90 -6v-61q-123 6 -246 6q-117 0 -237 -6v61l90 6q70 4 87 34.5t17 150.5v919q0 120 -17 150.5t-87 34.5l-90 6v61 q150 -6 246 -6l110 6l985 -1216v964q0 120 -17 150.5t-87 34.5l-90 6v61q120 -6 237 -6q123 0 246 6v-61z"/>
<glyph unicode="Ξ" horiz-adv-x="1409" d="M1251 1030h-55q-22 158 -49 195q-16 20 -45.5 27.5t-102.5 7.5h-579q-84 0 -114.5 -11t-45.5 -45q-19 -37 -39 -174h-55l10 293q0 11 -1 39t-1 45l4 6q3 0 199 -4l332 -2l256 2l274 4l4 -6q0 -15 -1 -42t-1 -40zM1331 389q-27 -183 -45 -389l-6 -8l-195 4l-376 4l-512 -6 l-58 -2l-8 8q-12 168 -45 389h59q48 -175 86 -205q15 -15 49 -21.5t107 -6.5h643q123 0 158 28q34 34 86 205h57zM1061 512h-45q-17 87 -29 111q-10 18 -17 26t-27.5 14.5t-55.5 6.5h-365q-46 0 -69 -11.5t-33 -44.5q-7 -14 -25 -102h-45q4 218 4 231q0 16 -4 234h45 q19 -97 27 -113q10 -16 17.5 -23.5t28.5 -14.5t54 -7h365q50 0 70.5 11.5t33.5 41.5q13 42 25 105h45q-4 -125 -4 -234q0 -110 4 -231z"/>
<glyph unicode="Ο" horiz-adv-x="1609" d="M1565 752q0 -222 -105.5 -404t-290.5 -285.5t-411 -103.5q-204 0 -367 94.5t-254.5 263.5t-91.5 381q0 223 96.5 394.5t273.5 265.5t408 94q341 0 541.5 -189t200.5 -511zM1346 690q0 319 -147.5 497.5t-410.5 178.5q-252 0 -388 -154t-136 -438q0 -328 159 -528.5 t417 -200.5q238 0 372 170.5t134 474.5z"/>
<glyph unicode="Π" horiz-adv-x="1581" d="M1536 -6q-150 6 -301 6q-149 0 -299 -6v61l98 6q38 2 56.5 7.5t31 27t15 53.5t2.5 97v1091h-697v-1091q0 -65 2.5 -97t15 -53.5t31 -27t56.5 -7.5l98 -6v-61q-150 6 -301 6q-149 0 -299 -6v61l98 6q38 2 56.5 7.5t31 27t15 53.5t2.5 97v919q0 65 -2.5 97t-15 53.5t-31 27 t-56.5 7.5l-98 6v61h1491v-61l-98 -6q-38 -2 -56.5 -7.5t-31 -27t-15 -53.5t-2.5 -97v-919q0 -65 2.5 -97t15 -53.5t31 -27t56.5 -7.5l98 -6v-61z"/>
<glyph unicode="Ρ" horiz-adv-x="1236" d="M1188 1100q0 -121 -65 -221t-179 -157.5t-252 -57.5q-60 0 -119 12l-20 74q70 -21 127 -21q134 0 218.5 87.5t84.5 225.5q0 146 -87 221.5t-253 75.5q-93 0 -201 -24v-1069q0 -65 2.5 -97t15 -53.5t31 -27t56.5 -7.5l98 -6v-61q-150 6 -301 6q-149 0 -299 -6v61l98 6 q38 2 56.5 7.5t31 27t15 53.5t2.5 97v919q0 79 -8.5 115.5t-30.5 51.5t-70 18l-92 6v61q187 -6 373 -6q58 0 174 3t174 3q195 0 307.5 -84.5t112.5 -232.5z"/>
<glyph unicode="Σ" horiz-adv-x="1259" d="M1204 371l-155 -512h-74q4 15 12 44t13.5 49t5.5 23q0 10 -10.5 17.5t-22.5 7.5h-973v31l752 641l-754 749v52h819q80 0 80 20q0 43 -18 106h75l113 -376h-74q-42 178 -135 178h-600l651 -649v-35l-633 -541h689q82 0 100 23q9 11 63 172h76z"/>
<glyph unicode="Τ" horiz-adv-x="1255" d="M1219 1417q-15 -176 -15 -330h-63l-8 162q-1 37 -20 52.5t-62 15.5h-318q-8 -91 -8 -205v-866q0 -53 2 -81.5t7 -51t18 -32t29.5 -14t47.5 -6.5l99 -6v-61q-150 6 -301 6q-149 0 -299 -6v61l98 6q31 2 47.5 6.5t29.5 14t18 32t7 51t2 81.5v866q0 112 -8 205h-317 q-43 0 -62 -15.5t-20 -52.5l-8 -162h-64q0 166 -14 330l416 -6h323z"/>
<glyph unicode="Υ" horiz-adv-x="1515" d="M1503 1118l-33 -18q-27 168 -192 168q-89 0 -175.5 -55t-146.5 -156q-60 -98 -83 -220.5t-23 -289.5v-420q0 -28 11 -40t48.5 -19.5t124.5 -12.5v-63q-141 8 -284 8q-153 0 -281 -8v63q69 2 123 11q34 6 47.5 21t13.5 42v418q0 287 -112 500q-116 227 -279 227 q-26 0 -47.5 -4.5t-51 -19t-60.5 -47.5t-62 -83l-18 -2l-17 25q122 270 348 270q121 0 204.5 -82.5t123.5 -238.5q60 -244 68 -445h10q18 213 104 447q57 155 166 238t240 83q114 0 173.5 -70t59.5 -190v-37z"/>
<glyph unicode="Φ" horiz-adv-x="1347" d="M1268 707q0 -84 -40.5 -154t-110.5 -117t-157.5 -75.5t-187.5 -38.5v-76q0 -65 2.5 -97t15 -53.5t31 -27t56.5 -7.5l98 -6v-61q-150 6 -301 6q-149 0 -299 -6v61l98 6q38 2 56.5 7.5t31 27t15 53.5t2.5 97v76q-100 10 -187.5 38.5t-157.5 75.5t-110.5 117t-40.5 154 q0 111 71 195.5t180.5 129.5t244.5 58v75q0 65 -2.5 97t-15 53.5t-31 27t-56.5 7.5l-98 6v61q150 -6 299 -6q151 0 301 6v-61l-98 -6q-38 -2 -56.5 -7.5t-31 -27t-15 -53.5t-2.5 -97v-75q135 -13 244.5 -58t180.5 -129.5t71 -195.5zM578 1016q-130 -26 -217 -109t-87 -200 q0 -118 87 -202t217 -110v621zM1075 707q0 117 -86.5 200t-216.5 109v-621q130 26 216.5 109.5t86.5 202.5z"/>
<glyph unicode="Χ" horiz-adv-x="1366" d="M1327 -6q-73 6 -145 6q-76 0 -152 -6l-377 627l-413 -627q-52 6 -105 6q-54 0 -106 -6v61l53 6q33 4 57.5 24.5t63.5 74.5l399 538l-262 437q-50 84 -100.5 132.5t-87.5 51.5l-93 6l-4 53l289 56q29 -15 55.5 -45t61.5 -89l262 -442l379 553h207v-61l-84 -7 q-23 -2 -51 -29t-89 -110l-315 -426l360 -573q52 -82 79.5 -111.5t56.5 -32.5l61 -6v-61z"/>
<glyph unicode="Ψ" horiz-adv-x="1427" d="M1346 1100q-54 0 -89.5 -43t-48 -102.5t-12.5 -133.5q0 -179 -109 -317.5t-276 -173.5v-84q0 -53 2 -81.5t7 -51t18 -32t29.5 -14t47.5 -6.5l99 -6v-61q-150 6 -301 6q-149 0 -299 -6v61l98 6q31 2 47.5 6.5t29.5 14t18 32t7 51t2 81.5v84q-167 35 -276 173.5t-109 317.5 q0 54 -7.5 101t-23.5 88.5t-46.5 65.5t-71.5 24v69q142 0 242 -102.5t100 -245.5q0 -140 49.5 -254.5t142.5 -156.5v755q0 53 -2 81.5t-7 51t-18 32t-29.5 14t-47.5 6.5l-98 6v61q150 -6 299 -6q151 0 301 6v-61l-99 -6q-31 -2 -47.5 -6.5t-29.5 -14t-18 -32t-7 -51 t-2 -81.5v-755q93 42 143 157t50 254q0 143 100 245.5t242 102.5v-69z"/>
<glyph unicode="Ω" horiz-adv-x="1566" d="M1540 367l-108 -367h-500q127 226 198.5 438t71.5 426q0 111 -24 219q-29 127 -84 199q-51 70 -132.5 106.5t-175.5 36.5q-93 0 -176.5 -40t-136.5 -113q-104 -139 -104 -408q0 -337 145 -618l127 -246h-500l-110 367h61l68 -205h313v26q-90 114 -150.5 205t-97.5 187 q-57 148 -57 299q0 126 43 240t129 200q88 88 203.5 133t242.5 45t243 -45t204 -133q84 -86 127 -201t43 -241q0 -176 -72 -338q-26 -59 -70 -128.5t-70.5 -104.5t-90.5 -118v-26h313l68 205h59z"/>
<glyph unicode="α" horiz-adv-x="1437" d="M1356 184q0 -91 -42.5 -158t-115.5 -67q-108 0 -180.5 75.5t-112.5 203.5q-58 -131 -134 -205t-187 -74q-136 0 -251.5 67.5t-183 183.5t-67.5 253q0 136 67.5 250.5t183 181t251.5 66.5q132 0 239 -79t164 -208q79 201 150 272l96 -67l27 -56q-82 -80 -138 -143.5 t-94 -132.5q8 -49 10 -78q3 -48 5.5 -76.5t7.5 -74.5t10.5 -75.5t14 -66.5t20 -60.5t26 -45t34 -31.5t42.5 -10q46 0 67 45t21 110h70zM879 354q-10 57 -13 103q-6 85 -24.5 158.5t-50.5 137.5t-85.5 101t-121.5 37q-95 0 -167 -62.5t-107.5 -158.5t-35.5 -207 q0 -112 35 -209.5t107.5 -161t167.5 -63.5q55 0 101.5 26t82 75t60.5 101t51 123z"/>
<glyph unicode="β" horiz-adv-x="1183" d="M1112 389q0 -94 -43.5 -175.5t-116.5 -136.5t-168.5 -86.5t-197.5 -31.5q-184 0 -332 100v-59q0 -256 -76 -477l-123 -23l-61 23q88 246 88 477v920q0 144 66 267.5t182.5 197t255.5 73.5q115 0 215 -43.5t162.5 -125.5t62.5 -185q0 -120 -97 -204.5t-241 -117.5 q85 -19 159 -53t134.5 -82t95.5 -115t35 -143zM920 389q0 73 -33 133t-88.5 101.5t-130.5 70t-157.5 41.5t-170.5 13v69q95 0 180 15.5t157 48t114.5 90t42.5 133.5q0 115 -71 200t-177 85q-102 0 -179.5 -68.5t-115 -173.5t-37.5 -227v-775q143 -116 332 -116 q141 0 237.5 106t96.5 254z"/>
<glyph unicode="γ" horiz-adv-x="1253" d="M1171 920q0 -96 -26.5 -190.5t-81.5 -190.5t-102 -163t-125 -167l-62 -80l2 -256q0 -63 -3 -111t-13.5 -102.5t-28.5 -89.5t-51 -58.5t-78 -23.5q-77 0 -121.5 61.5t-40 157t61.5 184.5q52 81 200 263q-3 77 -9 140.5t-18 130.5t-29 119t-43 99t-60 78t-81 49t-104 18 q-94 0 -150 -84t-56 -198h-70q0 69 10 133t31.5 123t53 103t78 70t103.5 26q77 0 139 -26.5t105 -77t74 -114t50 -149t29 -170.5t15 -188l10 16q109 140 164 311.5t55 356.5l115 20zM707 -127l-2 174q-103 -127 -144 -194q-43 -67 -53.5 -136t15 -114t79.5 -45q19 0 34 7 t25.5 22.5t18.5 32t13 42.5t8 48t4 54t1.5 54t0.5 55z"/>
<glyph unicode="δ" horiz-adv-x="1134" d="M1053 414q0 -125 -66.5 -230.5t-178 -165t-241.5 -59.5t-241 59.5t-177.5 165t-66.5 230.5q0 86 41 156t113 115.5t160.5 74t191.5 39.5q-108 86 -171 177.5t-63 199.5q0 115 70 198.5t174 83.5q84 0 158.5 -24t131.5 -75.5t79 -123.5l-105 -53l-61 4q-26 87 -78 145 t-125 58q-65 0 -100 -63t-35 -150q0 -43 16 -85t36.5 -72t60 -67.5t65.5 -57.5t74 -56q63 -46 97 -72.5t87.5 -75t81.5 -86.5t50 -89t22 -101zM860 414q0 173 -188 321q-166 -11 -282 -98t-116 -223q0 -157 81 -271t212 -114t212 114t81 271z"/>
<glyph unicode="ε" horiz-adv-x="1044" d="M963 186q-47 -100 -142 -159.5t-207 -59.5q-102 0 -195 20.5t-169.5 60.5t-122 106t-45.5 149q0 158 186 213q-116 66 -116 191q0 80 56.5 137t140.5 82.5t183 25.5q102 0 197 -37.5t170 -107.5l-49 -51q-133 127 -318 127q-85 0 -146.5 -50t-61.5 -126q0 -110 131 -162 q80 6 250 6l12 -74l-12 -37q-163 0 -285 25q-166 -35 -166 -162q0 -81 52 -143t133 -92.5t175 -30.5q92 0 169.5 48.5t117.5 131.5z"/>
<glyph unicode="ζ" horiz-adv-x="987" d="M946 -260q0 -103 -37.5 -177.5t-111.5 -74.5q-46 0 -85.5 23t-62.5 63l62 33q28 -49 86 -49q26 0 43.5 15t24.5 44.5t9.5 56.5t2.5 66q0 68 -37 121.5t-97 60.5l-311 43q-150 20 -250 130.5t-100 258.5q0 189 41 359.5t129 309t213 202.5q-80 83 -68 192l76 15l39 -15 q-9 -91 47 -157q62 16 121 16q39 0 62 -1.5t52.5 -8t43.5 -22t14 -40.5q0 -17 -6.5 -29.5t-21.5 -19.5t-27.5 -11.5t-37.5 -6t-38 -2t-41 -0.5q-86 0 -148 36q-63 -32 -110 -96t-74.5 -141.5t-44.5 -179t-23 -195.5t-6 -205q0 -80 13.5 -144.5t52.5 -115.5t100 -59l312 -43 q87 -12 140.5 -84.5t53.5 -167.5z"/>
<glyph unicode="η" horiz-adv-x="1327" d="M1245 621q0 -105 -46 -310.5t-46 -310.5q0 -231 88 -477l-123 -23l-61 23q-76 221 -76 477q0 104 36 310t36 311q0 114 -88 192t-211 78q-118 0 -202.5 -78.5t-84.5 -191.5v-621h-172v621q0 41 -0.5 63t-2 59.5t-6.5 59t-12.5 44.5t-20.5 33.5t-30 10.5t-30 -7.5 t-20.5 -25t-12 -32.5t-6 -44t-2 -44t-0.5 -48h-70q0 53 6.5 97.5t21.5 85.5t44 64.5t69 23.5q75 0 130.5 -49.5t86.5 -131.5q44 82 129.5 131.5t184.5 49.5q128 0 237.5 -38t181.5 -117t72 -185z"/>
<glyph unicode="θ" horiz-adv-x="1003" d="M922 713q0 -115 -13 -219.5t-44 -204t-78 -171.5t-120 -115.5t-165 -43.5t-165 43.5t-120 115.5t-78 171.5t-44 204t-13 219.5q0 113 13 216.5t44.5 201.5t78.5 169.5t120 114.5t164 43t164 -43t120 -114.5t78.5 -169.5t44.5 -201.5t13 -216.5zM729 748q0 79 -1 131 t-6 125.5t-13.5 122.5t-25.5 103t-40.5 85.5t-59 52.5t-81.5 21q-40 0 -72.5 -14.5t-55.5 -44.5t-40.5 -64t-28 -86t-17 -97t-9.5 -109.5t-4 -111.5t-1 -114h455zM729 678h-455q0 -79 1 -132.5t6 -127.5t14 -123.5t25.5 -104t40.5 -87t59.5 -53.5t81.5 -21t81.5 21t59 53.5 t40.5 87t25.5 103.5t13.5 124t6 127.5t1 132.5z"/>
<glyph unicode="ι" horiz-adv-x="698" d="M616 229q0 -70 -16.5 -129.5t-55.5 -100t-95 -40.5q-117 0 -201 78.5t-84 191.5v691h172v-691q0 -84 27.5 -142t85.5 -58q98 0 98 200h69z"/>
<glyph unicode="κ" horiz-adv-x="1132" d="M1051 229q0 -110 -66.5 -190t-165.5 -80q-81 0 -146.5 49t-100.5 128.5t-35 170.5q0 45 -22.5 77t-64.5 49t-88.5 25.5t-107.5 10.5v-469h-172v920h172v-363q54 24 100.5 68t102.5 112q40 49 74 84t77.5 69.5t92.5 52.5t100 18q79 0 129 -62t35 -139l-70 14 q10 44 -19 80.5t-75 36.5q-44 0 -84.5 -16t-79 -49t-63 -59.5t-62.5 -72.5q-88 -106 -160 -159q70 -5 130 -19.5t113 -40t83.5 -69t30.5 -99.5v-49.5t1.5 -47.5t4 -48.5t7.5 -41.5t13.5 -38t19.5 -27t27.5 -20t36.5 -6q71 0 116.5 59.5t45.5 140.5h70z"/>
<glyph unicode="λ" horiz-adv-x="1232" d="M1151 236q0 -108 -43.5 -186.5t-124.5 -78.5q-26 0 -49.5 12.5t-42 31t-37.5 50.5t-31.5 59t-28 70t-24.5 71t-22 73l-111 360l-358 -663l-132 -23l-65 23l483 895l-53 172q-10 34 -16.5 53t-18.5 50.5t-23 50t-26 38t-33 28.5t-39 9q-44 0 -67 -44t-23 -105h-69 q0 109 40 186.5t119 77.5q26 0 49 -11t41 -27t36 -45t29.5 -52t26 -62.5t22 -62t20.5 -64.5l235 -764q15 -48 24 -76t26.5 -70.5t33 -66t38 -41.5t46.5 -18q47 0 72.5 44.5t25.5 105.5h70z"/>
<glyph unicode="μ" horiz-adv-x="1394" d="M1313 229q0 -109 -48.5 -189.5t-134.5 -80.5q-83 0 -153.5 35.5t-112.5 95.5q-47 -61 -116.5 -96t-149.5 -35q-188 0 -303 92q15 -290 82 -563l-144 -25l-69 25q41 374 41 741v691h172v-691q0 -85 65 -142.5t156 -57.5q73 0 134 36.5t97 98.5q-8 40 -8 65v691h172v-691 q0 -81 36.5 -140.5t100.5 -59.5q58 0 85.5 58t27.5 142h70z"/>
<glyph unicode="ν" horiz-adv-x="1204" d="M1122 580q0 -151 -84 -281.5t-223 -210.5l-227 -133l-252 711q-79 225 -100 225q-27 0 -45 -15.5t-26 -44.5t-10.5 -57t-2.5 -67h-70q0 105 38.5 179.5t115.5 74.5q85 0 151.5 -60t99.5 -153l226 -639l67 38q124 71 198.5 185.5t74.5 247.5q0 150 -205 272l43 111l47 36 q97 -60 140.5 -171.5t43.5 -247.5z"/>
<glyph unicode="ξ" horiz-adv-x="1101" d="M1061 -260q0 -104 -39 -178t-115 -74q-45 0 -85.5 23t-63.5 61l59 37q28 -51 90 -51q26 0 44 15.5t26 44t11 57t3 65.5q0 70 -44 122.5t-111 59.5l-404 43q-144 15 -247 86t-103 185q0 225 262 321q-207 59 -207 223q0 162 109.5 282t285.5 175q-75 75 -90 180l78 15 l37 -15q16 -95 82 -155q82 14 149 14q30 0 49 -0.5t46.5 -2.5t45 -7t34.5 -12.5t25.5 -20t8.5 -29.5q0 -13 -4.5 -23t-15.5 -17t-21 -12.5t-29 -8.5t-31 -4.5t-36 -2.5t-35 -1h-37q-96 0 -170 41q-129 -47 -208.5 -153.5t-79.5 -242.5q0 -137 200 -176q144 25 328 25l12 -76 l-12 -37q-203 0 -299 8q-285 -76 -285 -288q0 -77 47 -135.5t119 -65.5l404 -43q93 -10 155 -83t62 -169z"/>
<glyph unicode="ο" horiz-adv-x="1118" d="M1053 485q0 -230 -152.5 -378t-388.5 -148q-198 0 -322 134.5t-124 350.5q0 229 140.5 373t364.5 144q210 0 346 -134.5t136 -341.5zM862 410q0 209 -93 346t-234 137q-135 0 -207 -97.5t-72 -281.5q0 -218 92.5 -352.5t243.5 -134.5q125 0 197.5 103t72.5 280z"/>
<glyph unicode="π" horiz-adv-x="1394" d="M1313 799q-138 -69 -287 -84v-539q0 -62 41.5 -104.5t101.5 -42.5v-70q-82 0 -152 23.5t-116.5 74.5t-46.5 119v537q-52 4 -107 13t-127.5 23.5t-105.5 20.5v-332q0 -129 -48.5 -241t-140.5 -182t-208 -70v114q140 0 233.5 112.5t93.5 266.5v342q-79 11 -133 11 q-66 0 -112.5 -26t-46.5 -75h-70q0 110 65 191.5t164 81.5q106 0 313.5 -41.5t313.5 -40.5q160 3 297 73l70 -94z"/>
<glyph unicode="ρ" horiz-adv-x="1107" d="M1026 463q0 -135 -61.5 -250.5t-170.5 -184.5t-239 -69q-122 0 -223 55q14 -107 14 -184q0 -176 -96 -319l-109 47l-35 47q68 103 68 225q0 106 -46 315.5t-46 317.5q0 133 62 247.5t171.5 182.5t239.5 68q129 0 238 -68t171 -182.5t62 -247.5zM834 463q0 111 -29.5 206 t-94.5 158.5t-155 63.5q-91 0 -156.5 -63.5t-95 -158.5t-29.5 -206q0 -29 2.5 -63t4 -55t8 -65t8 -54.5t11 -64.5t9.5 -57q104 -75 238 -75q91 0 156 65t94 161t29 208z"/>
<glyph unicode="ς" horiz-adv-x="925" d="M844 874l-43 -65l-35 -16q-106 98 -193 98q-134 0 -226.5 -99t-92.5 -237q0 -203 115 -287q50 -38 159.5 -97t159.5 -97q117 -91 117 -201q0 -66 -39.5 -115t-99.5 -49q-114 0 -197 80l49 49q59 -59 148 -59q31 0 50 28t19 66q0 74 -90 145q-51 39 -166 90t-164 87 q-233 174 -233 360q0 117 69 211.5t181 144.5t241 50q181 0 271 -87z"/>
<glyph unicode="σ" horiz-adv-x="1200" d="M1118 975q-135 -52 -299 -68q117 -58 183.5 -168.5t66.5 -253.5q0 -230 -152.5 -378t-388.5 -148q-198 0 -322 134.5t-124 350.5q0 229 141 373t365 144q13 0 63 -5q177 17 430 117l37 -61v-37zM879 410q0 209 -93.5 346t-234.5 137q-135 0 -207 -97.5t-72 -281.5 q0 -218 92.5 -352.5t243.5 -134.5q125 0 198 103t73 280z"/>
<glyph unicode="τ" horiz-adv-x="1171" d="M1090 809q-181 -146 -418 -127v-453q0 -84 27 -142t85 -58q99 0 99 200h69q0 -111 -42.5 -190.5t-125.5 -79.5q-117 0 -200.5 78.5t-83.5 191.5v496q-186 66 -189 66q-66 0 -112.5 -26t-46.5 -75h-70q0 110 65 191.5t164 81.5q37 0 277 -86q101 -37 206.5 -19t188.5 86 l88 -78z"/>
<glyph unicode="υ" horiz-adv-x="1239" d="M1157 512q0 -145 -53 -270.5t-154 -204t-229 -78.5q-125 0 -232 40t-176 121t-69 187q0 65 25.5 192t25.5 191q0 31 -0.5 47.5t-2 44.5t-6.5 43.5t-12.5 33t-20.5 25t-30 7.5t-30 -7.5t-20.5 -25t-12 -32.5t-6 -44t-2 -44t-0.5 -48h-70q0 53 6.5 97.5t21.5 85.5t44 64.5 t69 23.5q103 0 173.5 -80.5t70.5 -190.5q0 -65 -15.5 -192.5t-15.5 -190.5q0 -116 83.5 -197t201.5 -81q109 0 194.5 69.5t128.5 178.5t43 235q0 96 -53 179t-145 173l67 97l56 26q83 -85 114 -204.5t31 -270.5z"/>
<glyph unicode="φ" horiz-adv-x="1302" d="M1221 461q0 -184 -128 -319t-319 -171q4 -94 4 -141q0 -97 -39.5 -185t-111.5 -153l-92 74l-23 57q44 38 69 92.5t25 114.5q0 45 -4 131q-141 10 -259.5 76t-189.5 178t-71 246q0 263 311 493l43 -57q-162 -117 -162 -436q0 -160 91.5 -282.5t232.5 -145.5 q-4 47 -13.5 149.5t-14.5 180t-5 149.5q0 116 37 217t112.5 166.5t174.5 65.5q80 0 144.5 -42.5t104.5 -114t61.5 -159.5t21.5 -184zM1028 461q0 49 -0.5 75t-2 73.5t-5 74.5t-10 64.5t-16.5 59t-24.5 43t-35 31t-45.5 9.5t-45.5 -8t-35 -19t-26.5 -32.5t-19 -40t-12.5 -50 t-8 -52.5t-4 -58.5t-1.5 -58.5v-60q0 -70 4.5 -142.5t14 -179t12.5 -141.5q116 43 188 157.5t72 254.5z"/>
<glyph unicode="χ" horiz-adv-x="1138" d="M1139 -221q0 -114 -42.5 -196.5t-125.5 -82.5q-27 0 -52 9.5t-43.5 22t-37.5 37t-30.5 43t-27.5 52.5t-23.5 53t-21.5 56l-129 344q-61 -75 -103 -136t-82 -136t-60.5 -154t-20.5 -162l-115 -21l-57 21q0 66 12.5 130t41 126.5t55.5 111.5t75 113t79.5 103t88.5 106 l33 39l-133 354q-12 31 -15.5 39.5t-15 37t-18 39t-18.5 32.5t-22 31t-23.5 21.5t-27.5 17t-30 4.5q-49 0 -73.5 -48.5t-24.5 -115.5h-70q0 114 42.5 196t125.5 82q24 0 47 -11t41 -25.5t37.5 -43t31.5 -50t29 -60t25 -59.5t24 -62l119 -318q63 77 106.5 139t85.5 139 t63.5 158t21.5 165l114 20l58 -20q0 -99 -26.5 -190t-90 -189.5t-106.5 -153.5t-136 -165q-25 -29 -37 -44l144 -381q16 -40 29.5 -67t34 -56t47.5 -44t59 -15q49 0 73.5 48.5t24.5 115.5h70z"/>
<glyph unicode="ψ" horiz-adv-x="1406" d="M1325 512q0 -147 -65.5 -274t-182 -203t-256.5 -76v-471h-69v473q-80 4 -153 19t-138 43.5t-113 67.5t-76 94.5t-28 121.5q0 65 25.5 192t25.5 191q0 31 -0.5 47.5t-2 44.5t-6.5 43.5t-12.5 33t-20.5 25t-30 7.5t-30 -7.5t-20.5 -25t-12 -32.5t-6 -44t-2 -44t-0.5 -48 h-70q0 53 6.5 97.5t21.5 85.5t44 64.5t69 23.5q103 0 173.5 -80.5t70.5 -190.5q0 -65 -15.5 -192.5t-15.5 -190.5q0 -112 91 -185t225 -89v428q0 485 -52 956l115 21l57 -21q-51 -462 -51 -956v-432q122 0 222.5 67t156 177.5t55.5 238.5q0 96 -53 179t-145 173l67 97l56 26 q83 -85 114 -204.5t31 -270.5z"/>
<glyph unicode="ω" horiz-adv-x="1359" d="M1278 457q0 -129 -43 -241.5t-128.5 -184.5t-195.5 -72q-166 0 -245 174q-71 -174 -215 -174q-111 0 -197 72t-129 184.5t-43 241.5q0 127 61.5 243t169.5 242l54 -45q-69 -81 -91 -187.5t-22 -252.5q0 -88 7 -154.5t26 -133.5t60.5 -103.5t103.5 -36.5q75 0 118.5 58.5 t59.5 156.5q-35 144 -35 368l115 21l57 -21v-79.5t1 -79.5t3 -81.5t5.5 -75.5t9 -73t13 -62t18.5 -55.5t24.5 -40t31.5 -28t39 -8.5q50 0 86.5 26t57 65.5t32.5 99t15.5 114t3.5 123.5q0 146 -22 252.5t-91 187.5l54 45q108 -126 169.5 -242t61.5 -243z"/>
<glyph unicode="ϑ" horiz-adv-x="1341" d="M1260 922q-55 -17 -101 -25q15 -102 15 -207q0 -112 -19 -217t-59 -198.5t-96.5 -163.5t-137 -111t-174.5 -41q-126 0 -235 39.5t-179.5 120.5t-70.5 188q0 67 46 192t46 191q0 31 -0.5 47t-2 44t-5 44t-10 33t-17 25t-24.5 8q-24 0 -40.5 -13t-24.5 -30t-12.5 -47.5 t-5.5 -52.5t-1 -58h-70q0 52 8 98t25.5 86t48.5 63.5t72 23.5q99 0 165 -80.5t66 -190.5q0 -66 -36 -192t-36 -191q0 -117 86 -197.5t207 -80.5q56 0 100.5 21t75 55t52.5 87t34.5 106.5t19.5 125t9 131t2 135.5l-2 195q-512 12 -547 284q-13 117 65 203t195 86 q92 0 169 -38.5t132 -107t93.5 -155.5t60.5 -192q27 5 92 22zM975 954q-5 76 -15.5 136.5t-31.5 118t-51.5 96t-77.5 61.5t-107 23q-86 0 -143.5 -63t-46.5 -146q6 -47 27.5 -83.5t57.5 -60t77.5 -40t96.5 -25t104 -12.5t110 -5z"/>
<glyph unicode="ϕ" horiz-adv-x="1150" d="M1069 485q0 -210 -127 -353t-332 -169v-475h-69v471h-13q-198 0 -322 134.5t-124 350.5q0 213 121.5 352.5t322.5 161.5l-37 459l115 21l58 -21l-37 -459q196 -12 320 -144t124 -329zM541 35v426l-11 432q-126 -7 -192 -104.5t-66 -274.5q0 -191 73 -320.5t196 -158.5z M879 410q0 182 -71.5 311t-186.5 162l-11 -422v-434q124 2 196.5 104.5t72.5 278.5z"/>
<glyph unicode="ϖ" horiz-adv-x="1359" d="M1278 457q0 -129 -43 -241.5t-128.5 -184.5t-195.5 -72q-166 0 -245 174q-71 -174 -215 -174q-111 0 -197 72t-129 184.5t-43 241.5q0 127 61.5 243t169.5 242l54 -45q-69 -81 -91 -187.5t-22 -252.5q0 -88 7 -154.5t26 -133.5t60.5 -103.5t103.5 -36.5q75 0 118.5 58.5 t59.5 156.5q-35 144 -35 368l115 21l57 -21v-79.5t1 -79.5t3 -81.5t5.5 -75.5t9 -73t13 -62t18.5 -55.5t24.5 -40t31.5 -28t39 -8.5q50 0 86.5 26t57 65.5t32.5 99t15.5 114t3.5 123.5q0 132 -18.5 246t-58.5 214.5t-114 159t-176 58.5q-222 0 -448 -70l-21 68 q230 71 469 71q100 0 187.5 -41t151 -112.5t109.5 -166.5t68.5 -204t22.5 -223z"/>
<glyph unicode="ϵ" horiz-adv-x="1005" d="M924 100q-49 -71 -131 -106t-179 -35q-144 0 -266.5 70.5t-194 192t-71.5 265.5q0 88 36.5 165t100 133t148 96t181 60t197.5 20h132v-70h-132q-123 0 -229.5 -49.5t-172.5 -140.5t-69 -203q53 -4 124.5 11t125.5 32t125 21t121 -23l-49 -103q-48 22 -108.5 24.5t-110 -6 t-115 -17.5t-111.5 -7q9 -108 51 -198t117.5 -146.5t169.5 -56.5q122 0 215 135l72 -31z"/>
<glyph unicode="Ѐ" horiz-adv-x="1251" d="M1171 336q-32 -170 -32 -336l-342 -6l-330 4l-145 2l-252 -6v61l73 6q32 3 48.5 7.5t29.5 13.5t18 31.5t7 51t2 81.5v919q0 65 -2.5 97t-15 53.5t-31 27t-56.5 7.5l-98 6v61l365 -6l272 4l203 2l254 -6q-33 -129 -33 -311h-72v133q0 36 -9.5 48.5t-45.5 21.5 q-103 28 -297 28q-107 0 -150 -3t-90 -13v-547q105 -6 226 -6q178 0 229 22q13 26 16 54l11 106h61q-6 -205 -6 -237q0 -38 6 -228h-61l-11 121l-16 51q-51 25 -244 25q-125 0 -211 -6v-574q79 -16 203 -16q303 0 377 24q22 8 40.5 52t27.5 110q3 12 10 70h71zM838 1622h-82 l-295 184q-51 32 -66.5 50.5t-15.5 46.5q0 29 18.5 49t44.5 20q46 0 113 -67z"/>
<glyph unicode="Ё" horiz-adv-x="1251" d="M1171 336q-32 -170 -32 -336l-342 -6l-330 4l-145 2l-252 -6v61l73 6q32 3 48.5 7.5t29.5 13.5t18 31.5t7 51t2 81.5v919q0 65 -2.5 97t-15 53.5t-31 27t-56.5 7.5l-98 6v61l365 -6l272 4l203 2l254 -6q-33 -129 -33 -311h-72v133q0 36 -9.5 48.5t-45.5 21.5 q-103 28 -297 28q-107 0 -150 -3t-90 -13v-547q105 -6 226 -6q178 0 229 22q13 26 16 54l11 106h61q-6 -205 -6 -237q0 -38 6 -228h-61l-11 121l-16 51q-51 25 -244 25q-125 0 -211 -6v-574q79 -16 203 -16q303 0 377 24q22 8 40.5 52t27.5 110q3 12 10 70h71zM524 1675 q0 -46 -28 -74t-74 -28t-74.5 28t-28.5 74t29 74.5t76 28.5q44 0 72 -29t28 -74zM932 1675q0 -46 -28.5 -74t-74.5 -28t-74 28t-28 74t28.5 74.5t75.5 28.5q44 0 72.5 -29.5t28.5 -73.5z"/>
<glyph unicode="Ђ" horiz-adv-x="1255" d="M1577 313q0 -186 -26 -283.5t-101 -189.5q-60 -75 -143 -124.5t-136 -41.5l-14 2l-35 5l-10 155l23 12q66 -41 137 -41q61 0 85.5 51.5t24.5 180.5v498q0 235 -299 235q-75 2 -191 -30.5t-167 -75.5v-420q0 -53 2 -81.5t7 -51t18 -32t29.5 -14t47.5 -6.5l99 -6v-61 q-182 6 -301 6q-118 0 -299 -6v61l98 6q31 2 47.5 6.5t29.5 14t18 32t7 51t2 81.5v866q0 112 -8 205h-317q-43 0 -62 -15.5t-20 -52.5l-8 -162h-64q0 166 -14 330l139 -2l277 -4h323l170 2l273 4q-15 -176 -15 -330h-63l-8 162q-1 37 -20 52.5t-62 15.5h-318q-8 -91 -8 -205 v-346q53 36 154.5 66t203.5 30q83 0 152.5 -15.5t134 -54.5t109.5 -100t71.5 -157.5t26.5 -221.5z"/>
<glyph unicode="Ѓ" horiz-adv-x="1138" d="M766 1841q0 -28 -15.5 -46t-66.5 -50l-295 -184h-82l283 282q68 68 112 68q26 0 45 -20.5t19 -49.5zM1098 1411q-33 -129 -33 -311h-72v133q0 36 -9.5 48.5t-45.5 21.5q-110 28 -276 28q-150 0 -220 -16v-1069q0 -65 2.5 -97t15 -53.5t31 -27t56.5 -7.5l98 -6v-61 q-182 6 -301 6q-118 0 -299 -6v61l98 6q38 2 56.5 7.5t31 27t15 53.5t2.5 97v919q0 65 -2.5 97t-15 53.5t-31 27t-56.5 7.5l-98 6v61l361 -6l223 4l219 2z"/>
<glyph unicode="Є" horiz-adv-x="1452" d="M1372 172l-57 -102q-211 -111 -465 -111q-238 0 -421 92.5t-283.5 261t-100.5 387.5q0 207 90.5 366.5t265.5 262.5q211 123 486 123q217 0 473 -84q-36 -169 -39 -311h-64v147q0 39 -59.5 77t-154.5 61.5t-193 23.5q-257 0 -417 -163.5t-169 -434.5q57 -27 96 -27 q88 0 178 21.5t154.5 47t152.5 47t171 22.5q29 -1 64 -18.5t64.5 -42t55.5 -49t40 -41.5l15 -17v-56q-98 58 -170 58q-85 0 -168.5 -18.5t-141.5 -41t-143.5 -41t-172.5 -18.5q-30 0 -61 16t-52 35.5t-43.5 36.5t-36.5 18q12 -197 99 -340.5t232 -216.5t333 -73 q234 0 424 123z"/>
<glyph unicode="Ѕ" horiz-adv-x="1075" d="M1030 471q0 -147 -79 -264t-219 -182.5t-316 -65.5t-355 78q17 130 17 231q0 45 -2 82h65l17 -137q8 -63 109.5 -113.5t224.5 -50.5q160 0 263 90t103 228q0 117 -78 180q-39 35 -100.5 55t-181.5 37q-148 20 -229 47.5t-134 75.5q-86 80 -86 229q0 201 148.5 331 t377.5 130q86 0 167 -18.5t202 -67.5q-29 -161 -29 -289h-65l-12 117q-5 45 -25.5 72t-71.5 53q-83 47 -211 47q-135 0 -222 -83t-87 -212q0 -118 75 -175.5t263 -82.5q174 -24 254 -49.5t133 -75.5q84 -78 84 -217z"/>
<glyph unicode="І" horiz-adv-x="690" d="M645 -6q-182 6 -301 6q-118 0 -299 -6v61l98 6q38 2 56.5 7.5t31 27t15 53.5t2.5 97v919q0 65 -2.5 97t-15 53.5t-31 27t-56.5 7.5l-98 6v61q220 -6 299 -6q151 0 301 6v-61l-98 -6q-38 -2 -56.5 -7.5t-31 -27t-15 -53.5t-2.5 -97v-919q0 -65 2.5 -97t15 -53.5t31 -27 t56.5 -7.5l98 -6v-61z"/>
<glyph unicode="Ї" horiz-adv-x="690" d="M645 -6q-182 6 -301 6q-118 0 -299 -6v61l98 6q38 2 56.5 7.5t31 27t15 53.5t2.5 97v919q0 65 -2.5 97t-15 53.5t-31 27t-56.5 7.5l-98 6v61q220 -6 299 -6q151 0 301 6v-61l-98 -6q-38 -2 -56.5 -7.5t-31 -27t-15 -53.5t-2.5 -97v-919q0 -65 2.5 -97t15 -53.5t31 -27 t56.5 -7.5l98 -6v-61zM244 1675q0 -46 -28.5 -74t-74.5 -28t-74 28t-28 74t28.5 74.5t75.5 28.5q44 0 72.5 -29.5t28.5 -73.5zM651 1675q0 -46 -28 -74t-74 -28t-74.5 28t-28.5 74t29 74.5t76 28.5q44 0 72 -29t28 -74z"/>
<glyph unicode="Ј" d="M637 1356l-98 -6q-38 -2 -56.5 -7.5t-31 -27t-15 -53.5t-2.5 -97v-925q0 -186 -26 -283.5t-101 -189.5q-60 -75 -142.5 -124.5t-135.5 -41.5l-15 2l-34 4l-11 155l23 13q66 -41 137 -41q62 0 86.5 51t24.5 180v1200q0 65 -2.5 97t-15 53.5t-31 27t-56.5 7.5l-98 6v61 q220 -6 299 -6q151 0 301 6v-61z"/>
<glyph unicode="Љ" horiz-adv-x="1478" d="M2042 299q0 -148 -112.5 -232.5t-307.5 -84.5q-30 0 -57 2l-291 4l-373 -6v61l115 6q65 3 65 41q0 7 -4 23l-403 1038l-375 -969q-18 -47 -18 -80q0 -23 18.5 -37.5t52.5 -15.5l107 -6v-61q-33 2 -78 2l-143 4l-222 -6v61l62 6q31 4 52.5 34t57.5 114l488 1220h102 l522 -1333q103 -25 197 -25q166 0 253 75.5t87 221.5q0 138 -85 226t-218 88q-86 0 -248 -49l21 73q7 1 54.5 13.5t92.5 20t92 7.5q138 0 252 -57.5t179 -157.5t65 -221z"/>
<glyph unicode="Њ" horiz-adv-x="1703" d="M2202 311q0 -148 -112.5 -232.5t-307.5 -84.5q-31 0 -58 2l-290 4l-373 -6v61l92 6q48 3 70 18t30.5 51.5t8.5 115.5v456q-69 5 -170 5h-480q-101 0 -170 -5v-456q0 -65 2.5 -97t15 -53.5t31 -27t56.5 -7.5l98 -6v-61q-182 6 -301 6q-118 0 -299 -6v61l98 6 q38 2 56.5 7.5t31 27t15 53.5t2.5 97v919q0 65 -2.5 97t-15 53.5t-31 27t-56.5 7.5l-98 6v61q220 -6 299 -6q151 0 301 6v-61l-98 -6q-38 -2 -56.5 -7.5t-31 -27t-15 -53.5t-2.5 -97v-364q82 -4 170 -4h480q84 0 170 4v364q0 65 -2.5 97t-15 53.5t-31 27t-56.5 7.5l-98 6v61 q221 -6 299 -6q151 0 301 6v-61l-98 -6q-38 -2 -56.5 -7.5t-31 -27t-15 -53.5t-2.5 -97v-1069q108 -24 201 -24q166 0 253 75.5t87 221.5q0 138 -84.5 225.5t-218.5 87.5q-61 0 -127 -20l20 73q64 13 119 13q210 0 353 -126t143 -311z"/>
<glyph unicode="Ћ" horiz-adv-x="1255" d="M1780 -6q-220 6 -299 6q-151 0 -301 -6v61l98 6q23 1 40 9t28.5 23.5t18.5 34.5t11 49.5t5 60.5t1 75v224q0 235 -299 235q-75 2 -191 -30.5t-167 -75.5v-420q0 -53 2 -81.5t7 -51t18 -32t29.5 -14t47.5 -6.5l99 -6v-61q-182 6 -301 6q-118 0 -299 -6v61l98 6 q31 2 47.5 6.5t29.5 14t18 32t7 51t2 81.5v866q0 112 -8 205h-317q-43 0 -62 -15.5t-20 -52.5l-8 -162h-64q0 166 -14 330l139 -2l277 -4h323l170 2l273 4q-15 -176 -15 -330h-63l-8 162q-1 37 -20 52.5t-62 15.5h-318q-8 -91 -8 -205v-346q53 36 154.5 66t203.5 30 q60 0 110 -6t102 -22t92.5 -42t77 -68.5t60.5 -99t38 -135.5t14 -176q0 -45 1 -75t5 -60.5t11 -49.5t18.5 -34.5t28.5 -23.5t40 -9l99 -6v-61z"/>
<glyph unicode="Ќ" horiz-adv-x="1486" d="M766 1841q0 -28 -15.5 -46t-66.5 -50l-295 -184h-82l283 282q68 68 112 68q26 0 45 -20.5t19 -49.5zM1473 -6q-102 6 -134 6q-37 0 -180 -6l-717 672v-420q0 -65 2.5 -97t15 -53.5t31 -27t56.5 -7.5l98 -6v-61q-182 6 -301 6q-118 0 -299 -6v61l98 6q38 2 56.5 7.5t31 27 t15 53.5t2.5 97v919q0 65 -2.5 97t-15 53.5t-31 27t-56.5 7.5l-98 6v61q220 -6 299 -6q151 0 301 6v-61l-98 -6q-38 -2 -56.5 -7.5t-31 -27t-15 -53.5t-2.5 -97v-405l570 522q25 22 42 46t17 34v55l182 -6l164 6v-61l-86 -4q-76 -3 -160 -78l-544 -492l676 -639 q48 -45 76 -64t51 -20l43 -4v-61z"/>
<glyph unicode="Ѝ" horiz-adv-x="1703" d="M1659 -6q-181 6 -301 6q-118 0 -299 -6v61l98 6q38 2 56.5 7.5t31 27t15 53.5t2.5 97v764l-820 -783v-32q0 -67 20 -98.5t85 -35.5l98 -6v-61q-182 6 -301 6q-118 0 -299 -6v61l98 6q38 2 56.5 7.5t31 27t15 53.5t2.5 97v919q0 65 -2.5 97t-15 53.5t-31 27t-56.5 7.5 l-98 6v61q220 -6 299 -6q151 0 301 6v-61l-98 -6q-38 -2 -56.5 -7.5t-31 -27t-15 -53.5t-2.5 -97v-829l820 782v47q0 65 -2.5 97t-15 53.5t-31 27t-56.5 7.5l-98 6v61q221 -6 299 -6q151 0 301 6v-61l-98 -6q-38 -2 -56.5 -7.5t-31 -27t-15 -53.5t-2.5 -97v-919 q0 -65 2.5 -97t15 -53.5t31 -27t56.5 -7.5l98 -6v-61zM1081 1622h-82l-294 184q-51 32 -66.5 50.5t-15.5 46.5q0 29 18.5 49t44.5 20q46 0 113 -67z"/>
<glyph unicode="Ў" horiz-adv-x="1366" d="M1044 1819q-3 -67 -13.5 -108.5t-35.5 -82.5q-37 -64 -99 -98.5t-140 -34.5q-172 0 -248 145q-36 70 -41 179h61q5 -88 69 -144.5t159 -56.5t158.5 56.5t68.5 144.5h61zM1339 1421l-583 -1231q-35 -74 -74.5 -124.5t-71.5 -70.5t-58.5 -29t-41.5 -7l-14 2l-115 39 l-25 152l21 20q33 -30 65 -41.5t82 -11.5q56 0 91 40.5t77 123.5l-368 753q-59 121 -127 203t-119 88l-60 6v60l236 49l10 2q29 6 86.5 -57.5t100.5 -153.5l350 -731q3 -9 82 170.5t171 410.5t122 338h163z"/>
<glyph unicode="Џ" horiz-adv-x="1703" d="M1659 -6l-299 6l-383 -4q-21 -19 -21 -72.5t11.5 -98t19.5 -54.5l2 -2l-2 2q-25 7 -129 7t-137 -9q5 1 16.5 50t13.5 99t-22 76l-383 6l-301 -6v61l98 6q38 2 56.5 7.5t31 27t15 53.5t2.5 97v919q0 65 -2.5 97t-15 53.5t-31 27t-56.5 7.5l-98 6v61q181 -6 301 -6 q117 0 299 6v-61l-98 -6q-38 -2 -56.5 -7.5t-31 -27t-15 -53.5t-2.5 -97v-1073q55 -4 172 -4h480q113 0 168 4v1073q0 65 -2.5 97t-15 53.5t-31 27t-56.5 7.5l-98 6v61q181 -6 301 -6q118 0 299 6v-61l-98 -6q-38 -2 -56.5 -7.5t-31 -27t-15 -53.5t-2.5 -97v-919 q0 -65 2.5 -97t15 -53.5t31 -27t56.5 -7.5l98 -6v-61z"/>
<glyph unicode="А" horiz-adv-x="1593" d="M1548 -6q-221 6 -260 6q-32 0 -284 -6v61l96 6q84 7 84 41q0 25 -43 131l-94 236h-590l-58 -137q-71 -168 -71 -217q0 -25 22 -37.5t76 -16.5l76 -6v-61q-221 6 -248 6q-33 0 -223 -6v61l75 6q34 3 63 30t48 71l365 829l108 248l80 195h66l495 -1164q55 -126 82 -164.5 t66 -44.5l69 -6v-61zM1010 551l-258 610l-260 -610h518z"/>
</font>
</defs>
</svg>
